<svg id="Livello_1" data-name="Livello 1" xmlns="http://www.w3.org/2000/svg" viewBox="0 0 296.25 134.21"><defs><style>.cls-1{fill:#fe533c;}.cls-2{fill:#fefbfa;}.cls-3{fill:#fe654f;}.cls-4{fill:#fe5e48;}.cls-5{fill:#fafafb;}.cls-6{fill:#fe634e;}.cls-7{fill:#fe644f;}.cls-8{fill:#fe6a55;}.cls-9{fill:#fe6751;}.cls-10{fill:#f95d47;}.cls-11{fill:#fe715e;}.cls-12{fill:#fe6a56;}.cls-13{fill:#fe6550;}.cls-14{fill:#fe6b56;}.cls-15{fill:#fe6c57;}.cls-16{fill:#fd6f5c;}.cls-17{fill:#fe705d;}.cls-18{fill:#fe5d47;}.cls-19{fill:#fefefe;}.cls-20{fill:#fcfafa;}.cls-21{fill:#f8f6f5;}.cls-22{fill:#f8e7e5;}.cls-23{fill:#fbf6f6;}.cls-24{fill:#ef5843;}.cls-25{fill:#f1553f;}.cls-26{fill:#f7eeed;}.cls-27{fill:#ec604d;}.cls-28{fill:#fc563f;}.cls-29{fill:#fe5740;}.cls-30{fill:#fd5b45;}.cls-31{fill:#fe6b57;}.cls-32{fill:#f6614c;}.cls-33{fill:#fb614c;}.cls-34{fill:#f75d47;}.cls-35{fill:#f2eae9;}.cls-36{fill:#edeae9;}.cls-37{fill:#eddcda;}.cls-38{fill:#d84e3b;}.cls-39{fill:#e7e5e5;}.cls-40{fill:#efebeb;}.cls-41{fill:#e65540;}.cls-42{fill:#ededed;}.cls-43{fill:#d65745;}.cls-44{fill:#dfd4d3;}.cls-45{fill:#e9e9e9;}.cls-46{fill:#e2e2e2;}.cls-47{fill:#e1e1e1;}.cls-48{fill:#dedede;}.cls-49{fill:#e0e0e0;}.cls-50{fill:#f2f2f2;}.cls-51{fill:#faf9f9;}.cls-52{fill:#f65943;}.cls-53{fill:#e05c49;}.cls-54{fill:#eae1df;}.cls-55{fill:#fbf9f9;}.cls-56{fill:#fa6651;}.cls-57{fill:#f95f49;}.cls-58{fill:#eeeded;}.cls-59{fill:#f7f5f5;}.cls-148,.cls-60{fill:#f6f6f6;}.cls-61{fill:#b3493b;}.cls-62{fill:#d2d2d2;}.cls-63{fill:#d1d1d1;}.cls-64{fill:#ddd;}.cls-65{fill:#d5d5d5;}.cls-66{fill:#dcdcdc;}.cls-67{fill:#a6a2a2;}.cls-68{fill:#d65340;}.cls-69{fill:#ca5141;}.cls-70{fill:#b8b8b8;}.cls-71{fill:#d4d4d4;}.cls-72{fill:#d9d9d9;}.cls-73{fill:#eee;}.cls-74{fill:#eaeaea;}.cls-75{fill:#f7f6f6;}.cls-76{fill:#f5f4f4;}.cls-77{fill:#f9624d;}.cls-78{fill:#f85f4a;}.cls-79{fill:#f75d48;}.cls-80{fill:#f75b45;}.cls-81{fill:#d75544;}.cls-82{fill:#f9725f;}.cls-83{fill:#fb6f5c;}.cls-84{fill:#b1abaa;}.cls-85{fill:#aeadac;}.cls-86{fill:#afadad;}.cls-87{fill:#b0b0b0;}.cls-88{fill:#a9a8a8;}.cls-89{fill:#ab4638;}.cls-90{fill:#82382e;}.cls-91{fill:#a64639;}.cls-92{fill:#9e9b9b;}.cls-93{fill:#c9c8c8;}.cls-94{fill:#9f9d9c;}.cls-95{fill:#9e9594;}.cls-96{fill:#a75347;}.cls-97{fill:#985b53;}.cls-98{fill:#d05241;}.cls-99{fill:#8e7d7b;}.cls-100{fill:#7a5d59;}.cls-101{fill:#a94c3f;}.cls-102{fill:#bdbdbd;}.cls-103{fill:#a7a7a7;}.cls-104{fill:#bababa;}.cls-105{fill:#c3c3c3;}.cls-106{fill:#bdbcbc;}.cls-107{fill:silver;}.cls-108{fill:#cbcbcb;}.cls-109{fill:#c7c7c7;}.cls-110{fill:#bcbcbc;}.cls-111{fill:#d3d3d3;}.cls-112{fill:#b6b5b5;}.cls-113{fill:#ccc;}.cls-114{fill:#b9b9b9;}.cls-115{fill:#c6c6c6;}.cls-116{fill:#d0d0d0;}.cls-117{fill:#d7d7d7;}.cls-118{fill:#d8d8d8;}.cls-119{fill:#c8c8c8;}.cls-120{fill:#a6a6a6;}.cls-121{fill:#969696;}.cls-122{fill:#989898;}.cls-123{fill:#828282;}.cls-124{fill:#a8a8a8;}.cls-125{fill:#9f9f9f;}.cls-126{fill:#b3b3b3;}.cls-127{fill:#6a6969;}.cls-128{fill:#5b5b5b;}.cls-129{fill:#adadad;}.cls-130{fill:#a3a3a3;}.cls-131{fill:#9c9c9c;}.cls-132{fill:#959595;}.cls-133{fill:#a4a4a4;}.cls-134{fill:#a5a5a5;}.cls-135{fill:#ababab;}.cls-136{fill:#b6b6b6;}.cls-137{fill:#9d9d9d;}.cls-138{fill:#cecece;}.cls-139{fill:#bebebe;}.cls-140{fill:#b2b2b2;}.cls-141{fill:#c2c2c2;}.cls-142{fill:#757575;}.cls-143{fill:#8f8f8f;}.cls-144{fill:#929292;}.cls-145{font-size:18px;fill:#7046c7;font-family:AniMeMatrix-MB_EN, AniMe Matrix - MB_EN;}.cls-146{letter-spacing:0.02em;}.cls-147{fill:none;}.cls-147,.cls-148{stroke:#f6f6f6;stroke-miterlimit:10;}</style></defs><path class="cls-1" d="M440.84,451.17l1.06,1.39c.65.78,1.56,1.36,1.91,2.38a3.14,3.14,0,0,1,.12,1.05,1.57,1.57,0,0,1-1.86,1.48c-2.14-.72-2.86-3-4.55-4.21-1.27-1-2-2.46-3.34-3.38a41.1,41.1,0,0,0-26.51-12.24,43.21,43.21,0,0,0-33.09,10.67c-18.63,16-20.29,45-3.25,63.54,15.44,16.79,41.25,17.61,55.9,6.84,1-.74,2-1.44,3.06-2.14,1.75-.91,2.91-2.6,4.61-3.59a2.08,2.08,0,0,1,1.08,0,2.54,2.54,0,0,1,1.6,2.64,21.27,21.27,0,0,1-4.95,5.2c-18.29,13.63-46.07,12.7-63.29-4.67-9.52-9.59-14.59-21.36-14.44-34.93a48.82,48.82,0,0,1,10.9-30.36,5.9,5.9,0,0,1,2.64-2c6.68-6.06,13.92-11.22,22.85-13.39,18.33-4.46,34.06.42,47.47,13.44C439.65,449.46,440.91,449.71,440.84,451.17Z" transform="translate(-352.82 -433.82)"/><path class="cls-2" d="M368.44,448.82c-5,6.55-9.28,13.4-11.22,21.6a47.75,47.75,0,0,0,49.44,58.74c9.63-.58,18.13-4,26-9.39.68-.35,1,.06,1.29.59.11,1.64-1.41,1.93-2.28,2.77-1.34.78-2.58,1.75-4,2.4-1.26.63-2.55,1.17-3.8,1.83a77.59,77.59,0,0,1-7.87,2.83c-2.93.49-5.86,1-8.82,1.28q-3.08.07-6.15,0a89.42,89.42,0,0,1-9.49-1.3,65.86,65.86,0,0,1-7.92-2.79,26.85,26.85,0,0,0-3.84-1.7c-1.28-.81-2.55-1.64-3.84-2.45a34.63,34.63,0,0,1-4-3,54.74,54.74,0,0,1-9.09-9.72,18,18,0,0,1-2.29-3.62c-3-4.76-4.62-10-6.07-15.39a57.44,57.44,0,0,1-.66-15.87c.77-3.28,1.05-6.68,2.23-9.86.74-1.7,1.33-3.45,2.2-5.09,1.47-2.79,2.51-5.82,4.61-8.26,1.51-1.58,2.63-3.49,4.17-5.05Z" transform="translate(-352.82 -433.82)"/><path class="cls-3" d="M355.15,492a84.49,84.49,0,0,0,6,15c.39.89-.11,1-.81.92a38.15,38.15,0,0,1-5.91-14.24C354.86,493.24,354.43,492.39,355.15,492Z" transform="translate(-352.82 -433.82)"/><path class="cls-4" d="M355.15,492l-.74,1.66a11.31,11.31,0,0,1-1-5.71c-.63-1.52.11-3.19-.52-4.72v-3c.69-1.75-.17-3.67.55-5.42l.18-2c1.76.38.8,1.57.74,2.49C354.38,480.89,353.94,486.5,355.15,492Z" transform="translate(-352.82 -433.82)"/><path class="cls-5" d="M552.4,517.67l-1.32,3c-.35-2-2-1.35-3.18-1.48-2.74-.29-5.62.73-8.2-.93a.75.75,0,0,1,.07-.57Z" transform="translate(-352.82 -433.82)"/><path class="cls-6" d="M363.15,510.22l9,9.75a1,1,0,0,1-.59.67,34,34,0,0,1-9.07-9.53C362.06,510.33,362.55,510.23,363.15,510.22Z" transform="translate(-352.82 -433.82)"/><path class="cls-7" d="M354.4,475.3c-.16-.85.1-1.84-.74-2.49a25.72,25.72,0,0,1,2.19-8.25c.82-.07,1.14.24.85,1.05Z" transform="translate(-352.82 -433.82)"/><path class="cls-7" d="M363.35,452.7l-4.63,8.09c-.78.07-1.12-.22-.81-1a24.19,24.19,0,0,1,4.53-8C363.24,451.6,363.55,451.9,363.35,452.7Z" transform="translate(-352.82 -433.82)"/><path class="cls-8" d="M407.15,531l9-1.44c.76-.13,1.71-.74,1.78.75a30.34,30.34,0,0,1-7.49,1.49C409.42,531.07,408,532.05,407.15,531Z" transform="translate(-352.82 -433.82)"/><path class="cls-9" d="M383.47,526.73c2.47,1.08,5.28,1.39,7.43,3.23l.07.07c-3.26.62-5.83-1.11-8.51-2.48C382.57,527,383.08,526.94,383.47,526.73Z" transform="translate(-352.82 -433.82)"/><path class="cls-10" d="M439.72,517.7a9.94,9.94,0,0,0-3.19,2.93l-.34,0-.34,0a1.12,1.12,0,0,1-1-1.08c2.2-2.36,3.94-5.19,6.92-6.74a1.31,1.31,0,0,1,1.13,1c.14,1.41-1,1.76-1.89,2.37C440.3,516.4,440,517.07,439.72,517.7Z" transform="translate(-352.82 -433.82)"/><path class="cls-11" d="M391,530l-.07-.08c3.43-.46,6.7.62,10,1.06-1.14,1.11-2.74,0-3.95.79C394.9,531.47,392.61,531.86,391,530Z" transform="translate(-352.82 -433.82)"/><path class="cls-12" d="M417.88,530.3a2.19,2.19,0,0,0-1.78-.75l7.81-2.83c.38.22.89.29,1,.84A21.31,21.31,0,0,1,417.88,530.3Z" transform="translate(-352.82 -433.82)"/><path class="cls-13" d="M397,531.8c1.14-1.18,2.67-.36,3.95-.79l6.22,0c1.06.33,2.34-.22,3.24.8A64.63,64.63,0,0,1,397,531.8Z" transform="translate(-352.82 -433.82)"/><path class="cls-14" d="M363.35,452.7l-.91-.92c1.49-1.49,2.06-3.92,4.52-4.41C366.69,449.77,364.59,451,363.35,452.7Z" transform="translate(-352.82 -433.82)"/><path class="cls-15" d="M357.91,459.77l.81,1c-.67,1.6-1.35,3.21-2,4.82l-.85-1.05A11,11,0,0,1,357.91,459.77Z" transform="translate(-352.82 -433.82)"/><path class="cls-16" d="M435.41,519.94l.44.69a10.07,10.07,0,0,1-3.75,3c-.34-.22-.81-.29-.91-.79l2.43-2.14C434,520,434.41,519.19,435.41,519.94Z" transform="translate(-352.82 -433.82)"/><path class="cls-17" d="M371.52,520.64l.59-.67a11.79,11.79,0,0,1,4.07,2.84c-.09.5-.57.57-.91.79A10.31,10.31,0,0,1,371.52,520.64Z" transform="translate(-352.82 -433.82)"/><path class="cls-5" d="M531.48,519.11c2.69-1.2,5.61,0,8.35-.81C537.19,520.09,534.26,518.82,531.48,519.11Z" transform="translate(-352.82 -433.82)"/><path class="cls-13" d="M375.27,523.6l.91-.79,3.74,2.25a1,1,0,0,1-.92.82Z" transform="translate(-352.82 -433.82)"/><path class="cls-13" d="M431.19,522.81l.91.79-3.73,2.27c-.33-.24-.8-.32-.91-.81Z" transform="translate(-352.82 -433.82)"/><path class="cls-7" d="M379,525.88l.92-.82,3.55,1.67-1,.82A7.18,7.18,0,0,1,379,525.88Z" transform="translate(-352.82 -433.82)"/><path class="cls-18" d="M427.46,525.06l.91.81a8.09,8.09,0,0,1-3.48,1.69l-1-.84Z" transform="translate(-352.82 -433.82)"/><path class="cls-12" d="M363.15,510.22l-.7.89a6.45,6.45,0,0,1-2.13-3.17l.81-.92Z" transform="translate(-352.82 -433.82)"/><path class="cls-7" d="M353.48,474.81c-.11,1.82.66,3.72-.55,5.42C352.85,478.4,352.55,476.54,353.48,474.81Z" transform="translate(-352.82 -433.82)"/><path class="cls-14" d="M352.94,483.27c1.12,1.47.49,3.13.52,4.72C352.59,486.5,352.84,484.88,352.94,483.27Z" transform="translate(-352.82 -433.82)"/><path class="cls-19" d="M431.35,516.84c-18,16-50.65,13.21-65.82-11-9.2-14.71-9.83-30.26-1.73-45.51s21.46-23.23,38.74-24a42.73,42.73,0,0,1,26.74,7.93,74.94,74.94,0,0,1,6.07,5.24c-.26,1-.62,2.07-1.87,1.85-4.87-.87-9.54.79-14.32,1-3.71-.43-7.07-2.2-10.79-2.72-11-1.55-20.34,1.8-28,9.77-8.79,9.19-10.59,20.1-7.5,32.11.4,1.57,1,3.08,1.26,4.67-.51,3.16.54,5.92,2.2,8.52.47,1.19,1.29,2.25,1.33,3.6a1.69,1.69,0,0,1-1.94.9c-5.11-3.3-7.42-8.64-9.36-13.93-7.33-19.92,1.77-42,22.77-50.84,3.75-1.09,7.38-2.76,10.07-2.44-3.06-.15-7.1,1.33-11.13,2.9-13.19,6.15-21.59,16.25-23.79,30.67-2.44,16,4.61,32.29,19.6,40.07,12.65,7.32,25.44,7.32,38.35.72,1.72-.77,3.26-2,5.23-2.11.83-.07,1,1.55,2.49.52C431,514.08,431.61,515.61,431.35,516.84Z" transform="translate(-352.82 -433.82)"/><path class="cls-20" d="M419.35,452a3.52,3.52,0,0,1,4.59-1.25c1.93.84,3.82.17,5.4-.57s2.67-2.19,4,.39c.43.82,1.14-1,2-1.09,1.54.53,1.32,2.55,2.72,3.2-1.81,3.61-5.32,2.49-8.26,3-1.23,0-2-1-3.23-1.59,1.38,1.13,2.77,2,3,3.76a2,2,0,0,1-1.15,1.69A27.1,27.1,0,0,1,419.35,452Z" transform="translate(-352.82 -433.82)"/><path class="cls-21" d="M429.17,454.81c3.12-.07,6.21-.27,8.9-2.13,1.9.92,2.38,3.09,3.88,4.37a.87.87,0,0,1-.18,1c-3.12-.95-5.72,1.92-8.82,1.22C431,458.38,429.08,457.44,429.17,454.81Z" transform="translate(-352.82 -433.82)"/><path class="cls-22" d="M435.41,519.94l-1.79.73-1-.9,4.69-4.53c.61-1.9,1.51-3.53,3.7-3.94a1.33,1.33,0,0,1,1.18.93,1.15,1.15,0,0,1-.33,1Z" transform="translate(-352.82 -433.82)"/><path class="cls-23" d="M431.35,516.84c-.2-2.59-3.11-.47-3.81-2.19,0-2.21,1.78-2.49,3.33-3,1.68-.12,3.42-.37,4.34,1.59C434,514.48,433.2,516.24,431.35,516.84Z" transform="translate(-352.82 -433.82)"/><path class="cls-24" d="M442,457.79a3.66,3.66,0,0,1,0-.74c1.08-.06,1.4-.78,1.48-1.71l.66.23a6,6,0,0,1,2,2.09,7.84,7.84,0,0,1,.75,1.82,2.18,2.18,0,0,1-.22,1.46,3.92,3.92,0,0,1-2,1.57A5.49,5.49,0,0,1,442,457.79Z" transform="translate(-352.82 -433.82)"/><path class="cls-25" d="M441,511.61l-3.64,3.63-1.47-2.11c-.24-.53.05-.9.37-1.26.73-.63,1.22-1.51,2-2.08a3.58,3.58,0,0,1,1-.29c1,0,1.82.17,2.19,1.22A.89.89,0,0,1,441,511.61Z" transform="translate(-352.82 -433.82)"/><path class="cls-26" d="M436.55,512.23l-.71.9c-.21,0-.42.08-.63.1-1.47-1-3.16-.76-4.79-.88,0-1.2.74-1.74,1.76-2.06C434,510.22,435.74,510.11,436.55,512.23Z" transform="translate(-352.82 -433.82)"/><path class="cls-27" d="M441.86,513.19a3.56,3.56,0,0,1,.05-.65,5.58,5.58,0,0,1,1.93-3.26,1.69,1.69,0,0,1,1-.11,1.9,1.9,0,0,1,1,1,2.61,2.61,0,0,1-.54,1.83,4.26,4.26,0,0,1-2.06,1.87l-.62.09Z" transform="translate(-352.82 -433.82)"/><path class="cls-28" d="M419.35,452a61.43,61.43,0,0,1,9,7.29,2.56,2.56,0,0,1,1.84,1.54,2.11,2.11,0,0,1,0,1,1.39,1.39,0,0,1-1.18.87,3.13,3.13,0,0,1-1.89-.83c-1.69-1.53-3.18-3.26-5-4.67-10.88-7.43-22.33-8.55-33.77-1.91-14.15,8.21-18.93,24.62-12.2,39.62.66,1.47,1.62,2.82,1.73,4.5a1.49,1.49,0,0,1-.93,1.36c-2.53-.22-3-2-3.17-4.08-5.62-12.12-4.39-27.28,5.75-38a33.46,33.46,0,0,1,37-7.7C417.49,451.33,418.43,451.65,419.35,452Z" transform="translate(-352.82 -433.82)"/><path class="cls-29" d="M389.44,445c-13.29,6.18-22.11,16.11-24.26,30.82-1.83,12.52,1.37,23.83,10.78,32.88,3.26,1.81,6.52,3.62,8.49,7-.21.59-.55.92-1.21.59-11.12-6.1-17.26-15.75-19.58-27.95-3.49-18.32,7.13-37.43,24.27-44C388.71,443.94,389.45,443.64,389.44,445Z" transform="translate(-352.82 -433.82)"/><path class="cls-20" d="M384.2,515.56c-2.86-2.14-5.84-4.15-8.24-6.85l1.54-.65c2.94-.16,4.25,2.52,6.43,3.68,2.7,1.41,5.69,2.14,8.39,3.56,3.25,2.28,6.91,2.27,10.64,1.9,2.74.56,5.34-.13,7.93-.88,2.87.28,5.29-1.84,8.17-1.55,1.15.34,1.71,1,1.3,2.25-3.82,2.67-8.26,3.3-12.72,3.91a13.68,13.68,0,0,0-4.13.39C396.67,520.78,389.84,520.17,384.2,515.56Z" transform="translate(-352.82 -433.82)"/><path class="cls-30" d="M407.62,520c4.49.12,8.49-1.63,12.52-3.29a2.21,2.21,0,0,1,2.21-1c.52.19.9.48.76,1.12-10.64,7.35-28.35,7.12-39.87-.52l1-.73c6.19,2.93,12.54,5.21,19.55,4.87C405,520.07,406.39,520.63,407.62,520Z" transform="translate(-352.82 -433.82)"/><path class="cls-31" d="M389.44,445l-1.51-.69a30.77,30.77,0,0,1,13.58-3.24c.75,0,2-.67,2,.75,0,1-1,.89-1.72.88C397.51,442.61,393.5,443.92,389.44,445Z" transform="translate(-352.82 -433.82)"/><path class="cls-6" d="M406.94,445.74c3.92-1.23,7.23.47,10.59,2.05C413.75,448.44,410.38,446.92,406.94,445.74Z" transform="translate(-352.82 -433.82)"/><path class="cls-32" d="M423.11,516.81l-1-.77c0-1.41,1-2.06,2.05-2.69s2.05-1.43,3.14-2.07c.81-.47,1.47-1.17,2.23-1.71a3.82,3.82,0,0,1,1.39-.6,1.61,1.61,0,0,1,1.42.54,1,1,0,0,1-.37,1.38l-1.57,1.46a6.14,6.14,0,0,0-2.88,2.3Z" transform="translate(-352.82 -433.82)"/><path class="cls-33" d="M383.52,512.56l-6-4.5A2.83,2.83,0,0,1,376,505l.46-.33c3.59.82,5.76,3.69,8.28,6C386,511.7,385.5,512.88,383.52,512.56Z" transform="translate(-352.82 -433.82)"/><path class="cls-20" d="M373.84,496.69c.94,1.27,1.87,2.55,2.8,3.82a2.21,2.21,0,0,1,1.18,2.12c-.13,1.15-1,1.72-1.8,2.37v0C373.71,502.64,372.12,500.1,373.84,496.69Z" transform="translate(-352.82 -433.82)"/><path class="cls-34" d="M429.17,454.81l3.68,3.76c.67,2.58-.87,2-2.32,1.64a4.16,4.16,0,0,1-1.29-2.6,8.4,8.4,0,0,0-3.6-3.09,1.4,1.4,0,0,1-.79-2.14c.87-1.13,1.44.11,2,.57C427.68,453.54,428.41,454.19,429.17,454.81Z" transform="translate(-352.82 -433.82)"/><path class="cls-35" d="M429.24,457.61c.7.37,1.3.82,1.3,1.72-.34.42-.08,1.11-.65,1.42l-1.51-1.46Z" transform="translate(-352.82 -433.82)"/><path class="cls-36" d="M429.89,460.75c.22-.47.43-.95.65-1.42,1.16.93,2.23,1.58,2.31-.76a8,8,0,0,0,2.83-.37,7.73,7.73,0,0,1,6.27-.41l2.84,4.54a2.68,2.68,0,0,1,1.38,2,2.12,2.12,0,0,1-.88,2.23c-3.36,1.07-6.78.56-10.19.43-2.92-.72-4.49-2.72-5.16-5.54C429.92,461.19,429.9,461,429.89,460.75Z" transform="translate(-352.82 -433.82)"/><path class="cls-37" d="M444.13,509.52l-2.22,3-1-.93a2.29,2.29,0,0,0,.14-.69c.4-1.2.59-2.6,2.34-2.58C444,508.53,444.41,508.82,444.13,509.52Z" transform="translate(-352.82 -433.82)"/><path class="cls-38" d="M446.48,460.75l.51.1a2.88,2.88,0,0,1,1.3,1.79,1.57,1.57,0,0,1-.65,1.51,1.92,1.92,0,0,1-2.18-.34c-.22-.49-.44-1-.67-1.48A1.58,1.58,0,0,1,446.48,460.75Z" transform="translate(-352.82 -433.82)"/><path class="cls-39" d="M432.07,509.53l-1.46-.12a2.16,2.16,0,0,1-1-1.79,4,4,0,0,1,2.55-3.21c3.19-.11,6.14,1.27,9.27,1.57a2.43,2.43,0,0,1,.14,1c-.24,1.57-1.42,2.38-2.58,3.21a2.74,2.74,0,0,1-.5.07C436.07,512.17,434.17,510,432.07,509.53Z" transform="translate(-352.82 -433.82)"/><path class="cls-40" d="M432.07,509.53c2.31-1.31,4.08,2,6.38.76a3.25,3.25,0,0,1-1.9,1.94,9.7,9.7,0,0,0-4.56-1.34C432,510.44,432,510,432.07,509.53Z" transform="translate(-352.82 -433.82)"/><path class="cls-41" d="M439,510.22l2.08-3.11a3.09,3.09,0,0,1,2.39.68.6.6,0,0,1-.21.84l-2.12,2.29C440.58,510.07,439.75,510.21,439,510.22Z" transform="translate(-352.82 -433.82)"/><path class="cls-42" d="M466.54,508c-7.36.6-14.47,2.66-21.75,3.72l.68-1.52c0-.8.51-1,1.15-1.09,3.55.23,6.66-1.52,10-2.19s6.71-1.64,9.92.46C466.55,507.54,466.55,507.74,466.54,508Z" transform="translate(-352.82 -433.82)"/><path class="cls-43" d="M446.33,509.43l-.86.72-.7-.87c-.91-1.74.52-3,.86-4.52a3.65,3.65,0,0,1,.62-.89,2.89,2.89,0,0,1,3-.67c.76.76.51,1.56.09,2.36-.32.54-.67,1.07-1,1.62s-.57,1.06-.91,1.57A1.61,1.61,0,0,1,446.33,509.43Z" transform="translate(-352.82 -433.82)"/><path class="cls-44" d="M446.28,504.92c.17,1.69-1.45,2.75-1.51,4.36-.21.08-.42.17-.64.24l-.92-.89a2,2,0,0,0,.12-.69C443.54,506.19,444.19,504.85,446.28,504.92Z" transform="translate(-352.82 -433.82)"/><path class="cls-45" d="M543.6,508l.75-1.49c1.3-1,2.73-.07,4.09-.27,1.66.07,2.83-1.07,4.19-1.74a5.42,5.42,0,0,1,1.59-.37,10,10,0,0,1,2.79.16,7.68,7.68,0,0,1,2,.88c4.48,2,8.64,1.61,12.45-1.59a4.11,4.11,0,0,1,1.52-.83c3.69-.62,7.38-1.73,11.1-.11A30.93,30.93,0,0,1,587,504c.74.39,1.49.76,2.2,1.2a2.8,2.8,0,0,1,1,1.08,1.06,1.06,0,0,1-.18.91c-2.73.5-4.84-1.64-7.58-1.59-4.87.1-9.64.24-14.3,2-3.58,1.33-7.32.55-11,0-1.58-.24-3.14-.92-4.57.38h-.74a20.07,20.07,0,0,1-8.24,0Z" transform="translate(-352.82 -433.82)"/><path class="cls-42" d="M543.6,508h8.24A9.81,9.81,0,0,1,543.6,508Z" transform="translate(-352.82 -433.82)"/><path class="cls-45" d="M590.74,470.53c3.15,2.74,3.88,6.75,5.35,10.34,2.61,6.38,5,12.85,4.39,20-.26,2.9-.82,5.48-4.5,5.6a.84.84,0,0,1-.25-.87,10.19,10.19,0,0,1,1.5-2c.32-.41.63-.82.93-1.24,1.41-3.67,0-7.11-1-10.5-2-6.52-4.55-12.83-7.09-19.15A2.49,2.49,0,0,1,590.74,470.53Z" transform="translate(-352.82 -433.82)"/><path class="cls-46" d="M590.74,470.53v2.25c-1.58.31-1.86-1.25-2.79-1.9a7.9,7.9,0,0,1-2.29-4.13,1.81,1.81,0,0,1,.59-1.45C588.6,466.32,589.17,468.86,590.74,470.53Z" transform="translate(-352.82 -433.82)"/><path class="cls-47" d="M586.25,465.3v1.49c-2.38-.1-3.87-1.68-5.37-3.26L581,463C583.18,462.83,584.62,464.29,586.25,465.3Z" transform="translate(-352.82 -433.82)"/><path class="cls-48" d="M596,505.71c0,.24,0,.49,0,.74h-.74c-1.75.87-3.5,1.15-5.25,0l-.75-.74A5.62,5.62,0,0,1,596,505.71Z" transform="translate(-352.82 -433.82)"/><path class="cls-49" d="M590,506.45h5.25l-.76.75a6.08,6.08,0,0,1-4.48,0h0C590,507,590,506.7,590,506.45Z" transform="translate(-352.82 -433.82)"/><path class="cls-46" d="M577.27,462.3c.79-1.09,2-.64,3-.74A1.55,1.55,0,0,1,581,463l0,0a1.19,1.19,0,0,1-.93.34C579.07,463.22,578,463.18,577.27,462.3Z" transform="translate(-352.82 -433.82)"/><path class="cls-45" d="M590,507.2h4.48A3.38,3.38,0,0,1,590,507.2Z" transform="translate(-352.82 -433.82)"/><path class="cls-50" d="M423.16,457c1.91,1.08,3.14,2.85,4.5,4.47.35.88-.12,1.39-.82,1.79-1.39.12-2.42-.93-3.71-1.14-5.82-.34-11.36-2.25-17.1-3a28.34,28.34,0,0,0-18.77,4.06c-1.88,1.13-3,2.53-2.85,4.76-.13,9.81-3.66,19.48-1.19,29.38,1.38,5.13,3.8,9.31,9.55,10.44a6,6,0,0,1,2.71,1,16.57,16.57,0,0,0,9,2c1.47-.06,3-.21,4.36.65a1.53,1.53,0,0,1,.37,1.68,2,2,0,0,1-1.58.78,30.66,30.66,0,0,0-4.06-.39H400.1c-8.38-.73-15.4-4.06-20.64-10.8.45-2.18-1.61-3.73-1.5-5.83,1-2.29-1.54-4.05-1-6.27,1-6.8,1.6-13.64,3.43-20.29a11.27,11.27,0,0,0,.38-4.77,5.07,5.07,0,0,1,.83-3c1.95-.5,2.79-2.27,4.05-3.56a8.85,8.85,0,0,1,4-1.68c9.21-3.63,18.42-2.41,27.63,0l2.52-.48C421,456.53,422.05,457,423.16,457Z" transform="translate(-352.82 -433.82)"/><path class="cls-51" d="M378.23,497c.26,1.73,3.35,2.58,1.55,5-1.86.3-1.71-1.34-2.24-2.31-6.35-10.85-7.54-22-1.44-33.3,9.16-17.06,32.61-21.67,47.06-9.32-1,1.4-2,.49-2.94,0-1.78.05-3.17-1-4.65-1.73-1.33-.66-2.48-.75-3.55.39-2.13,0-4.29.28-6.19-1a1.81,1.81,0,0,0-2.37-2c-1.52.24-3.68-.88-4.1,1.84-1.77,1.58-3.95.9-6,1.08-3.33-.44-5.34,1.91-7.65,3.62-.53,2-1.37,3.66-3.93,3.11-.83,2.55-3.85,4-3.41,7.19,2.26,1.84,1,4.15.62,6.16-.88,4.5-.54,9.22-2.41,13.53C376,492.11,378.8,494.19,378.23,497Z" transform="translate(-352.82 -433.82)"/><path class="cls-52" d="M377.54,499.64l2.24,2.31c5.32,6,11.7,10,19.91,10.57,1.3.64,2.78,0,4.09.55a1.61,1.61,0,0,1,.21,1.17c-1,1.78-2.81,1.29-4.37,1.43-8.52-.55-15-5-20.84-10.79a2.88,2.88,0,0,1-1.06-2.27c-.46-.64-1.18-1.16-1.08-2.1Z" transform="translate(-352.82 -433.82)"/><path class="cls-53" d="M429.94,461.42q2,2.34,4,4.7c.18.15.83-.07.46.51-.59.94-1.52.89-2.46.79a5.65,5.65,0,0,1-3.17-2.75,2.29,2.29,0,0,1,.17-2.29Z" transform="translate(-352.82 -433.82)"/><path class="cls-54" d="M428.91,462.38l.47,2a.85.85,0,0,1-.22,1c-1.6,0-2.54-.63-2.27-2.41.26-.51.52-1,.77-1.53Z" transform="translate(-352.82 -433.82)"/><path class="cls-55" d="M377.72,502.61c5.17,5.32,10.84,9.83,18.29,11.53,1.05.24,2.12.38,3.19.57a1.23,1.23,0,0,1,0,1.71c-2.57,1.14-4.89.26-7.19-.87-3.11-.17-5.67-1.93-8.47-3,.71-.18,1.87-.64.92-1.29-2.88-2-4.85-5.22-8.42-6.26C376.45,504.11,376.71,503.09,377.72,502.61Z" transform="translate(-352.82 -433.82)"/><path class="cls-55" d="M411.1,516.93c-2.59,1.16-5.17,2.47-8,.74-1.27-.22-2.71-.27-2.36-2.22,3.57-.42,7.17-2.5,10.66.24A1.31,1.31,0,0,1,411.1,516.93Z" transform="translate(-352.82 -433.82)"/><path class="cls-56" d="M400.67,516.24c.66.71,2,.31,2.39,1.43-4.14,1.36-9.33.36-11.07-2.12,2.47-.66,4.74,1.15,7.21.59A1,1,0,0,1,400.67,516.24Z" transform="translate(-352.82 -433.82)"/><path class="cls-57" d="M411.1,516.93l.06-.77c2.26-2.7,5.81-2.81,8.68-4.3a3,3,0,0,1,1.11.07,1.5,1.5,0,0,1,1,1.2c-.22,2.07-2.2,1.57-3.35,2.29C416,515.5,413.9,517.85,411.1,516.93Z" transform="translate(-352.82 -433.82)"/><path class="cls-55" d="M418.63,515.42l3.13-2.23c1.17-.76,2.26-1.15,2.85.65l-2.48,2.2-2,.65C420.05,515.78,419.47,515.45,418.63,515.42Z" transform="translate(-352.82 -433.82)"/><path class="cls-55" d="M407.62,520a7.52,7.52,0,0,1-3.87.45C405,519.52,406.32,520,407.62,520Z" transform="translate(-352.82 -433.82)"/><path class="cls-58" d="M408.92,511.69c-4.83-.11-9.83.75-14.21-2.25a3.77,3.77,0,0,1,3.53-.74c3.47.86,7,.48,10.47.34a6,6,0,0,1,1.08-.29,17.91,17.91,0,0,0,3.75-.74c4.5-1.37,8.91-3.65,13.81-1.56a5.75,5.75,0,0,1,2.29,1.36,1.64,1.64,0,0,1,1,1.6l-.8.58C422.7,508.73,415.88,511,408.92,511.69Z" transform="translate(-352.82 -433.82)"/><path class="cls-50" d="M408.92,511.69c6.82-2.34,13.64-4.74,20.89-1.7-.86.46-.93,1.77-2.05,2-2.28.32-4.6-.25-6.86.34l-.77.08c-2.59-.42-4.75,1.23-7.2,1.47-1.39.14-2.94,1.17-4-.66Z" transform="translate(-352.82 -433.82)"/><path class="cls-59" d="M420.9,512.29c2.15-2.79,4.55-.7,6.86-.34-1.3.21-1.57,2.14-3.15,1.89-.78-1-1.87-.56-2.85-.65Z" transform="translate(-352.82 -433.82)"/><path class="cls-60" d="M431.45,466.75c.82-.22,1.81.21,2.47-.63l11.85-.19a4.48,4.48,0,0,1,3.14-.91c2.47,0,5-.47,7.36.69,2.09,2,2,4.56.92,6.87s-3.72,2-5.94,2c-.88,0-1.76.07-2.64,0-2.65-.05-5.31,0-8,0a24.07,24.07,0,0,0-2.68.26,4.49,4.49,0,0,1-1,0,2.61,2.61,0,0,0-2.5.61c-1.15,1.59-.51,3.55-1.09,5.26,0,4.59-1.54,9.31,1.25,13.63a7.87,7.87,0,0,0,1.32,1,28.66,28.66,0,0,0,12.16-.27c1.71-.25,1.78-1.5,1.72-2.83-.18-1.82-.37-3.62-2.91-3.43-2.4-.09-4.81.2-7.19-.23a3.61,3.61,0,0,1-2.08-1.51,6.82,6.82,0,0,1-.24-4.65,3.48,3.48,0,0,1,2.53-2.2,92.09,92.09,0,0,1,15.31.09c2.1.77,2.54,2.55,2.59,4.49.12,4.08.1,8.17,0,12.26a8,8,0,0,1-3.76,6.87,4.9,4.9,0,0,1-4.75-.13l-3,.54a26.4,26.4,0,0,1-3.55.19c-3.05,0-6.11.28-9.15-.2a7.68,7.68,0,0,1-2.31-.62,21,21,0,0,1-2.1-1.1,7,7,0,0,1-1.86-1.57,16.45,16.45,0,0,1-3-9.1c-.19-4.74-.23-9.48,0-14.21.17-3.4,1-6.65,3.6-9.18a9.64,9.64,0,0,1,1.9-1.26A3.53,3.53,0,0,1,431.45,466.75Z" transform="translate(-352.82 -433.82)"/><path class="cls-61" d="M448.75,465.92a5,5,0,0,1-3,0c-.1-.7-.2-1.41-.31-2.12l2.38,0a.73.73,0,0,1,1,0A1.71,1.71,0,0,1,448.75,465.92Z" transform="translate(-352.82 -433.82)"/><path class="cls-62" d="M596,505.71h-6.75L587,505a11.24,11.24,0,0,0-16.38-.19c-3.71,2-7.45,3.28-11.43.69a7.5,7.5,0,0,1-2.89-4.3c-.47-4.94,1-9.42,3.23-13.74a33.49,33.49,0,0,0,1.83-4,5.52,5.52,0,0,1,.43-1c.8-1.22,1.76-2.38,1.86-3.94a9.18,9.18,0,0,1,.39-1.93,14,14,0,0,1,1.42-2.57,14.58,14.58,0,0,0,1.5-3,6,6,0,0,1,2.06-2.72l.75-.75a1.31,1.31,0,0,1,1.58-.16,2.2,2.2,0,0,1,.55,1.59,5.24,5.24,0,0,1-1.06,2.59c-3.23,3.72-4.17,8.61-6.5,12.79-2.3,5.51-5.9,10.67-4.56,17.14.2.27.38.55.58.82s.41.52.61.79c1.67,1.5,3.41,1.13,5.17.2a5.84,5.84,0,0,1,.94-.46,13.78,13.78,0,0,1,1.54-.49c3.48-3.47,8.19-3.68,12.58-4.74a4.4,4.4,0,0,1,4.39,1.34c1.47,1.62,2.38,3.79,4.62,4.63a5.9,5.9,0,0,0,4.37.11c.3-.15.61-.27.92-.39l.49-.13a1.67,1.67,0,0,1,1.33.6l.18.47Z" transform="translate(-352.82 -433.82)"/><path class="cls-63" d="M580.27,463.06H581l5.24,3.73,2.25,3.74c5.16,8.59,8,18.07,10.63,27.64a5.6,5.6,0,0,1-.9,5.29l-.72.77-.06-.06a91.45,91.45,0,0,0-4.55-16.41c-2.21-5.42-4.13-10.95-6.82-16.17-3.07-5.94-4.13-6.53-10.93-5.77a2.43,2.43,0,0,1-1.7-.37,1.27,1.27,0,0,1,.09-1.63l2.23-.77A6.13,6.13,0,0,1,580.27,463.06Z" transform="translate(-352.82 -433.82)"/><path class="cls-64" d="M541.36,465.29l.74-.75a1.18,1.18,0,0,1,1.48-.17,1.34,1.34,0,0,1,.2,1,2.2,2.2,0,0,1-.3.68c-1.49,1.79-1.94,4.67-4.38,5.37-3,.87-3.48-2.63-5.32-3.89a17.4,17.4,0,0,0-3.19-1.89c-7.25-2.63-14.74-1.43-22.15-1.38-1,0-2,.32-2.89-.23a1.22,1.22,0,0,1-.1-1.76h0a65.81,65.81,0,0,1,20.2-.74c.78,1.08,2,.64,3,.74a14.84,14.84,0,0,1,5.66,2.43C536.59,466.57,538.87,466.86,541.36,465.29Z" transform="translate(-352.82 -433.82)"/><path class="cls-47" d="M505.45,462.3v1.47a1.67,1.67,0,0,1-.81,1.18,4.88,4.88,0,0,1-.92.36,4.82,4.82,0,0,0-2.51,1.34c-1.38,1.34-2.76,1.41-4.17,0a6.09,6.09,0,0,0-2.52-1.46,42.68,42.68,0,0,1-4.06-1.59c-2.31-.63-4.67-.21-7-.3-2.13,0-4.24,0-6.36,0-2.61-.22-5.29.44-7.84-.58l-.47-.47a43.51,43.51,0,0,1,27.91,1.25c2.24.82,3.19,1.48,4.87-.34C502.5,462.19,504.05,462.21,505.45,462.3Z" transform="translate(-352.82 -433.82)"/><path class="cls-47" d="M447.73,462.35l-.74-1.5c4.84,0,9.49.76,13.51,3.64a1.38,1.38,0,0,0,2.17-.21,7.13,7.13,0,0,1,6.11-2h0c.08.17.16.34.25.51a1.84,1.84,0,0,1-.65.92c-4.14,2.79-8,6-12.95.76C453.78,462.73,450.15,463.78,447.73,462.35Z" transform="translate(-352.82 -433.82)"/><path class="cls-64" d="M555.58,470.53v2.25a.75.75,0,0,1-.9.14c-1.21-1-1.15-2.64-1.92-3.85a22.19,22.19,0,0,0-1.37-1.82,5.37,5.37,0,0,0-1.09-.8,17.82,17.82,0,0,0-4.27-.94,3.45,3.45,0,0,1-2.42-.95h0c-.22-2,1.81-.53,2.25-1.5C551.86,463.07,553.56,464.37,555.58,470.53Z" transform="translate(-352.82 -433.82)"/><path class="cls-47" d="M541.36,465.29c-1.88,2.64-3.76,3-6.38.66-1.79-1.58-4.2-2.46-6.34-3.65a5.85,5.85,0,0,1,4.26,1C535.44,465.33,538.34,465.5,541.36,465.29Z" transform="translate(-352.82 -433.82)"/><path class="cls-65" d="M573.54,463.82v1.5c.17,1.67-.56,2.42-2.24,2.23l-1.52,0A4.33,4.33,0,0,1,573.54,463.82Z" transform="translate(-352.82 -433.82)"/><path class="cls-47" d="M545.85,463.05l-2.25,1.5h-1.5C542.86,462.81,544.4,463.06,545.85,463.05Z" transform="translate(-352.82 -433.82)"/><path class="cls-66" d="M580.27,463.06h-4.5a1.58,1.58,0,0,1,1.5-.75C578.3,462.42,579.48,462,580.27,463.06Z" transform="translate(-352.82 -433.82)"/><path class="cls-65" d="M447.73,462.35c4.49-.05,8.88.18,12.06,4,1.24,1.51,2.33.93,3.31-.28a8.62,8.62,0,0,1,5.68-3.05,1.45,1.45,0,0,1,.43.86,1.9,1.9,0,0,1-.27.93c-.89,1.18-2.57,1.25-3.42,2.48a8.42,8.42,0,0,0-1.44,3.09c-.49,1.81.74,3,1.52,4.36a4.88,4.88,0,0,1-2.32,7.07,2.17,2.17,0,0,1-2.72-.33c-1.37-1.53-3.09-2.94-2.64-5.38.26-1.45.95-2.81.9-4.32a7.86,7.86,0,0,0-1.54-5.21l-.68-.79c-2.5-1.81-5.76-.25-8.29-1.9a1.57,1.57,0,0,1-.47-.13Z" transform="translate(-352.82 -433.82)"/><path class="cls-67" d="M433,503.5l10.24.25c.26,1.59-.21,2.67-2,2.78a43.23,43.23,0,0,1-9.1-1.56C431.72,504.07,432.35,503.78,433,503.5Z" transform="translate(-352.82 -433.82)"/><path class="cls-68" d="M441.22,506.53c1.12-.61,1.28-1.91,2-2.79,1.07,0,2.27-.67,3.13.55,0,.21-.05.42-.08.63l-2.95,3c-.87,0-1.77.09-2.3-.83A5.62,5.62,0,0,1,441.22,506.53Z" transform="translate(-352.82 -433.82)"/><path class="cls-69" d="M433,503.5l-.87,1.47c-.83.95-1.65,1.9-2.48,2.84-.7.07-1.44.26-1.86-.58.05-1.2,1.05-1.8,1.65-2.66.55-.71,1-1.53,2-1.73Z" transform="translate(-352.82 -433.82)"/><path class="cls-70" d="M455.3,504.19a12.31,12.31,0,0,1-6.75,1.51c.27-.65.54-1.3.8-1.95l4.32-.35a1.56,1.56,0,0,1,1.57-.16.65.65,0,0,1,.23.62C455.42,504.08,455.37,504.19,455.3,504.19Z" transform="translate(-352.82 -433.82)"/><path class="cls-49" d="M536.12,506.45c-2.49.15-5,2.95-7.49,0,1.24-1.44,3.2-.59,4.61-1.46a12.65,12.65,0,0,0,3.74-3.55c1.84-2.83,2.47-2.8,4.42,0a15.19,15.19,0,0,1,1.65,2.47,1.69,1.69,0,0,1,0,1c-.27.27-.72.58-.95.41C539.67,503.46,537.87,504.76,536.12,506.45Z" transform="translate(-352.82 -433.82)"/><path class="cls-71" d="M533.88,505.7c-1.58,1.43-3.5.45-5.25.76l-3-.77c-.76-1.43-2.63-2-3-3.73a1.15,1.15,0,0,1-.25-1.38,1,1,0,0,1,.9-.32c2.31,1,3.66,3.41,6.13,4.2C530.87,505,532.67,504.36,533.88,505.7Z" transform="translate(-352.82 -433.82)"/><path class="cls-62" d="M542.85,505v-.74a1.67,1.67,0,0,1,1-.49c2.56.49,5.14,0,7.7.13a1.07,1.07,0,0,1,.58.84c-.58,1.51-2.42,1.37-3.29,2.5-1.58.28-3-.53-4.48-.73l-.74,0C543.2,506,542.38,505.82,542.85,505Z" transform="translate(-352.82 -433.82)"/><path class="cls-47" d="M542.85,505l.76,1.49c-2.49-.48-5-2.21-7.49,0C537.72,503,540.12,503.27,542.85,505Z" transform="translate(-352.82 -433.82)"/><path class="cls-48" d="M570.54,504.2C575,498.62,584.33,499,587,505l-2.25-1.49c-4-2.45-8-1.11-12,0l-.75.74A1,1,0,0,1,570.54,504.2Z" transform="translate(-352.82 -433.82)"/><path class="cls-49" d="M570.54,504.2H572a11.15,11.15,0,0,1-13.47,1.51c-.22-.71,0-.95.75-.75C563.26,507.68,566.91,506.11,570.54,504.2Z" transform="translate(-352.82 -433.82)"/><path class="cls-72" d="M559.32,505l-.75.75-1.49-.76c-1-1.3-2-1.16-3,0h-1.49c-.26.31-.51.31-.76,0v-.76c-.46-1,.37-1.51.9-2.12.75-.65,1.27-1.59,2.25-2s1.6.37,2.1,1.12Z" transform="translate(-352.82 -433.82)"/><path class="cls-49" d="M572.79,503.46c2.77-2.32,10-2.32,12,0C580.77,502,576.78,503.16,572.79,503.46Z" transform="translate(-352.82 -433.82)"/><path class="cls-49" d="M554.08,505c.12-1.23.59-2.25,2-2.08,1.19.15.9,1.26,1,2.08Z" transform="translate(-352.82 -433.82)"/><path class="cls-49" d="M551.83,505h.76a4.62,4.62,0,0,1-3.76,2.23C549,505.28,550.89,505.78,551.83,505Z" transform="translate(-352.82 -433.82)"/><path class="cls-48" d="M598.23,503.46c1.31-3,.32-5.8-.55-8.64-2.52-8.3-5.86-16.29-9.18-24.29l2.24,2.25c4,8.23,7.26,16.71,8.9,25.72C599.94,500.16,600.44,502.31,598.23,503.46Z" transform="translate(-352.82 -433.82)"/><path class="cls-73" d="M383.49,467.54c-.57-4.37,3.22-5.56,5.82-6.7,7.57-3.32,15.45-4.24,23.54-1.25,2.48.92,5.32.86,8,1.21,1.07.14,2.28-.29,3.08.83a3.18,3.18,0,0,1,1.26,2.71c-1.45,2.76-3.73,2.2-5.66,1a23.88,23.88,0,0,0-13.81-3.52c-3.72.11-7.47-.31-11.16.18a13.79,13.79,0,0,0-9.9,5.83A1.26,1.26,0,0,1,383.49,467.54Z" transform="translate(-352.82 -433.82)"/><path class="cls-39" d="M429.81,504.84c-.67.8-1.35,1.59-2,2.39-5-2.05-9.61.62-14.37,1.46-1.12.89-2.62-.17-3.74.75a35.78,35.78,0,0,1-11.22,0h-3.74c-.54-.88-1.42-.72-2.24-.75-.62-.56-1.69-.36-2.1-1.26-.35-.64-.62-1.28-.07-2a2.14,2.14,0,0,1,1.57-.19,28.89,28.89,0,0,0,4.16,1.36c6.5,1.92,12.89.83,19.25-.71a46.86,46.86,0,0,0,3.84-2.88c2.4-1.9,4.72-1.64,7,.23.81.65,1.75.34,2.65.36C429.35,503.82,430.11,503.87,429.81,504.84Z" transform="translate(-352.82 -433.82)"/><path class="cls-74" d="M383.49,467.54h.75c1.25,4.58,2.82,8.92.88,14a20.49,20.49,0,0,0-.8,11.33c.37,1.75.85,3.64.33,5.51-.73,1.07-1.34.68-1.91-.15a22.82,22.82,0,0,1-1-14.13C383.23,478.61,381.89,472.94,383.49,467.54Z" transform="translate(-352.82 -433.82)"/><path class="cls-75" d="M375.29,489.33a14.11,14.11,0,0,0,2-8.43c-.18-2.26.72-4.78,1.38-7.06s-.39-3.12-1.9-4c1.95-1.07,2.12-4,4.62-4.49.86.82.57,1.77.39,2.76q-2.11,11.34-4.17,22.67C376.54,490.73,376,489.88,375.29,489.33Z" transform="translate(-352.82 -433.82)"/><path class="cls-76" d="M393.36,454.82a9.48,9.48,0,0,0,5.83-.6c2.2-1.81,4.46-1.65,6.74-.17a7.48,7.48,0,0,0,6.06.64c2.52,0,4.92.29,5.9,3.18-.69.87-1.47.58-2.34.29-8.3-2.7-16.6-3.74-24.87.12-.51.24-.94-.08-1.23-.54C389.85,455.55,391.85,455.51,393.36,454.82Z" transform="translate(-352.82 -433.82)"/><path class="cls-59" d="M408.93,513.18c2.74.71,5.18-.56,7.66-1.3,1.38-.42,2.51-.82,3.54.49-2.66,2-6,2.37-9,3.79a15.2,15.2,0,0,0-10.49.08l-1.47-.1v-1.43c1.51-.45,3.31.83,4.62-.78,1-1.25,2.46-.26,3.61-.75Z" transform="translate(-352.82 -433.82)"/><path class="cls-58" d="M382.74,498.22l1.49.75.41.32c1.42,3.19,3.87,5.55,6.33,7.91l1.5,1.49C387.58,507.87,383.66,503.64,382.74,498.22Z" transform="translate(-352.82 -433.82)"/><path class="cls-77" d="M381.37,465.3c-2.07,1-1.25,4.88-4.62,4.49,1-3,2.28-5.67,5.06-7.38C382.4,463.49,381.76,464.38,381.37,465.3Z" transform="translate(-352.82 -433.82)"/><path class="cls-78" d="M417.89,457.87c-1.65-1.65-4.05-1.9-5.9-3.18.56-1.62,1.63-1.15,2.7-.66a21.11,21.11,0,0,1,5.53,3C419.82,458.41,418.77,457.9,417.89,457.87Z" transform="translate(-352.82 -433.82)"/><path class="cls-79" d="M393.36,454.82c-.55,2-3,1.43-3.91,2.92-1.27.45-2.15,1.82-3.71,1.56C387.19,456,389.8,454.57,393.36,454.82Z" transform="translate(-352.82 -433.82)"/><path class="cls-80" d="M375.29,489.33c1.36-.5,1.73.61,2.3,1.4.58,1.46,1.11,2.95,1.76,4.38.59,1.27.25,1.84-1.12,1.88A24.53,24.53,0,0,1,375.29,489.33Z" transform="translate(-352.82 -433.82)"/><path class="cls-81" d="M424.67,463.75c-.32-.68-1-1.23-.75-2.12,1.43-.48,1.87,1.15,3,1.39.61.87,1,1.93,2.19,2.27a1.16,1.16,0,0,1,.3,1.44,1.77,1.77,0,0,1-1.36.67,2.83,2.83,0,0,1-1-.21,4.51,4.51,0,0,1-1.27-1.44C425.31,465.13,425.14,464.36,424.67,463.75Z" transform="translate(-352.82 -433.82)"/><path class="cls-50" d="M407.43,513.18c-1,1.24-2.39.58-3.61.75a2.49,2.49,0,0,1-.14-.72c-.26-.18-.34-.35-.25-.52s.18-.25.27-.25A6.06,6.06,0,0,1,407.43,513.18Z" transform="translate(-352.82 -433.82)"/><path class="cls-58" d="M403.7,512.44l0,.77c-1.3-.39-2.78.22-4-.69Z" transform="translate(-352.82 -433.82)"/><path class="cls-82" d="M405.93,454.05a24.55,24.55,0,0,0-6.74.17c-.95-.25-2.38-.78-.76-1.62a10.8,10.8,0,0,1,7.89-.4C407.56,452.54,406.69,453.53,405.93,454.05Z" transform="translate(-352.82 -433.82)"/><path class="cls-83" d="M375,484.53c-1.72-3.42-.67-6-.4-8.46a.76.76,0,0,1,1.06-.69c.27.12.62.58.57.82C375.74,478.67,376.51,481.35,375,484.53Z" transform="translate(-352.82 -433.82)"/><path class="cls-84" d="M429.18,466.77l-.09-1.48c.09-.3.19-.59.29-.89l2.07,2.35-1.1.91A1.21,1.21,0,0,1,429.18,466.77Z" transform="translate(-352.82 -433.82)"/><path class="cls-74" d="M398.45,509.44h11.22A17.66,17.66,0,0,1,398.45,509.44Z" transform="translate(-352.82 -433.82)"/><path class="cls-74" d="M409.67,509.44c1.05-1.24,2.48-.57,3.74-.75C412.37,509.94,410.93,509.26,409.67,509.44Z" transform="translate(-352.82 -433.82)"/><path class="cls-85" d="M438.22,487l1.47,1c2.83.34,5.7.16,8.51.7a4.65,4.65,0,0,1-.55,5.23,18.51,18.51,0,0,1-9.29,1.49,4.32,4.32,0,0,1-3.61-2.26c-.4-2.66.53-5,1.53-7.41C437.89,484.63,437.44,486.73,438.22,487Z" transform="translate(-352.82 -433.82)"/><path class="cls-86" d="M429,468.33a16.3,16.3,0,0,0-3.55,11.06q.13,5.78,0,11.54a18.33,18.33,0,0,0,3,10.18c.12.91-.38,1.1-1.14,1-3.41-1.91-4.42-5.32-4.89-8.75a66.51,66.51,0,0,1,0-16.68c.4-3.41,1.61-6.76,4.59-9C427.91,467.19,428.62,467.32,429,468.33Z" transform="translate(-352.82 -433.82)"/><path class="cls-87" d="M455.31,503.45l-1.64-.05a7.79,7.79,0,0,0,3.34-6.27c.07-4.43,0-8.86.05-13.28,0-1.47-.36-2.7-2-3.06-1.65-.55-4.75.83-4-3a1.45,1.45,0,0,1,.8-.81,7.92,7.92,0,0,1,7.41,5,25.33,25.33,0,0,1,.56,14.95C458.83,499.46,458.36,502.35,455.31,503.45Z" transform="translate(-352.82 -433.82)"/><path class="cls-88" d="M436.63,474.28a1.06,1.06,0,0,1,.72.1c1.35,1.32,2.68.87,4,0,2.49.15,5.05-.66,7.46.6,1.51,4.7.87,5.64-3.74,5.7a24.47,24.47,0,0,0-5.2.17,2.63,2.63,0,0,0-1.77,1.71c-2.61-.64-1.31-3.17-2.24-4.62C435.69,476.6,435.53,475.31,436.63,474.28Z" transform="translate(-352.82 -433.82)"/><path class="cls-89" d="M436.63,474.28c0,1.26.09,2.52.14,3.79,0,2.51,1.05,5,0,7.54L435.17,493a1.68,1.68,0,0,1-1,2.23c-1.76-1.21-2.07-3-2-4.95.18-3.34-.51-6.71.41-10l.51.33c1.59,3.29.31,6.68.2,10a71.62,71.62,0,0,0,.71-12.76c.07-1.16-.56-2.38.33-3.46C435.13,473.9,435.85,473.15,436.63,474.28Z" transform="translate(-352.82 -433.82)"/><path class="cls-90" d="M447.09,493.74a7.58,7.58,0,0,0,.64-5.23c-.21-.19-.26-.33-.15-.43a.44.44,0,0,1,.29-.12c3.49-.16,2.52,2.45,2.72,4.34a9.12,9.12,0,0,1-1.31,3.71c-4.67.65-9.35,1.26-14,.06,1.82-1.62,4-.55,6-.83S445.52,495.69,447.09,493.74Z" transform="translate(-352.82 -433.82)"/><path class="cls-91" d="M439.89,480.81c1.22-.86,2.6-.44,3.9-.46,5.22-.11,5.22-.08,4.61-5.3a1.14,1.14,0,0,1,0-1.37h2.46a3.82,3.82,0,0,1,.62,3.64c-.79,3.15,1.85,2.83,3.52,3.48Z" transform="translate(-352.82 -433.82)"/><path class="cls-87" d="M451.51,477.31c-.85-1.11-.43-2.43-.62-3.64.49-.05,1-.14,1.46-.15,5.07-.19,6.21-2.59,3.51-7.35a1.11,1.11,0,0,1,1.7-.12h0a8.54,8.54,0,0,1,1.39,6.23c-1.43,3.07-4.1,4.33-7.22,4.92Z" transform="translate(-352.82 -433.82)"/><path class="cls-92" d="M447.09,493.74c0,2.11-1.4,2.24-3,2.23-2.94,0-5.88.06-8.82.1l-1-.86,1-2.23c2.35,2.26,5.38,1.85,8,1.23C444.5,493.87,445.85,494.35,447.09,493.74Z" transform="translate(-352.82 -433.82)"/><path class="cls-93" d="M457.56,466.05l-1.7.12-7.11-.25c-.15-.67-.29-1.33-.44-2C451.52,464.07,455.11,462.59,457.56,466.05Z" transform="translate(-352.82 -433.82)"/><path class="cls-94" d="M448.43,473.68l0,1.37-8.07,0c-.57-.27-1-.61-.59-1.33A41.38,41.38,0,0,1,448.43,473.68Z" transform="translate(-352.82 -433.82)"/><path class="cls-95" d="M436.78,485.61c0-2.52,0-5,0-7.55,1.29,1.24-.15,3.3,1.36,4.46,0,1.48.07,3,.1,4.43Z" transform="translate(-352.82 -433.82)"/><path class="cls-96" d="M439.74,473.69c.2.44.39.89.59,1.33-.23.86.42,2.47-.62,2.47-1.59,0-1.39-2.16-2.36-3.11C438.09,474,438.79,473.41,439.74,473.69Z" transform="translate(-352.82 -433.82)"/><path class="cls-97" d="M447.87,488a2.12,2.12,0,0,1-.14.55c-2.78,1.27-5.37-.2-8-.58Z" transform="translate(-352.82 -433.82)"/><path class="cls-98" d="M427.51,501.74l1-.63,1.35,1c.29,1.25-.66,1.57-1.49,2s-1.48,1.52-2.32.1a1.31,1.31,0,0,1-.18-.91C426.18,502.53,426.51,501.77,427.51,501.74Z" transform="translate(-352.82 -433.82)"/><path class="cls-99" d="M434.4,474.35l.56,3c-1.1.7-.07,2.75-1.89,3a1.48,1.48,0,0,1-.42-.07C433.28,478.29,431.6,475.66,434.4,474.35Z" transform="translate(-352.82 -433.82)"/><path class="cls-67" d="M428.34,504.09l1.49-2,1.62.74-1.64,2Z" transform="translate(-352.82 -433.82)"/><path class="cls-100" d="M449.28,496a5.63,5.63,0,0,1,1.31-3.71C450.74,493.75,451.2,495.3,449.28,496Z" transform="translate(-352.82 -433.82)"/><path class="cls-101" d="M429,468.33l-1.39-.75a.49.49,0,0,1-.21-.47c0-.17.07-.26.12-.26l1.64-.08,1.17.89C430.09,468.24,429.57,468.32,429,468.33Z" transform="translate(-352.82 -433.82)"/><path class="cls-60" d="M560.15,503.25a.54.54,0,0,0-.12-.54,3.26,3.26,0,0,1-.61-2.73,22.32,22.32,0,0,1,2.7-7.2c1.71-1.94,2.2-4.47,3.18-6.76a7.61,7.61,0,0,1,.39-.93,25.85,25.85,0,0,0,1.47-3.81c1.79-4.2,3.34-8.49,5.27-12.64,1.86-2.72,4.35-3.91,7.64-3.2,4.53,1.54,5,6,6.76,9.49,2.11,5.52,4.24,11,6.71,16.41,1,3.31,2.87,6.33,3.42,9.8a1.81,1.81,0,0,1-1,2.31h0c-4.41,1.46-5.83,1.07-8.08-2.19a49.43,49.43,0,0,0-3.25-7.24c-.88-3.95-3-7.42-4.43-11.14-.07-1.58-1-2.87-1.47-4.32-1.74-.95-1,1-1.54,1.36-.84,1.88-1.51,3.82-2.28,5.72-.57,1.37-.94,2.62,1.27,2.7a6.54,6.54,0,0,1,2.47.44c1.55.9,2.08,2.51,2.79,4a3.53,3.53,0,0,1,.21,1.12c-.65,3.84-3.74,3.05-6.18,3-3.16-.05-5.7.46-6.46,4.05a4.77,4.77,0,0,1-2.24,2.5h0C564.55,504.47,562.33,504.76,560.15,503.25Z" transform="translate(-352.82 -433.82)"/><path class="cls-102" d="M596,503.45c.24-.71.47-1.42.7-2.12a57.54,57.54,0,0,0-4.18-11.62c-2-4.76-3.83-9.58-5.86-14.32-1.5-3.36-2-7.33-5.8-9.24-1.71-1-3.6-.23-5.38-.5l-.43-.36c5.12-1.85,8.49-.66,10.91,3.84,4.74,8.79,7.84,18.25,11.15,27.62.85,2.41.3,4.94.37,7.42Z" transform="translate(-352.82 -433.82)"/><path class="cls-103" d="M573,469.1a97.56,97.56,0,0,1-5.23,12.71c-1,1.07-1.08,2.51-1.57,3.79l0-.05c-1.47,2.28-2,4.93-3.13,7.38l-2.92,6.91c-1.13-.95-.7-2.26-.8-3.44a5.27,5.27,0,0,1,.67-2.77,7.32,7.32,0,0,0,1.67-3.86,8.3,8.3,0,0,1,1.62-3.95c2.13-3.24,3.11-7,4.72-10.48.67-1.44,1.14-3,2.49-4.09l.81-2.2a1,1,0,0,1,1.64.05Z" transform="translate(-352.82 -433.82)"/><path class="cls-104" d="M588.43,500.47c1.28,4.12,4.73,2.74,7.54,3l-.72.78a8.7,8.7,0,0,1-5.27,0c-2.57-.43-3.45-2.54-4.48-4.5s-2.55-2.61-4.87-1.62a13.55,13.55,0,0,1-5.64,1.24c-3.11-.09-4.46,2.74-6.69,4.12l-1.52,0c.47-.76,1-1.51,1.43-2.27,1.74-3.25,4.49-4.48,8.12-4.52,1.92,0,4.34.4,5.27-2.25,2.36-1.49,3.4.54,4.49,1.87S587.54,499.13,588.43,500.47Z" transform="translate(-352.82 -433.82)"/><path class="cls-66" d="M562.31,482.51a6.1,6.1,0,0,1-.94.58c-1.36.51-1,3.48-3.45,2.42-2.16-.92-1.46-2.86-1.6-4.5,1.82.22,3.85,1.95,5.24-.75,1-1.23,1.45-2.93,3-3.74,0,.75,0,1.49,0,2.24-.94,1.13-1.34,2.59-2.24,3.75Z" transform="translate(-352.82 -433.82)"/><path class="cls-105" d="M568.3,503.46c1.86-2.79,4.17-4.64,7.81-4.63a12.23,12.23,0,0,0,4.89-1.4c2.64-1.23,3.92-.28,4.5,2.29a5.64,5.64,0,0,0-5.11-1C576,499.54,571.89,500.75,568.3,503.46Z" transform="translate(-352.82 -433.82)"/><path class="cls-106" d="M570.5,471.25c-2.81,4.74-3.54,10.4-6.7,15a1.8,1.8,0,0,1,0-2.24C565.89,479.67,566.49,474.56,570.5,471.25Z" transform="translate(-352.82 -433.82)"/><path class="cls-107" d="M563.8,484v2.24a4.51,4.51,0,0,0-1.49,3.75c-.68,1.17-.88,2.54-1.5,3.73-.86.55-.7,1.43-.74,2.25-1,2.16.23,4.58-.75,6.74a8.48,8.48,0,0,1-.52-7.19C560.05,491.56,561.14,487.4,563.8,484Z" transform="translate(-352.82 -433.82)"/><path class="cls-104" d="M560.15,503.25l6.64.18C564.51,505.76,562.29,506,560.15,503.25Z" transform="translate(-352.82 -433.82)"/><path class="cls-106" d="M559.32,502.71c.33-2.24-.76-4.63.75-6.74l.06,3.87c0,1-.07,1.92-.1,2.87h-.71Z" transform="translate(-352.82 -433.82)"/><path class="cls-102" d="M572,469l-.72,0c0-.5,0-1,0-1.5a5,5,0,0,0,2.24-2.24l1.48,0,0,0C575.09,467.4,573.18,467.91,572,469Z" transform="translate(-352.82 -433.82)"/><path class="cls-65" d="M562.31,482.51c.26-1.54.74-2.95,2.24-3.75A4.61,4.61,0,0,1,562.31,482.51Z" transform="translate(-352.82 -433.82)"/><path class="cls-105" d="M590,504.22h5.27A4.44,4.44,0,0,1,590,504.22Z" transform="translate(-352.82 -433.82)"/><path class="cls-66" d="M566.05,474.28c-.07-1.28.14-2.43,1.49-3A4.09,4.09,0,0,1,566.05,474.28Z" transform="translate(-352.82 -433.82)"/><path class="cls-108" d="M543.61,464.56l3,0c-7.69,7.91-5.66,17.7-5.22,27.15.08,1.73.46,3.44-.15,5.14-1.5,1.83-1.8.13-2.09-.82-.61-2-.58-4.12-1.49-6.22-1.72.84-1.11,2.54-1.81,3.59a1.07,1.07,0,0,1-.91.58,1.36,1.36,0,0,1-.85-.72,11.41,11.41,0,0,1-.35-4.61,10.53,10.53,0,0,1,2.3-5.08c2.33-2.91,1.49-6,.53-9.12-.14-.3-.26-.61-.38-.91-.64-1.64-1-3.42-2.64-4.49a6.52,6.52,0,0,1-1-1.07c-.47-.82-1.36-1.52-.88-2.67,2.45.42,3.79,2.37,5,4.14,1.76,2.71,2.78,1.51,4-.3Z" transform="translate(-352.82 -433.82)"/><path class="cls-109" d="M531.63,465.29c.5.76,1,1.52,1.48,2.29a1.39,1.39,0,0,1-1.38.31c-6.56-3.12-13.57-2.2-20.47-2.29-2.21-.27-4.61.66-6.58-1.06l.76-.77a72.43,72.43,0,0,1,22.48,0A6.59,6.59,0,0,1,531.63,465.29Z" transform="translate(-352.82 -433.82)"/><path class="cls-66" d="M555.57,477.27h-.74a3.17,3.17,0,0,1,0-4.49h.75C555.57,474.28,555.57,475.77,555.57,477.27Z" transform="translate(-352.82 -433.82)"/><path class="cls-110" d="M504.68,464.54h6.75c-.66,2.62-3.15,1.18-4.59,2.07-3.14,1.94-3.38,2.87-1.58,6.3a10.71,10.71,0,0,0,3.25,1.69c1.2.32,2.35.77,3.57,1,.85.18,1.79.47,1.83,1.55.05,1.3-1,1.51-2,1.76-.47.13-1,.2-1.45.32-7.23,1.88-9.37,5.25-8.13,12.82.44,2.69.8,5.4-.18,8.06-.48.61-1,.52-1.48,0-.8-1.19-.51-2.65-1-3.92a6.51,6.51,0,0,1-.27-1.14c-.24-3.93-.46-7.85.68-11.7a6.47,6.47,0,0,1,.35-1.05,10.49,10.49,0,0,1,5.26-5c-4.07-2.81-5.92-6.1-4-10.59.37-1.15,1.39-1.59,2.29-2.17C504.21,464.57,504.44,464.55,504.68,464.54Z" transform="translate(-352.82 -433.82)"/><path class="cls-111" d="M468.79,463.81v-.75h0c2.68-1,5.56.3,8.23-.75h6.74c2.41,1.07,5.06-.27,7.48.75l3.74,1.5c.48.43,1.2.74.83,1.61a2,2,0,0,1-.94.36,10.17,10.17,0,0,1-2.06-.33,13.19,13.19,0,0,1-3-1.05c-2.34-.75-4.81,0-7.17-.62a6.12,6.12,0,0,0-4.38,0,10.23,10.23,0,0,1-1.82.26C473.83,464.59,471.13,465.54,468.79,463.81Z" transform="translate(-352.82 -433.82)"/><path class="cls-72" d="M495.72,466.05l-.75-1.5a2.86,2.86,0,0,1,2.43,1.34c1.17,1.66,2.33,1.19,3.55.15a1.47,1.47,0,0,1,.44,1.37,3.11,3.11,0,0,1-.39.92c-2.36,2.52-2.36,2.52-5-.91C495.69,467,495.41,466.59,495.72,466.05Z" transform="translate(-352.82 -433.82)"/><path class="cls-72" d="M477,462.3c-2.62,1.6-5.5.36-8.23.75,0-.25,0-.49,0-.74Z" transform="translate(-352.82 -433.82)"/><path class="cls-72" d="M491.23,463.05c-2.48-.34-5.11.77-7.48-.75C486.23,462.64,488.86,461.53,491.23,463.05Z" transform="translate(-352.82 -433.82)"/><path class="cls-111" d="M501,467.54c0-.5,0-1,0-1.5.58-1.36,1.72-1.58,3-1.47l-1.52,2.22C502,467.21,501.8,468,501,467.54Z" transform="translate(-352.82 -433.82)"/><path class="cls-109" d="M540.61,497.47c-.14-6-1.05-12-.81-18.11a49.71,49.71,0,0,1,1.19-8,8.78,8.78,0,0,1,5.61-6.8c1.5.52,3.19.44,4.53,1.46a2.65,2.65,0,0,1-1.65,1c-4.2.78-4.72,1.27-4.76,5.55q-.12,12.63,0,25.27c0,4.38,1.32,5.14,5.57,3.64,1.8-1.56,2-3.67,1.91-5.8-.3-8.81.9-17.67-1-26.42a2.49,2.49,0,0,1,.6-2.43l1.47,1.53c1.77,4.34.6,9,1.51,13.46h0a45.31,45.31,0,0,1,0,16.46h0c-.61,1.46-.67,3.1-1.51,4.48l-1.5,1.49c-2.73.77-5.47,1.4-8.21,0C541.44,502.48,539.73,500.55,540.61,497.47Z" transform="translate(-352.82 -433.82)"/><path class="cls-112" d="M549.42,466.14l1.71-.14.72.77c2.43,9.78,1.26,19.73,1.43,29.61,0,2.29-.2,4.72-2.49,6.19-1.08-1.55-.85-3.35-.86-5.07,0-7.6-.08-15.21,0-22.81C550,471.81,549.42,469,549.42,466.14Z" transform="translate(-352.82 -433.82)"/><path class="cls-110" d="M490.51,464.54a5.32,5.32,0,0,0,3,.77.74.74,0,0,1-.21,1.08c-3.35,1.36-6.85.57-10.28.7-3.84.14-7.69-.06-11.53.06-4.14.13-4.82,1.18-3.74,5.43A3.17,3.17,0,0,1,468,475a1.84,1.84,0,0,1-1.68.53,4.61,4.61,0,0,1-2.76-4.28,18.09,18.09,0,0,1,1.44-4.43c.65-1.74,2.57-1.38,3.73-2.25,2.76-.74,5.58-.18,8.36-.35A69.68,69.68,0,0,1,490.51,464.54Z" transform="translate(-352.82 -433.82)"/><path class="cls-108" d="M464.29,471.28a3.58,3.58,0,0,0,2.25,3.75c1.46.89,3.8,1.32,2,3.9-1.67,1.47-3.64,2.64-4.72,4.7-2.13,2.36-3.44,1.17-4.53-1a6.85,6.85,0,0,0-1.51-2.5c-3-3.35-3-3.36.25-6.69,1.13-.25-.09-2.45,1.74-2.13a7,7,0,0,1-.73,4c-1.52,2.92,1,4.41,2.39,5.94,1.13,1.2,2.06-.7,2.92-1.43,1.52-1.3,1.94-2.76.53-4.52-1.26-1.57-3.16-3.09-1.36-5.46C464.07,470.15,463.79,470.91,464.29,471.28Z" transform="translate(-352.82 -433.82)"/><path class="cls-93" d="M459.8,471.28c-.49.75-1,1.5-1.49,2.25-.23-.17-.31-.33-.23-.5s.15-.26.22-.26a17.18,17.18,0,0,0-.75-6.72C459.56,467.25,459.5,469.35,459.8,471.28Z" transform="translate(-352.82 -433.82)"/><path class="cls-105" d="M477,464.54h-8.24l0-.73H477c.25.17.33.33.24.5S477.08,464.54,477,464.54Z" transform="translate(-352.82 -433.82)"/><path class="cls-105" d="M464.29,471.28a1.53,1.53,0,0,1-.74-1.49,4.09,4.09,0,0,1,1.48-3C464.79,468.28,464.54,469.78,464.29,471.28Z" transform="translate(-352.82 -433.82)"/><path class="cls-71" d="M513.67,502a2.26,2.26,0,0,1-2.23,1.5,1.64,1.64,0,0,1-.45-1.07,28,28,0,0,1,2-6c1.57-3.87,3.69-4.32,6.71-1.28,1.42,1.44,4,2.47,3,5.35h0c-.53.26-.93,0-1.34-.3C516.78,496.84,516.14,497,513.67,502Z" transform="translate(-352.82 -433.82)"/><path class="cls-71" d="M513.67,502c.94-5.52,2.78-6.33,7-3.07.67.51,1.32,1.05,2,1.58,0,.49,0,1,0,1.49a3.46,3.46,0,0,1-.63-.36C517.74,497.91,517.74,497.9,513.67,502Z" transform="translate(-352.82 -433.82)"/><path class="cls-113" d="M511.42,502.69c0,.26,0,.52,0,.77-1.08,3.21-3.83,1.94-6,2.24V505c1.14-1.27,3.11-.67,4.28-1.89a4.22,4.22,0,0,1,.8-.55A.87.87,0,0,1,511.42,502.69Z" transform="translate(-352.82 -433.82)"/><path class="cls-87" d="M501.7,500.47c1-4.66-1.16-9.18-.36-14,.83-5,3.44-7.05,7.9-7.87,1.37-.26,2.71-.71,4.73-1.24-2.42-1.28-4.79-.75-6.28-2.35a2.9,2.9,0,0,1,2.69-.94c3.17.37,6.35.64,9.54.84,1.36.09,2.88.64,3,2.27.09,1.92-1.54,2.46-3,2.48a77.3,77.3,0,0,0-11.37,1.18,8.8,8.8,0,0,0-2.22,1.14c-1.77,1.22-1.93,3.07-1.94,5,0,3.85,0,7.69,0,11.54a7.4,7.4,0,0,1-.7,4,.81.81,0,0,1-1.12.24,1.67,1.67,0,0,1-.77-1.51c-.24-.18-.32-.35-.23-.51S501.61,500.47,501.7,500.47Z" transform="translate(-352.82 -433.82)"/><path class="cls-113" d="M501.7,500.47l0,.75c-1.49,0-3-2.5-4.46,0-1.78-2-.21-4.77-1.73-6.79a5.62,5.62,0,0,1-.42-1,5.08,5.08,0,0,1,.08-3.57,12.13,12.13,0,0,0,.94-8.4c1.63-1.07,3.4-.29,5.11-.37a1.42,1.42,0,0,1-.23,1.45h0c-1.56,4.41-1.44,8.92-.75,13.46h0c.87,1.13-.17,2.63.74,3.75Z" transform="translate(-352.82 -433.82)"/><path class="cls-105" d="M459.81,482.5c1,1.45,2.09,2.48,3.73.75a2.49,2.49,0,0,1,.44,2.1c-.44,4.38-.44,8.69,1.81,12.69a2,2,0,0,1,0,2.44c-1.95-.47-1.92-3.83-4-3.34-1.84.43-1.87,3.05-3,4.51-.89,1.17-1.74,2.49-3.48,2.54,0-.25,0-.49,0-.74a26.32,26.32,0,0,0,3.74-6c1.65-4.78,1.18-9.62.4-14.47Z" transform="translate(-352.82 -433.82)"/><path class="cls-110" d="M465.78,500.48c-2.92-5.46-4-11.16-2.24-17.23.42-2.57,2.52-3.46,4.49-4.49,1.31-.47,1.37-2.11,2.54-2.72,1.12-.34,2.29-.45,2.85.77s-.48,1.73-1.27,2.3a5.69,5.69,0,0,1-.84.62c-1.12.62-2.51.67-3.47,1.63a7.34,7.34,0,0,0-2.17,3.55c-.08.33-.18.64-.28,1-.13,3-.41,5.94.24,8.88,1,4.5,4.73,6.65,7.85,9.33a1,1,0,0,1-1.71.87C469,504.54,467.3,502.62,465.78,500.48Z" transform="translate(-352.82 -433.82)"/><path class="cls-114" d="M473.28,504.94c0-.24,0-.49,0-.73,1-1,2.22-.95,3.44-.73A35.19,35.19,0,0,0,491,503a6.87,6.87,0,0,0,2.37-1.15,7,7,0,0,0-.16-6.75c-.19-.29-.35-.58-.52-.88-1.23-1.72-1.57-3.44-.05-5.19a3.76,3.76,0,0,1,.73-.76,2.27,2.27,0,0,1,1-.2,1.57,1.57,0,0,1,.86.52c.14,1.72-1.18,3.58.49,5.16h0c1.66,2.35,1.27,4.92.76,7.49a4.46,4.46,0,0,1-3.75,3.74C486.24,506.47,479.76,506.78,473.28,504.94Z" transform="translate(-352.82 -433.82)"/><path class="cls-115" d="M473.28,504.94c6.48,1.22,13,.87,19.45,0a32.76,32.76,0,0,1-21,0Z" transform="translate(-352.82 -433.82)"/><path class="cls-109" d="M502.44,502.73l.8,0a17.06,17.06,0,0,1,6.41.06,4.12,4.12,0,0,1,1,.63c-1.33,1.86-3.33,1.53-5.21,1.57C503.84,505,502.57,504.65,502.44,502.73Z" transform="translate(-352.82 -433.82)"/><path class="cls-109" d="M496.48,501.22c0-2.53.13-5.06-.76-7.49,2.85,2,.95,5,1.49,7.48Z" transform="translate(-352.82 -433.82)"/><path class="cls-116" d="M540.61,497.47a15.37,15.37,0,0,0,3,6.73h-.76c-1.87-.79-2.31-2.8-3.65-4.5-1.6,2.36-2.83,4.78-5.32,6-1.74-.3-3.66.7-5.24-.75,1.38-1.38,3.48-.54,5-1.64.25-.18.52-.35.78-.52s.48-.39.71-.6.41-.47.6-.71c1.09-2.64-1.06-5.14-.31-7.75.17-2.1-.78-5.31,2.1-5.51s1,3.22,2,4.75C540.37,494.32,539.2,496.23,540.61,497.47Z" transform="translate(-352.82 -433.82)"/><path class="cls-110" d="M534.57,503.39c-1.55,2.16-3.85,1.42-5.93,1.56-2.54-.77-3.83-3.2-6-4.49-.71-2.89-3.22-4.32-5.18-6.11-1.63-1.49-2.68,0-3.31,1.46-1,2.27-1.84,4.58-2.75,6.88l-.65.06c-1.31-3.89-.12-7.56,1.41-11,1-2.22,4-2.39,6.61-.9,2.14,1.23,3.3,3.32,4.64,5.26,1.05,1.53,1.92,3.21,3.48,4.32C528.77,503.19,532.27,501.73,534.57,503.39Z" transform="translate(-352.82 -433.82)"/><path class="cls-62" d="M553.32,502.7a7.13,7.13,0,0,1,1.51-4.48v2.24C554.33,501.21,553.83,502,553.32,502.7Z" transform="translate(-352.82 -433.82)"/><path class="cls-49" d="M424.67,463.75l1.46,1.57c.75,3-1.47,4.33-3.51,5.28-2.22,1-2.92-1.2-3.74-2.63-1.43-2.5-3.67-3.52-6.37-3.93-7.65-1.18-15.25-1.31-22.77.85a5.52,5.52,0,0,0-2.68,3.2,6.25,6.25,0,0,0,.28,5,7.43,7.43,0,0,1-.39,8.6,25.21,25.21,0,0,0-1.2,2.69c-1,3.26-.46,6.59-.37,9.89a7.11,7.11,0,0,1,.28,1c.32,3.1,2.16,5.35,4.13,7.56.75.85,2.22,1.26,1.92,2.83h-1.49c-3.4-1-4.78-3.79-6-6.73h0a42,42,0,0,1-.74-15.32,6.87,6.87,0,0,1,.46-2.5,7.88,7.88,0,0,0,.66-7.71c-.79-1.88-.25-3.93-.37-5.89,1.82-4.76,6.17-6.36,10.37-6.52,6.73-.26,13.6-1.33,20.28,1.07a19,19,0,0,1,4.94,2.36C421.44,465.6,423.43,466.46,424.67,463.75Z" transform="translate(-352.82 -433.82)"/><path class="cls-117" d="M391.71,505.71c-3.29-2.83-6.72-5.56-6.73-10.48,1.51-.23,1.5,1.22,2.17,1.93a13.21,13.21,0,0,0,8,7.45c4.06,1.45,8.27.55,12.4.81,1.79.12,3.71-.41,5.26,1-2.41,2.21-5.57,1.15-8.34,1.79-3,.69-6-.55-9-1A4.35,4.35,0,0,1,391.71,505.71Z" transform="translate(-352.82 -433.82)"/><path class="cls-49" d="M395.46,507.2c4.83.41,9.66,1.22,14.51,0,.91-.23,2,.16,2.7-.78a2.11,2.11,0,0,1,1-.66,2.69,2.69,0,0,1,2.76.66C409.49,508.6,402.55,509.91,395.46,507.2Z" transform="translate(-352.82 -433.82)"/><path class="cls-118" d="M426.19,503.53a1.54,1.54,0,0,1-.17.66c-2-2-4.25-2-6.62-.73A1.55,1.55,0,0,1,419,502a4.63,4.63,0,0,1,.39-1c1.28-2.2,3-2.36,5.12-1.2C425.67,500.79,427,501.64,426.19,503.53Z" transform="translate(-352.82 -433.82)"/><path class="cls-74" d="M384.23,499c1.76,2.45,3.27,5.13,6,6.73l.75,1.5C387.5,505.46,384.63,503.22,384.23,499Z" transform="translate(-352.82 -433.82)"/><path class="cls-117" d="M419.4,502v1.5c-.52,1.47-2.09,1.9-3,3h-3c-.19-1.78,1.71-1.5,2.38-2.43.24-.21.49-.4.74-.6C417.46,502.87,418,501.51,419.4,502Z" transform="translate(-352.82 -433.82)"/><path class="cls-119" d="M419.4,502c-1.31.33-1.38,2.31-3,2.25a1.45,1.45,0,0,1-.26-1c2-3.29,2-6.54-.24-9.73-1.25-1.76-.37-3.18.6-4.74,1.44-2.31,2.11-4.76-.2-7a10.71,10.71,0,0,1-2-1.71c-1.54-1.74-1.82-3.47,0-5.2a23.38,23.38,0,0,1,2.32-2c1.36-1.07,1.18-2.28.34-3.55a2.07,2.07,0,0,1,.14-2.46c2.56.52,3.84,3.51,2.76,6.49-.38,1.07-1.23,1.89-1.58,3s-.1,2.22.93,2.53c1.56.46,1.37-1,1.46-1.9.46-4.4,2.83-7.6,6.26-10.15l.6.16.09.73a20.34,20.34,0,0,0-4.53,14.49c.22,3.59-.16,7.22.21,10.78a14.7,14.7,0,0,0,4.2,8.89l-1.32,1.79a3.76,3.76,0,0,0-2.29-3.07c-1.1-1.43-2.59-2.6-2.74-3.61.45,1.41-1.06,3.16-1.76,5.11Z" transform="translate(-352.82 -433.82)"/><path class="cls-111" d="M426.94,466.69c-2.8,3.45-5.69,6.84-5.39,11.75a2.05,2.05,0,0,1-1.19,2.14c-1.47.38-2-1.19-2.9-1.91a1.88,1.88,0,0,1-.26-2.92c1.24-1.68,2.67-3.22,2.21-5.61-.28-1.48-.34-3-2.25-3.35l-.55,0c-2.83-1.43-6-1.64-9-2.38a32.54,32.54,0,0,0-10.56.14c-2.24.24-4.43.78-6.69.87a2.38,2.38,0,0,1-1.65-.83c1.93-2.44,4.9-1.58,7.29-1.91a51.36,51.36,0,0,1,18.41.69c2.26.52,4.48,1.69,5.33,4.2,1.21,3.57,2.8,3,4.72.57.69-.86,1.67-1.51,1.66-2.78Z" transform="translate(-352.82 -433.82)"/><path class="cls-105" d="M458.3,472.77c0,.25,0,.51,0,.76-2.6,2.4-2.7,4.65.37,6.76a2.61,2.61,0,0,1,1.13,2.21h0c-.86.46-1.07-.34-1.49-.76-1.33-2.76-4.18-3.34-6.59-4.55Q455,475,458.3,472.77Z" transform="translate(-352.82 -433.82)"/><path class="cls-70" d="M458.31,481.75l1.49.76c.5,5,1.93,10.09-.75,15C459.71,492.19,460.15,486.92,458.31,481.75Z" transform="translate(-352.82 -433.82)"/><path class="cls-120" d="M433.07,480.31c1.61-.38-.88-3.35,1.89-3,.4,4.8.41,9.56-1.89,14.91Z" transform="translate(-352.82 -433.82)"/><path class="cls-121" d="M581,493.06l-2.18-3.83c-.8-.71-2-.1-2.81-.83-1.37-1.36-1-2.95-.65-4.54s.94-2.87,2.56-3.33,2.41.86,3.2,2c1.65,3.68,3.67,7.22,4.47,11.24-2.44.2-2.76-1.95-3.63-3.4-.75-1.24-.84-2.78-1.57-4-.64-.64-.74-1.91-2.25-1.72-.36,2,1.66,2.53,2.39,3.81C581.42,489.86,582.51,491.33,581,493.06Z" transform="translate(-352.82 -433.82)"/><path class="cls-121" d="M580.94,493c.73.3.81,1,.9,1.61-.33,2.44-2.47,2.38-4,2.49a15.06,15.06,0,0,0-9.61,4.07c.41-3.67,2.25-5.53,6.13-5.05a39.51,39.51,0,0,0,4.07,0C580.6,496.14,581.17,494.91,580.94,493Z" transform="translate(-352.82 -433.82)"/><path class="cls-122" d="M587,475l6,14.24a1.84,1.84,0,0,1-.09,2.42,121.52,121.52,0,0,1-6.75-16.62A.6.6,0,0,1,587,475Z" transform="translate(-352.82 -433.82)"/><path class="cls-123" d="M581.07,482.5c-1.34-.59-2.55-2.5-4.17-.66-1.79,2-1.51,4.28-.3,6.51-2.46.4-2.8,0-2.33-2.87.27-2.18,1.49-4,2.34-5.94.73-.92,1.07-2.57,2.84-1.48C579.53,479.7,581.49,480.67,581.07,482.5Z" transform="translate(-352.82 -433.82)"/><path class="cls-124" d="M592.88,491.68l.09-2.42c1.87,3.83,3.68,7.67,3.7,12.07Q594.78,496.5,592.88,491.68Z" transform="translate(-352.82 -433.82)"/><path class="cls-125" d="M587,475l-.89,0c-1.93-3-2.23-7.1-5.85-9a.45.45,0,0,1,.71-.15C584.93,467.66,585.86,471.41,587,475Z" transform="translate(-352.82 -433.82)"/><path class="cls-126" d="M581,465.89c-.24,0-.48.1-.71.15-3.13-.62-5.48.62-7.33,3.06L572,469l3-3.71C577,465.52,579.11,464.66,581,465.89Z" transform="translate(-352.82 -433.82)"/><path class="cls-127" d="M574.27,485.48c.06,1.54.17,3,2.33,2.87.79.14,1.7,0,2.17.88-.86,0-1.73-.1-2.59-.07C572.87,489.31,572.53,487.94,574.27,485.48Z" transform="translate(-352.82 -433.82)"/><path class="cls-122" d="M563.05,492.93c.44-2.72,1-5.39,3.13-7.38C565.58,488.19,564.87,490.79,563.05,492.93Z" transform="translate(-352.82 -433.82)"/><path class="cls-128" d="M579.45,478.06c-1.29-.16-1.88,1-2.84,1.48.09-1.38.41-2.88,1.72-3.33C579.17,475.92,579.5,477.15,579.45,478.06Z" transform="translate(-352.82 -433.82)"/><path class="cls-122" d="M566.15,485.6c-.18-1.55.09-2.92,1.57-3.79A5.7,5.7,0,0,1,566.15,485.6Z" transform="translate(-352.82 -433.82)"/><path class="cls-106" d="M560.81,493.72a4.32,4.32,0,0,1,1.5-3.73A4.31,4.31,0,0,1,560.81,493.72Z" transform="translate(-352.82 -433.82)"/><path class="cls-129" d="M506.2,466.08c1.37-1.77,3.83.16,5.23-1.53,5.17.3,10.36-.6,15.52.65,2.2.53,4.06,1.73,6.16,2.38l.73.72a18.65,18.65,0,0,1,2.86,5.77c.4,4.11,1.61,8.39-2.4,11.59a1.06,1.06,0,0,1-.89-.73c-.44-1.53.35-2.88.63-4.31.69-3.5.58-6.87-2-9.7a10.47,10.47,0,0,0-8.57-3.77c-4.22,0-8.45,0-12.67,0C509.2,467.09,507.52,467.35,506.2,466.08Z" transform="translate(-352.82 -433.82)"/><path class="cls-110" d="M533.88,485.5c2.57-1.95,2.21-4.78,2.24-7.48,0-1.5,0-3,0-4.49q.38-.52.75,0h0c1.32,3.49,1.64,7,0,10.47a8.5,8.5,0,0,0-2.24,4.48,5.26,5.26,0,0,0,0,5.25h0c1.46,2.83,2.62,5.71,1.49,9l-.6.07A47.21,47.21,0,0,1,531,492.3C530.17,489.62,530.7,486.83,533.88,485.5Z" transform="translate(-352.82 -433.82)"/><path class="cls-109" d="M536.86,484a25.3,25.3,0,0,0,0-10.47C538.85,477,539.37,480.51,536.86,484Z" transform="translate(-352.82 -433.82)"/><path class="cls-109" d="M536.11,502.7c.68-3.18-1.08-6-1.49-9h.75C536.51,496.65,537.89,499.54,536.11,502.7Z" transform="translate(-352.82 -433.82)"/><path class="cls-109" d="M536.87,473.53h-.75l-2.28-5.23C536.13,469.3,536.34,471.51,536.87,473.53Z" transform="translate(-352.82 -433.82)"/><path class="cls-109" d="M534.62,493.73c-1.86-1.75-1.85-3.49,0-5.25Z" transform="translate(-352.82 -433.82)"/><path class="cls-60" d="M506.2,466.08c6,.05,12.05.15,18.08.14,3.68,0,6.79,1,8.77,4.34,2.53,4.81,1.79,9.63,0,14.44a5.69,5.69,0,0,1-1.74,2.26c-4.37,2.31-.66,4.41.18,6.58a53.62,53.62,0,0,1,2.9,5.83c.46,1.25,1.08,2.42.1,3.68l.06,0c-2.85-.2-6.14,1.24-8.09-2.21-2.43-3-4.05-6.48-6.31-9.58-1.93-2.64-4.53-2.36-7-1.83-2.34.5-1.92,2.79-2.21,4.59-.48,3,.19,6.1-1.21,8.95-2.18,0-4.43.79-6.48-.61,0-5.92.12-11.84.1-17.76,0-2.08.39-3.7,2.86-3.9,4.21-1.25,8.56-1,12.87-1.06,1.24,0,2.48-.05,3.72-.05,1.85,0,2.83-.92,2.81-2.7s-1.05-2.67-2.87-2.63c-5,.11-9.92-.29-14.88-.34a9.44,9.44,0,0,1-3.15-.67C502.33,470.17,502.87,467.45,506.2,466.08Z" transform="translate(-352.82 -433.82)"/><path class="cls-130" d="M504.7,473.59h3c4.31.7,8.67.17,13,.66,2,.22,4,.31,4,2.8.1,2.69-1.92,3.2-4.09,3.2-4.32,0-8.65,1-13,0,3.64-1.32,7.43-1.48,11.25-1.52,1.26,0,3.22.5,3.23-1.43,0-1.39-1.75-1.44-3-1.53L507.69,475A4.46,4.46,0,0,1,504.7,473.59Z" transform="translate(-352.82 -433.82)"/><path class="cls-109" d="M501,482.51V481a9.12,9.12,0,0,0-.46-8.16c-.89-1.69-.32-3.59.47-5.31h0l1.49-.75c-1.34,3.83-.86,7,3.09,9.07,1.74.93,1.69,2.22-.25,2.79C503.15,479.28,502.36,481.18,501,482.51Z" transform="translate(-352.82 -433.82)"/><path class="cls-109" d="M500.21,496c-1.13-4.56-1.61-9.09.75-13.46A65.92,65.92,0,0,0,500.21,496Z" transform="translate(-352.82 -433.82)"/><path class="cls-109" d="M501,499.72c-1.24-1.05-.56-2.48-.74-3.75C501.45,497,500.78,498.45,501,499.72Z" transform="translate(-352.82 -433.82)"/><path class="cls-109" d="M495.72,493.73c-3.32-1.31-1.29-3.38-.75-5.24-.32-1.9,1.28-3.9-.32-5.73l-.86-1.06a13.18,13.18,0,0,0-1.28-1.2c-.23-.2-.44-.41-.65-.62-.66-.67-1.58-1-2.24-1.65a1.83,1.83,0,0,1-.3-.94c.19-1.31,1.25-1.81,2.25-2.29,3.19-1.52,4.5-3.78,3.07-7.25A1.45,1.45,0,0,1,495,466h.75l.74.75c1.83,2.75,2.15,5.53,0,8.23-1,1.23-1.23,2.32-.15,3.64.54.65,1,1.49.19,2.34,1.31,3,1.5,5.78-.4,8.72C495.42,490.72,495.8,492.38,495.72,493.73Z" transform="translate(-352.82 -433.82)"/><path class="cls-110" d="M495,466c2,6.35,2.06,6.36-4.06,10.27a2.06,2.06,0,0,0-1.17,1.7c-1.08.91-2.29,1-3.05-.18s.49-1.86,1.26-2.54c1.33-1.22,3.49-.94,4.62-2.53,1.32-2.05.2-4.42.85-6.55l.05-.9Z" transform="translate(-352.82 -433.82)"/><path class="cls-110" d="M477,464.54c0-.25,0-.49,0-.74h1.5a4.37,4.37,0,0,1,3.74,0c2.74.37,5.62-.82,8.26.74Z" transform="translate(-352.82 -433.82)"/><path class="cls-105" d="M482.25,463.8h-3.74A2.55,2.55,0,0,1,482.25,463.8Z" transform="translate(-352.82 -433.82)"/><path class="cls-111" d="M496.47,481c0-.25,0-.59-.12-.72-2.49-2.29-2.5-4.27,0-6.8,1.82-1.84.7-4.43.1-6.69,1.43.68,2.3,4.68,4.5.74-.06,3.11.05,6,2.19,8.73,1.9,2.4-1.89,2.92-2.2,4.74C499.46,482.52,498,482.52,496.47,481Z" transform="translate(-352.82 -433.82)"/><path class="cls-60" d="M549.42,466.14a3.56,3.56,0,0,1,1.61,3.18c0,11.08.48,22.17-.24,33.25-5.08,2.38-6.93,1.36-7-4q-.11-13.17,0-26.36C543.82,466.41,543.87,466.41,549.42,466.14Z" transform="translate(-352.82 -433.82)"/><path class="cls-60" d="M493.42,466.21a6.44,6.44,0,0,1,0,7.22c-5.36,1.86-10.92,1.29-16.41,1.2-3.26-.06-6.68.78-9.74-1.13-2-1.82-1.67-4.13-.85-6.17.75-1.86,2.83-1.14,4.34-1.15C478.33,466.12,485.87,466.19,493.42,466.21Z" transform="translate(-352.82 -433.82)"/><path class="cls-129" d="M467.29,473.5l26.15-.07c-.9,1.9-3.25,1-4.46,2.33-6.87,3.15-13.67,1.16-20.48-.27L468,475Z" transform="translate(-352.82 -433.82)"/><path class="cls-105" d="M470.27,476.52a2.08,2.08,0,0,1-2.24,2.24c1.63-2.1-1.18-2.41-1.49-3.73H468C468.68,475.68,470,475.27,470.27,476.52Z" transform="translate(-352.82 -433.82)"/><path class="cls-131" d="M509.72,503.31c.83-3.8.35-7.65.49-11.48.08-2.43.91-3.34,3.52-3.47,4-.19,6.92.5,8.47,4.64,1.08,2.87,3.33,5.2,4.28,8.18-2.7-1.4-3.48-4.35-5.19-6.54a10,10,0,0,0-3.74-3.44c-2.86-1.22-4.8-.21-5.36,2.86-.53,2.89-1,5.79-1.42,8.69a3.44,3.44,0,0,0-.12.64Z" transform="translate(-352.82 -433.82)"/><path class="cls-132" d="M507.69,480.26c4.46.38,8.84-.47,13.26-.78,1.5-.11,3.17-.38,3.1-2.4s-1.81-1.82-3.28-2.1c-4.32-.85-8.81-.11-13.07-1.4,5.21,0,10.41,0,15.62-.1,2.56-.05,3.64,1.33,3.69,3.63s-.94,4.05-3.71,4c-5.7-.06-11.4-.06-17.1-.09A1.53,1.53,0,0,1,507.69,480.26Z" transform="translate(-352.82 -433.82)"/><path class="cls-133" d="M492,503.53c-4.79,1.93-9.76,1.59-14.74,1.13-1.33-.13-2.65-.3-4-.45-4.16-1.7-7.24-4.38-8.23-9a31.31,31.31,0,0,1,0-10.49h0a.8.8,0,0,1,1.11.24c1.25,2.43.57,5.13,1.05,7.69,1.35,7.14,4.1,9.6,11.32,9.71,3.1,0,6.21,0,9.32,0C489.29,502.44,490.85,502.23,492,503.53Z" transform="translate(-352.82 -433.82)"/><path class="cls-104" d="M470.27,476.52,468,475c6.95,1.19,13.91,1.79,20.94.74-.62.52-1.84,1.19-1.75,1.51.35,1.28,1.63.53,2.51.74h0a.84.84,0,0,1-.31,1.16,6.05,6.05,0,0,1-4.32.4,26.74,26.74,0,0,0-10.62-.06,3.59,3.59,0,0,1-3.46-.74c.31-.89,2-.56,1.78-1.52C472.52,476,471.15,476.74,470.27,476.52Z" transform="translate(-352.82 -433.82)"/><path class="cls-129" d="M471,478.77c6.23-1.36,12.47-.5,18.7,0,1.13-.26,2,.39,3,.76l0,.72c-1.79,1.68-3.76.31-5.63.27-4.13-.09-8.24-1.21-12.4-.07a4.3,4.3,0,0,1-3.22-.48l-.47-.47C471,479.26,471,479,471,478.77Z" transform="translate(-352.82 -433.82)"/><path class="cls-134" d="M465,484.74c0,3.5,0,7,0,10.49A15.61,15.61,0,0,1,465,484.74Z" transform="translate(-352.82 -433.82)"/><path class="cls-134" d="M465.88,484.78l-.85,0a4.73,4.73,0,0,1,2.25-3.74,1,1,0,0,1,1.42,0C468.87,483,467.8,484.22,465.88,484.78Z" transform="translate(-352.82 -433.82)"/><path class="cls-129" d="M468.88,481.15l-1.6-.15c.76-1.71,2.3-1.49,3.74-1.5v0c.27,1.4-.92,1.31-1.69,1.64Z" transform="translate(-352.82 -433.82)"/><path class="cls-60" d="M465.88,484.78a11.31,11.31,0,0,1,3-3.63h-.05c6.84-1.86,13.77-1.06,20.68-.67l3.35.19c3.11,3.35,3.12,4.91,0,8.05a3.47,3.47,0,0,1-1.84.72c-4.34.21-8.69-.05-13,.18-1.15.07-2.81-.33-3,1.36s1.38,2.1,2.64,2.62c2.16.89,4.42.41,6.63.52,1.12.06,2.24,0,3.36.05,7.21.14,8,1.1,6.58,8.52l-2.18.84-14.1-.12c-7.53-.08-10.53-2.6-11.62-10.12A83,83,0,0,1,465.88,484.78Z" transform="translate(-352.82 -433.82)"/><path class="cls-121" d="M494.17,502.69c.47-9.29.16-7.44-7.35-7.69-3.35-.11-6.7-.15-10-.3-2.67-.11-3.67-1.8-3.6-4.24.09-2.9,2.41-2,3.91-2,4.71-.1,9.42,0,14.14.05-.67,2.37-2.85,2-4.52,2.32-1.92.42-4,0-5.93.72,4.31.74,8.89.21,12.73,2.86C496.1,497,495.35,499.82,494.17,502.69Z" transform="translate(-352.82 -433.82)"/><path class="cls-135" d="M493.51,494.41c-4.36-.59-8.65-1.84-13.12-1.47-1,.09-2.19,0-2.21-1.34s1.26-1,2-1.24c3.08-.9,6.42.24,9.46-1.1.54-.23,1.07-.5,1.61-.75l1.38-.08c.38-.35.69-.29.91.17,0,.21,0,.42,0,.63-2.91,2.34-2.91,2.34,0,4.51A4.92,4.92,0,0,0,493.51,494.41Z" transform="translate(-352.82 -433.82)"/><path class="cls-136" d="M493.47,493.74a8.8,8.8,0,0,1-4.52-2.33l4.52-2.18C492,490.73,492,492.24,493.47,493.74Z" transform="translate(-352.82 -433.82)"/><path class="cls-136" d="M494.91,481.8c2.5,2.21,1.49,4.45.06,6.69h-.78C494.92,486.31,494.27,484,494.91,481.8Z" transform="translate(-352.82 -433.82)"/><path class="cls-121" d="M494.91,481.8c0,2.25.56,4.57-.72,6.68a2.55,2.55,0,0,0-.67.12l-.91-.17c2.33-2.24,1.8-4.71.58-7.24.27-.46.6-.52,1-.16Z" transform="translate(-352.82 -433.82)"/><path class="cls-137" d="M534.51,503.35c.77-4-2.7-6.26-3.69-9.53-1-2.31-3.61-4.63,0-6.94l1.47-1.41c.48-.33.72-1.18,1.57-.72,0,.25,0,.5,0,.75-2.69,3.12-2.92,6.35-.71,9.9a14.31,14.31,0,0,1,2.34,7.37Z" transform="translate(-352.82 -433.82)"/><path class="cls-138" d="M386.48,497.47l-1.5-2.24h0A35.85,35.85,0,0,1,385,484a38.62,38.62,0,0,1,2.18-4.7,3.48,3.48,0,0,0,0-4.09c-1.29-2.39-2.39-4.95-.69-7.68a2.06,2.06,0,0,1,.76,1.31c.2,1.3.13,2.69,1.17,3.73.25.22.48.45.71.69a10,10,0,0,1,1.25,1.58c2,2.37.67,4.12-1.09,5.79a6.79,6.79,0,0,0-2.06,4.39,9,9,0,0,1-.22,1,18.2,18.2,0,0,0,.11,7.53,5.46,5.46,0,0,1,.21,1.14A3.09,3.09,0,0,1,386.48,497.47Z" transform="translate(-352.82 -433.82)"/><path class="cls-117" d="M385,484v11.23A17.69,17.69,0,0,1,385,484Z" transform="translate(-352.82 -433.82)"/><path class="cls-119" d="M386.48,469c0-.5,0-1,0-1.51a3.6,3.6,0,0,1,2.25-3h1.5c.45,1-.53,1.3-1,1.85a7.23,7.23,0,0,0-.88,1C387.8,468,387.83,469.37,386.48,469Z" transform="translate(-352.82 -433.82)"/><path class="cls-139" d="M386.48,497.47v-3a.74.74,0,0,1,.91-.13c1.15,1.08,1.29,2.73,2.25,3.92.2.27.38.56.55.84a4.8,4.8,0,0,0,4.56,2.76c5.39.86,10.82.33,16.23.48a16.27,16.27,0,0,1,4.4.35,2.36,2.36,0,0,1,1.06.78l0,.73h0a12.13,12.13,0,0,1-7.41,1.87c-5-.3-10.14.75-15-1.12C390.07,503.85,387.93,501,386.48,497.47Z" transform="translate(-352.82 -433.82)"/><path class="cls-119" d="M394,505a69.75,69.75,0,0,0,11.1.79,30.5,30.5,0,0,0,11.35-1.54c-.4,1.55-2.24,1.16-3,2.24H399.09A7.66,7.66,0,0,1,394,505Z" transform="translate(-352.82 -433.82)"/><path class="cls-117" d="M419.4,502c.35-2.52.69-5,1.09-7.92,1.94,1.91,2.35,4.35,3.41,6.42C421.69,498.85,420.58,500.52,419.4,502Z" transform="translate(-352.82 -433.82)"/><path class="cls-140" d="M389.48,475l-.74-1.54c1.32-1.24,3-1,4.59-1.05,5.09-.05,10.18,0,15.27,0,5.71,0,5.71,0,7.39-5.3a.82.82,0,0,1,1.16-.3h0c0,.81-.11,1.69.73,2.25.9,1.69.23,3.11-.75,4.48l-2.23,1.5a13,13,0,0,1-6.54,2.25,9.13,9.13,0,0,1,6.54,2.25l1.54,1.48-.46.45a4.41,4.41,0,0,1-1.81.53c-6.19.2-12.38.1-18.57.08-2.61,0-4.91.53-6.72,2.5l-.52.32a1.66,1.66,0,0,1-1.16.05c-.74-2.24.91-3.44,2.1-4.85a7.36,7.36,0,0,1,3.13-2c1-.22,1.95-.34,3-.56-1-.77-2.15-.56-3.19-.88A10,10,0,0,1,389.48,475Z" transform="translate(-352.82 -433.82)"/><path class="cls-102" d="M416.44,503.48l-.9-.07c-.57-2.2.1-4.42-.14-6.61a2.88,2.88,0,0,0-.56-1.86c-.26-.25-.54-.49-.82-.72-3-2.43-3-2.8-.09-5a9.63,9.63,0,0,0,2.41-2.65,3.09,3.09,0,0,0,0-3.66c-.31-.64-.54-1.27.06-1.88h.05a5.25,5.25,0,0,1,1,8.06c-1.68,2-1.31,3.22-.14,5.05C419.38,497.37,419.38,500.59,416.44,503.48Z" transform="translate(-352.82 -433.82)"/><path class="cls-102" d="M414.91,479.52l-9.13-2.11v-.52l9.12-1.87C413.4,476.52,413.41,478,414.91,479.52Z" transform="translate(-352.82 -433.82)"/><path class="cls-141" d="M417.14,473.52c.28-1.49,1-2.9.75-4.48C419.15,470.79,419.09,472.31,417.14,473.52Z" transform="translate(-352.82 -433.82)"/><path class="cls-141" d="M417.15,466.8l-1,.09c-8.49.68-17,.32-25.48.14a2.86,2.86,0,0,1-2-.89l1.49-1.59c2.25-.2,4.42-1.11,6.73-.76a37.09,37.09,0,0,1,11.23,0C411.3,464.43,414.86,463.72,417.15,466.8Z" transform="translate(-352.82 -433.82)"/><path class="cls-119" d="M408.18,463.79H397A18,18,0,0,1,408.18,463.79Z" transform="translate(-352.82 -433.82)"/><path class="cls-130" d="M581,485.5c-.14,1.17.53,2.75-1.49,3-.56-.45-1.15-.87-1.69-1.36-.84-.75-1.68-1.59-1-2.81a3,3,0,0,1,1.54-1.44c1.3-.27,1.3,1.15,1.87,1.84C580.5,485,580.76,485.24,581,485.5Z" transform="translate(-352.82 -433.82)"/><path class="cls-131" d="M533.86,484.75l-1.57.72c2.23-4.87,2.15-9.85.76-14.91C536.85,475.09,535.37,479.92,533.86,484.75Z" transform="translate(-352.82 -433.82)"/><path class="cls-142" d="M530.82,486.88c-2.47,2.31-.31,4.63,0,6.94-.57-.77-1.14-1.55-1.72-2.32C527.31,489.08,527.8,487.51,530.82,486.88Z" transform="translate(-352.82 -433.82)"/><path class="cls-134" d="M494.2,481l-1,.16-24.36,0c.3-1.12,1.77-.68,2.2-1.63a77.43,77.43,0,0,1,21.71.73A1.48,1.48,0,0,1,494.2,481Z" transform="translate(-352.82 -433.82)"/><path class="cls-110" d="M492.71,479.53a5.21,5.21,0,0,1-3-.76c0-.25,0-.5,0-.76A3.94,3.94,0,0,1,492.71,479.53Z" transform="translate(-352.82 -433.82)"/><path class="cls-60" d="M388.73,466.14q11.56,0,23.13,0c1.47,0,3-.2,4.33.75.07.74.13,1.49.23,2.23.39,3.12-.72,4.51-4.13,4.43-7.85-.2-15.7-.07-23.55-.08l-.22-.12-.24.07c-1.73-2.16-.88-4.4-.22-6.64Z" transform="translate(-352.82 -433.82)"/><path class="cls-141" d="M389.48,475l3,.76c1.53,1,1.54,2,0,3l-3,1.51c-.25.31-.51.31-.76,0C390,478.66,391.79,477.13,389.48,475Z" transform="translate(-352.82 -433.82)"/><path class="cls-139" d="M388.06,466.78c.07,2.22.15,4.43.22,6.64-2-.88-1.75-2.69-1.8-4.38Z" transform="translate(-352.82 -433.82)"/><path class="cls-140" d="M387.23,494.48h-.75c0-.25,0-.5,0-.74a20.47,20.47,0,0,1,0-8.25c0-.24,0-.49,0-.73.24-.34.49-.36.74,0l0,0A10.69,10.69,0,0,1,387.23,494.48Z" transform="translate(-352.82 -433.82)"/><path class="cls-139" d="M386.47,485.49v8.25A10,10,0,0,1,386.47,485.49Z" transform="translate(-352.82 -433.82)"/><path class="cls-139" d="M387.22,484.74h-.74a4.75,4.75,0,0,1,2.24-4.49h.76C388.62,481.71,387.32,482.92,387.22,484.74Z" transform="translate(-352.82 -433.82)"/><path class="cls-60" d="M416.36,496c.07,2.5.69,5-.82,7.37-7.37-.26-14.8,1-22.11-.83a7.64,7.64,0,0,1-3.87-3.71l0,0c-2.71-4.48-2.15-9.31-1.56-14.15.92-2.74,2.89-3.72,5.71-3.7,7,.07,14.09,0,21.13,0,3.42,4,2.61,6.92-2.31,8.43-1.69.09-3.37,0-5.05.07-3,0-5.93-.06-8.9,0-1,0-2.11,0-2.12,1.46a2.21,2.21,0,0,0,1.69,2.48c4.14,1.26,8.36.46,12.53.72C412.74,494.34,415,493.79,416.36,496Z" transform="translate(-352.82 -433.82)"/><path class="cls-125" d="M388,484.76c.24,4.75-.14,9.56,1.56,14.15-2-.81-1.76-2.86-2.35-4.43,0-3.24,0-6.47,0-9.71Z" transform="translate(-352.82 -433.82)"/><path class="cls-125" d="M389.56,498.87l3.87,3.71A3.8,3.8,0,0,1,389.56,498.87Z" transform="translate(-352.82 -433.82)"/><path class="cls-124" d="M412.67,488.51c3.79-.74,4.57-3.37,2.19-7.48l1.54,0a1.69,1.69,0,0,0,.75,1.5,6,6,0,0,1,0,4.48c-.56.76-.95,1.91-1.69,2.22-4.92,2-2,3.59.23,5.22-1.13.77-2.38.29-3.57.36a104.88,104.88,0,0,0-11.48-.64,2,2,0,0,1-1.14-.53c-1.1-3.22-.59-4.19,2.5-4.34C405.56,489.1,409.16,489.53,412.67,488.51Z" transform="translate(-352.82 -433.82)"/><path class="cls-139" d="M392.46,478.76a2.42,2.42,0,0,0,0-3l6.36,1.21A11.5,11.5,0,0,1,392.46,478.76Z" transform="translate(-352.82 -433.82)"/><path class="cls-143" d="M412,494.38l3.69.06a1.42,1.42,0,0,1,.67,1.6c-1.84-1.5-4-.9-6.09-1-3.84-.16-7.68-.17-11.52-.29-2.66-.09-3.71-1.75-3.69-4.18,0-2.77,2.21-2.15,3.82-2.17,2.84-.05,5.69.05,8.54.09-1.46,2.21-3.67.68-5.51,1.05-1.07.22-2.33-.08-3,1-.92,1.44.22,2.27,1.12,3.13.22,0,.44,0,.67,0C404.48,493.35,408.21,494.34,412,494.38Z" transform="translate(-352.82 -433.82)"/><path class="cls-140" d="M417.15,487v-4.48A3.36,3.36,0,0,1,417.15,487Z" transform="translate(-352.82 -433.82)"/><path class="cls-144" d="M400,493.7a2.06,2.06,0,0,1-2.19-2.69c.25-1.56,1.5-1.66,2.8-1.79,2.27-.24,4.68.76,6.81-.71h5.25c-3.13,1.88-6.61,1.53-10,1.45C399.73,489.89,398.82,491,400,493.7Z" transform="translate(-352.82 -433.82)"/><path class="cls-144" d="M412,494.38a43.48,43.48,0,0,1-11.33-.67C404.55,492.23,408.24,493.93,412,494.38Z" transform="translate(-352.82 -433.82)"/><text class="cls-145" transform="translate(170.37 97.4)">GAMI<tspan class="cls-146" x="56.66" y="0">N</tspan><tspan x="72.54" y="0">G</tspan></text><path class="cls-147" d="M414.9,546.51q38-.43,76.61-.11l10.95.11q11.15-17,22.3-34l67.85.29H604" transform="translate(-352.82 -433.82)"/><circle class="cls-148" cx="62.5" cy="112.69" r="3.19"/><circle class="cls-148" cx="251.14" cy="78.72" r="3.19"/></svg>