<svg id="Livello_1" data-name="Livello 1" xmlns="http://www.w3.org/2000/svg" viewBox="0 0 296.25 134.21"><defs><style>.cls-1{fill:#fe533c;}.cls-2{fill:#fefbfa;}.cls-3{fill:#fe654f;}.cls-4{fill:#fe5e48;}.cls-5{fill:#fafafb;}.cls-6{fill:#fe634e;}.cls-7{fill:#fe644f;}.cls-8{fill:#fe6a55;}.cls-9{fill:#fe6751;}.cls-10{fill:#f95d47;}.cls-11{fill:#fe715e;}.cls-12{fill:#fe6a56;}.cls-13{fill:#fe6550;}.cls-14{fill:#fe6b56;}.cls-15{fill:#fe6c57;}.cls-16{fill:#fd6f5c;}.cls-17{fill:#fe705d;}.cls-18{fill:#fe5d47;}.cls-19{fill:#fefefe;}.cls-20{fill:#fcfafa;}.cls-21{fill:#f8f6f5;}.cls-22{fill:#f8e7e5;}.cls-23{fill:#fbf6f6;}.cls-24{fill:#ef5843;}.cls-25{fill:#f1553f;}.cls-26{fill:#f7eeed;}.cls-27{fill:#ec604d;}.cls-28{fill:#fc563f;}.cls-29{fill:#fe5740;}.cls-30{fill:#fd5b45;}.cls-31{fill:#fe6b57;}.cls-32{fill:#f6614c;}.cls-33{fill:#fb614c;}.cls-34{fill:#f75d47;}.cls-35{fill:#f2eae9;}.cls-36{fill:#edeae9;}.cls-37{fill:#eddcda;}.cls-38{fill:#d84e3b;}.cls-39{fill:#e7e5e5;}.cls-40{fill:#efebeb;}.cls-41{fill:#e65540;}.cls-42{fill:#ededed;}.cls-43{fill:#d65745;}.cls-44{fill:#dfd4d3;}.cls-45{fill:#e9e9e9;}.cls-46{fill:#e2e2e2;}.cls-47{fill:#e1e1e1;}.cls-48{fill:#dedede;}.cls-49{fill:#e0e0e0;}.cls-50{fill:#f2f2f2;}.cls-51{fill:#faf9f9;}.cls-52{fill:#f65943;}.cls-53{fill:#e05c49;}.cls-54{fill:#eae1df;}.cls-55{fill:#fbf9f9;}.cls-56{fill:#fa6651;}.cls-57{fill:#f95f49;}.cls-58{fill:#eeeded;}.cls-59{fill:#f7f5f5;}.cls-60{fill:#101010;}.cls-61{fill:#b3493b;}.cls-62{fill:#d2d2d2;}.cls-63{fill:#d1d1d1;}.cls-64{fill:#ddd;}.cls-65{fill:#d5d5d5;}.cls-66{fill:#dcdcdc;}.cls-67{fill:#a6a2a2;}.cls-68{fill:#d65340;}.cls-69{fill:#ca5141;}.cls-70{fill:#b8b8b8;}.cls-71{fill:#d4d4d4;}.cls-72{fill:#d9d9d9;}.cls-73{fill:#eee;}.cls-74{fill:#eaeaea;}.cls-75{fill:#f7f6f6;}.cls-76{fill:#f5f4f4;}.cls-77{fill:#f9624d;}.cls-78{fill:#f85f4a;}.cls-79{fill:#f75d48;}.cls-80{fill:#f75b45;}.cls-81{fill:#d75544;}.cls-82{fill:#f9725f;}.cls-83{fill:#fb6f5c;}.cls-84{fill:#b1abaa;}.cls-85{fill:#aeadac;}.cls-86{fill:#afadad;}.cls-87{fill:#b0b0b0;}.cls-88{fill:#a9a8a8;}.cls-89{fill:#ab4638;}.cls-90{fill:#82382e;}.cls-91{fill:#a64639;}.cls-92{fill:#9e9b9b;}.cls-93{fill:#c9c8c8;}.cls-94{fill:#9f9d9c;}.cls-95{fill:#9e9594;}.cls-96{fill:#a75347;}.cls-97{fill:#985b53;}.cls-98{fill:#d05241;}.cls-99{fill:#8e7d7b;}.cls-100{fill:#7a5d59;}.cls-101{fill:#a94c3f;}.cls-102{fill:#0f0f0f;}.cls-103{fill:#bdbdbd;}.cls-104{fill:#a7a7a7;}.cls-105{fill:#bababa;}.cls-106{fill:#c3c3c3;}.cls-107{fill:#bdbcbc;}.cls-108{fill:silver;}.cls-109{fill:#cbcbcb;}.cls-110{fill:#c7c7c7;}.cls-111{fill:#bcbcbc;}.cls-112{fill:#d3d3d3;}.cls-113{fill:#b6b5b5;}.cls-114{fill:#ccc;}.cls-115{fill:#b9b9b9;}.cls-116{fill:#c6c6c6;}.cls-117{fill:#d0d0d0;}.cls-118{fill:#d7d7d7;}.cls-119{fill:#d8d8d8;}.cls-120{fill:#c8c8c8;}.cls-121{fill:#a6a6a6;}.cls-122{fill:#969696;}.cls-123{fill:#989898;}.cls-124{fill:#828282;}.cls-125{fill:#a8a8a8;}.cls-126{fill:#9f9f9f;}.cls-127{fill:#b3b3b3;}.cls-128{fill:#6a6969;}.cls-129{fill:#5b5b5b;}.cls-130{fill:#adadad;}.cls-131{fill:#0e0e0e;}.cls-132{fill:#a3a3a3;}.cls-133{fill:#111;}.cls-134{fill:#111010;}.cls-135{fill:#9c9c9c;}.cls-136{fill:#959595;}.cls-137{fill:#a4a4a4;}.cls-138{fill:#a5a5a5;}.cls-139{fill:#ababab;}.cls-140{fill:#b6b6b6;}.cls-141{fill:#9d9d9d;}.cls-142{fill:#cecece;}.cls-143{fill:#bebebe;}.cls-144{fill:#b2b2b2;}.cls-145{fill:#c2c2c2;}.cls-146{fill:#757575;}.cls-147{fill:#8f8f8f;}.cls-148{fill:#929292;}.cls-149{font-size:18px;fill:#7046c7;font-family:AniMeMatrix-MB_EN, AniMe Matrix - MB_EN;}.cls-150{letter-spacing:0.02em;}.cls-151{fill:none;}.cls-151,.cls-152{stroke:#1d1d1b;stroke-miterlimit:10;}.cls-152{fill:#1d1d1b;}</style></defs><path class="cls-1" d="M351.35,569.71l1,1.39c.66.78,1.56,1.36,1.91,2.38a3.44,3.44,0,0,1,.13,1,1.57,1.57,0,0,1-1.87,1.48c-2.14-.72-2.86-3-4.54-4.21-1.28-1-2-2.46-3.35-3.38a41.07,41.07,0,0,0-26.5-12.24,43.24,43.24,0,0,0-33.1,10.67c-18.63,16-20.28,45-3.25,63.54,15.44,16.79,41.25,17.61,55.9,6.84,1-.74,2-1.44,3.06-2.14,1.76-.91,2.92-2.6,4.62-3.59a2,2,0,0,1,1.07,0,2.52,2.52,0,0,1,1.6,2.64,20.91,20.91,0,0,1-4.95,5.2c-18.28,13.63-46.06,12.7-63.29-4.67-9.51-9.59-14.59-21.36-14.44-34.93a48.75,48.75,0,0,1,10.91-30.36,5.87,5.87,0,0,1,2.63-2c6.69-6.06,13.93-11.22,22.85-13.39,18.33-4.46,34.07.42,47.47,13.44C350.15,568,351.42,568.25,351.35,569.71Z" transform="translate(-263.32 -552.36)"/><path class="cls-2" d="M278.94,567.36c-5,6.55-9.27,13.4-11.22,21.6a47.75,47.75,0,0,0,49.45,58.74c9.62-.58,18.12-4,26-9.39.68-.35,1,.06,1.28.59.12,1.64-1.41,1.93-2.27,2.77-1.35.78-2.58,1.75-4,2.4-1.26.63-2.55,1.17-3.79,1.83a79.38,79.38,0,0,1-7.87,2.83c-2.94.49-5.87,1-8.83,1.28q-3.08.07-6.14,0a89.06,89.06,0,0,1-9.49-1.3,65.4,65.4,0,0,1-7.93-2.79,26.73,26.73,0,0,0-3.83-1.7c-1.29-.81-2.56-1.64-3.85-2.45a33.7,33.7,0,0,1-4-3,54.8,54.8,0,0,1-9.1-9.72,18,18,0,0,1-2.29-3.62c-3-4.76-4.62-10-6.06-15.39a57.05,57.05,0,0,1-.66-15.87c.77-3.28,1-6.68,2.22-9.86.74-1.7,1.34-3.45,2.21-5.09,1.46-2.79,2.5-5.82,4.6-8.26,1.51-1.58,2.63-3.49,4.17-5.05Z" transform="translate(-263.32 -552.36)"/><path class="cls-3" d="M265.65,610.58a86,86,0,0,0,6,15c.39.89-.1,1-.81.92a38,38,0,0,1-5.9-14.24C265.37,611.78,264.94,610.92,265.65,610.58Z" transform="translate(-263.32 -552.36)"/><path class="cls-4" d="M265.65,610.58l-.73,1.66a11.21,11.21,0,0,1-1-5.71c-.63-1.52.11-3.19-.52-4.72v-3c.7-1.75-.17-3.67.55-5.42l.19-2c1.75.38.79,1.57.73,2.49C264.88,599.43,264.44,605,265.65,610.58Z" transform="translate(-263.32 -552.36)"/><path class="cls-5" d="M462.9,636.21l-1.32,3c-.34-2-2-1.35-3.18-1.48-2.73-.29-5.61.73-8.19-.93a.71.71,0,0,1,.07-.57Z" transform="translate(-263.32 -552.36)"/><path class="cls-6" d="M273.65,628.76l9,9.75a1,1,0,0,1-.58.67,34.06,34.06,0,0,1-9.08-9.53C272.56,628.87,273.05,628.77,273.65,628.76Z" transform="translate(-263.32 -552.36)"/><path class="cls-7" d="M264.9,593.84c-.16-.85.11-1.84-.73-2.49a25.22,25.22,0,0,1,2.19-8.25c.81-.07,1.13.24.84,1Z" transform="translate(-263.32 -552.36)"/><path class="cls-7" d="M273.85,571.24l-4.63,8.09c-.77.07-1.12-.22-.81-1a24.19,24.19,0,0,1,4.53-8C273.74,570.14,274.05,570.44,273.85,571.24Z" transform="translate(-263.32 -552.36)"/><path class="cls-8" d="M317.65,649.53l9-1.44c.76-.13,1.72-.74,1.79.75a30.42,30.42,0,0,1-7.5,1.49C319.93,649.61,318.54,650.59,317.65,649.53Z" transform="translate(-263.32 -552.36)"/><path class="cls-9" d="M294,645.27c2.47,1.08,5.28,1.39,7.42,3.23l.07.07c-3.25.62-5.83-1.11-8.51-2.48C293.07,645.54,293.59,645.48,294,645.27Z" transform="translate(-263.32 -552.36)"/><path class="cls-10" d="M350.23,636.24a10,10,0,0,0-3.2,2.93l-.34,0-.33,0a1.11,1.11,0,0,1-.95-1.08c2.19-2.36,3.93-5.19,6.91-6.74a1.3,1.3,0,0,1,1.13,1c.14,1.41-1,1.76-1.89,2.37C350.81,634.94,350.54,635.61,350.23,636.24Z" transform="translate(-263.32 -552.36)"/><path class="cls-11" d="M301.47,648.57l-.07-.08c3.43-.46,6.7.62,10,1.06-1.15,1.11-2.75,0-3.95.79C305.4,650,303.11,650.4,301.47,648.57Z" transform="translate(-263.32 -552.36)"/><path class="cls-12" d="M328.39,648.84a2.2,2.2,0,0,0-1.79-.75l7.81-2.83c.38.22.89.28,1,.84A21.34,21.34,0,0,1,328.39,648.84Z" transform="translate(-263.32 -552.36)"/><path class="cls-13" d="M307.49,650.34c1.13-1.18,2.66-.36,3.95-.79l6.21,0c1.07.33,2.35-.22,3.24.8A64.53,64.53,0,0,1,307.49,650.34Z" transform="translate(-263.32 -552.36)"/><path class="cls-14" d="M273.85,571.24l-.91-.92c1.49-1.49,2.07-3.92,4.52-4.41C277.19,568.31,275.09,569.49,273.85,571.24Z" transform="translate(-263.32 -552.36)"/><path class="cls-15" d="M268.41,578.31l.81,1q-1,2.4-2,4.82l-.84-1A10.84,10.84,0,0,1,268.41,578.31Z" transform="translate(-263.32 -552.36)"/><path class="cls-16" d="M345.91,638.48l.45.69a10.15,10.15,0,0,1-3.75,3c-.34-.22-.82-.29-.92-.79l2.43-2.14C344.54,638.53,344.91,637.73,345.91,638.48Z" transform="translate(-263.32 -552.36)"/><path class="cls-17" d="M282,639.18c.19-.23.39-.45.58-.67a11.82,11.82,0,0,1,4.08,2.84c-.1.5-.57.57-.92.79A10.28,10.28,0,0,1,282,639.18Z" transform="translate(-263.32 -552.36)"/><path class="cls-5" d="M442,637.65c2.69-1.2,5.62,0,8.35-.81C447.7,638.63,444.76,637.36,442,637.65Z" transform="translate(-263.32 -552.36)"/><path class="cls-13" d="M285.77,642.14l.92-.79,3.74,2.25a1,1,0,0,1-.92.82Z" transform="translate(-263.32 -552.36)"/><path class="cls-13" d="M341.69,641.35l.92.79-3.74,2.27c-.33-.24-.8-.32-.9-.81Z" transform="translate(-263.32 -552.36)"/><path class="cls-7" d="M289.51,644.42l.92-.82,3.55,1.67-1,.82A7.11,7.11,0,0,1,289.51,644.42Z" transform="translate(-263.32 -552.36)"/><path class="cls-18" d="M338,643.6l.9.81a8.09,8.09,0,0,1-3.48,1.69l-1-.84Z" transform="translate(-263.32 -552.36)"/><path class="cls-12" d="M273.65,628.76l-.7.89a6.45,6.45,0,0,1-2.13-3.17l.81-.92Z" transform="translate(-263.32 -552.36)"/><path class="cls-7" d="M264,593.35c-.11,1.82.66,3.72-.55,5.42C263.35,596.94,263.06,595.08,264,593.35Z" transform="translate(-263.32 -552.36)"/><path class="cls-14" d="M263.44,601.81c1.12,1.47.5,3.13.52,4.72C263.09,605,263.35,603.42,263.44,601.81Z" transform="translate(-263.32 -552.36)"/><path class="cls-19" d="M341.85,635.38c-18,16-50.65,13.21-65.81-11-9.2-14.71-9.84-30.26-1.74-45.51s21.47-23.23,38.74-24a42.69,42.69,0,0,1,26.74,7.93,73.27,73.27,0,0,1,6.07,5.24c-.26,1-.61,2.07-1.86,1.85-4.87-.87-9.54.79-14.32,1-3.72-.43-7.08-2.2-10.79-2.72-11-1.55-20.35,1.8-28,9.77-8.79,9.19-10.59,20.1-7.5,32.11.41,1.57,1,3.08,1.26,4.67-.51,3.16.55,5.92,2.21,8.52.47,1.19,1.28,2.25,1.32,3.6a1.69,1.69,0,0,1-1.94.9c-5.11-3.3-7.42-8.64-9.36-13.93-7.32-19.92,1.77-42,22.78-50.84,3.74-1.09,7.37-2.76,10.06-2.44-3.06-.15-7.1,1.33-11.13,2.9-13.19,6.15-21.59,16.25-23.79,30.67-2.44,16,4.61,32.29,19.6,40.07,12.66,7.32,25.45,7.32,38.36.72,1.71-.77,3.25-2,5.23-2.11.82-.07,1,1.55,2.49.52C341.46,632.62,342.11,634.15,341.85,635.38Z" transform="translate(-263.32 -552.36)"/><path class="cls-20" d="M329.85,570.54a3.53,3.53,0,0,1,4.6-1.25c1.93.84,3.82.17,5.39-.57s2.67-2.19,4,.39c.43.82,1.14-1,2-1.09,1.54.53,1.33,2.55,2.73,3.2-1.82,3.61-5.33,2.49-8.26,3-1.23,0-2.05-1-3.23-1.59,1.37,1.13,2.77,2,3,3.76a2,2,0,0,1-1.15,1.69A27.2,27.2,0,0,1,329.85,570.54Z" transform="translate(-263.32 -552.36)"/><path class="cls-21" d="M339.67,573.35c3.12-.07,6.21-.27,8.91-2.13,1.89.92,2.38,3.09,3.87,4.37a.89.89,0,0,1-.17,1c-3.13-1-5.73,1.92-8.82,1.22C341.49,576.92,339.58,576,339.67,573.35Z" transform="translate(-263.32 -552.36)"/><path class="cls-22" d="M345.91,638.48l-1.79.73-1-.9,4.68-4.53c.61-1.9,1.51-3.53,3.71-3.94a1.32,1.32,0,0,1,1.17.93,1.17,1.17,0,0,1-.32,1Z" transform="translate(-263.32 -552.36)"/><path class="cls-23" d="M341.85,635.38c-.19-2.59-3.1-.47-3.8-2.19,0-2.21,1.77-2.49,3.32-3,1.68-.12,3.42-.37,4.34,1.59C344.47,633,343.7,634.78,341.85,635.38Z" transform="translate(-263.32 -552.36)"/><path class="cls-24" d="M352.46,576.33a3.66,3.66,0,0,1,0-.74c1.08-.06,1.4-.78,1.49-1.71l.65.23a6,6,0,0,1,2,2.09,8.33,8.33,0,0,1,.76,1.82,2.3,2.3,0,0,1-.22,1.46,4,4,0,0,1-2,1.57A5.44,5.44,0,0,1,352.46,576.33Z" transform="translate(-263.32 -552.36)"/><path class="cls-25" d="M351.46,630.15l-3.65,3.63-1.46-2.11c-.25-.53,0-.9.36-1.26.74-.63,1.22-1.51,2-2.08a3.48,3.48,0,0,1,1-.29c.95,0,1.81.17,2.18,1.22A.9.9,0,0,1,351.46,630.15Z" transform="translate(-263.32 -552.36)"/><path class="cls-26" d="M347.05,630.77l-.7.9c-.21,0-.42.08-.64.1-1.47-1-3.16-.76-4.79-.88,0-1.2.74-1.74,1.76-2.06C344.45,628.76,346.25,628.65,347.05,630.77Z" transform="translate(-263.32 -552.36)"/><path class="cls-27" d="M352.37,631.73a3.55,3.55,0,0,1,0-.65,5.55,5.55,0,0,1,1.94-3.26,1.66,1.66,0,0,1,1-.11,1.87,1.87,0,0,1,1,1,2.57,2.57,0,0,1-.54,1.83,4.22,4.22,0,0,1-2.06,1.87l-.61.09Z" transform="translate(-263.32 -552.36)"/><path class="cls-28" d="M329.85,570.54a60.91,60.91,0,0,1,9,7.29,2.56,2.56,0,0,1,1.84,1.54,2.11,2.11,0,0,1,0,1,1.38,1.38,0,0,1-1.18.87,3.13,3.13,0,0,1-1.89-.83c-1.68-1.53-3.18-3.26-5-4.68-10.88-7.42-22.32-8.54-33.77-1.9-14.14,8.21-18.93,24.62-12.2,39.62.66,1.47,1.63,2.82,1.74,4.5a1.52,1.52,0,0,1-.93,1.36c-2.53-.22-3-2-3.18-4.08-5.62-12.12-4.38-27.28,5.76-38a33.45,33.45,0,0,1,37-7.7C328,569.87,328.93,570.19,329.85,570.54Z" transform="translate(-263.32 -552.36)"/><path class="cls-29" d="M299.94,563.55c-13.29,6.18-22.11,16.11-24.25,30.82-1.83,12.52,1.36,23.83,10.78,32.88,3.26,1.81,6.51,3.62,8.49,7-.22.59-.56.92-1.22.59-11.11-6.1-17.26-15.75-19.58-28-3.49-18.32,7.13-37.43,24.27-44C299.21,562.48,300,562.18,299.94,563.55Z" transform="translate(-263.32 -552.36)"/><path class="cls-20" d="M294.71,634.1c-2.87-2.14-5.85-4.15-8.24-6.85l1.53-.65c2.94-.16,4.25,2.52,6.43,3.68,2.7,1.41,5.69,2.14,8.39,3.56,3.25,2.28,6.92,2.27,10.64,1.9,2.74.56,5.34-.13,7.94-.88,2.87.28,5.29-1.84,8.16-1.55,1.15.34,1.72,1,1.3,2.25-3.81,2.67-8.26,3.3-12.71,3.91a13.77,13.77,0,0,0-4.14.39C307.17,639.32,300.34,638.71,294.71,634.1Z" transform="translate(-263.32 -552.36)"/><path class="cls-30" d="M318.12,638.52c4.5.12,8.5-1.63,12.52-3.29a2.21,2.21,0,0,1,2.21-1c.52.19.9.48.77,1.12-10.64,7.35-28.35,7.12-39.88-.52l1-.73c6.19,2.93,12.54,5.21,19.54,4.87C315.52,638.61,316.89,639.17,318.12,638.52Z" transform="translate(-263.32 -552.36)"/><path class="cls-31" d="M299.94,563.55l-1.51-.69A30.84,30.84,0,0,1,312,559.62c.76,0,2-.67,2,.75,0,1-1,.89-1.73.88C308,561.15,304,562.46,299.94,563.55Z" transform="translate(-263.32 -552.36)"/><path class="cls-6" d="M317.44,564.28c3.92-1.23,7.24.47,10.59,2.05C324.26,567,320.88,565.46,317.44,564.28Z" transform="translate(-263.32 -552.36)"/><path class="cls-32" d="M333.62,635.35l-1-.77c0-1.41,1-2.06,2-2.69a36.19,36.19,0,0,0,3.14-2.07c.82-.47,1.47-1.17,2.24-1.71a3.68,3.68,0,0,1,1.39-.6,1.63,1.63,0,0,1,1.42.54,1,1,0,0,1-.38,1.38l-1.57,1.46a6.07,6.07,0,0,0-2.87,2.3Z" transform="translate(-263.32 -552.36)"/><path class="cls-33" d="M294,631.1l-6-4.5a2.81,2.81,0,0,1-1.46-3.08l.46-.33c3.58.82,5.75,3.69,8.28,5.95C296.51,630.24,296,631.42,294,631.1Z" transform="translate(-263.32 -552.36)"/><path class="cls-20" d="M284.34,615.23l2.81,3.82a2.23,2.23,0,0,1,1.18,2.12c-.14,1.15-1,1.72-1.81,2.37l0,0C284.21,621.18,282.62,618.64,284.34,615.23Z" transform="translate(-263.32 -552.36)"/><path class="cls-34" d="M339.67,573.35l3.69,3.76c.66,2.58-.87,2-2.32,1.64a4.17,4.17,0,0,1-1.3-2.6,8.44,8.44,0,0,0-3.59-3.09,1.39,1.39,0,0,1-.79-2.14c.86-1.13,1.44.11,2,.57C338.18,572.08,338.92,572.73,339.67,573.35Z" transform="translate(-263.32 -552.36)"/><path class="cls-35" d="M339.74,576.15a1.91,1.91,0,0,1,1.3,1.72c-.33.42-.07,1.11-.65,1.42l-1.51-1.46C339.17,577.27,339.46,576.71,339.74,576.15Z" transform="translate(-263.32 -552.36)"/><path class="cls-36" d="M340.39,579.29c.22-.47.44-.95.65-1.42,1.16.93,2.23,1.58,2.32-.76a8,8,0,0,0,2.82-.37,7.75,7.75,0,0,1,6.28-.41l2.84,4.54a2.71,2.71,0,0,1,1.38,2,2.15,2.15,0,0,1-.89,2.23c-3.35,1.07-6.78.56-10.18.43-2.93-.72-4.49-2.72-5.16-5.54C340.42,579.73,340.4,579.51,340.39,579.29Z" transform="translate(-263.32 -552.36)"/><path class="cls-37" d="M354.64,628.06l-2.23,3-1-.93a3.13,3.13,0,0,0,.14-.69c.4-1.2.58-2.6,2.33-2.58C354.5,627.07,354.92,627.36,354.64,628.06Z" transform="translate(-263.32 -552.36)"/><path class="cls-38" d="M357,579.29l.51.1a2.94,2.94,0,0,1,1.31,1.79,1.6,1.6,0,0,1-.66,1.51,1.92,1.92,0,0,1-2.17-.34c-.23-.49-.45-1-.67-1.48A1.57,1.57,0,0,1,357,579.29Z" transform="translate(-263.32 -552.36)"/><path class="cls-39" d="M342.57,628.07l-1.45-.12a2.17,2.17,0,0,1-1.05-1.79,4,4,0,0,1,2.55-3.21c3.2-.11,6.14,1.27,9.27,1.57a2.44,2.44,0,0,1,.15,1c-.25,1.57-1.42,2.38-2.58,3.21a2.87,2.87,0,0,1-.5.07C346.58,630.71,344.68,628.54,342.57,628.07Z" transform="translate(-263.32 -552.36)"/><path class="cls-40" d="M342.57,628.07c2.32-1.31,4.08,2,6.39.76-.45.84-.9,1.66-1.91,1.94a9.63,9.63,0,0,0-4.56-1.34C342.52,629,342.55,628.53,342.57,628.07Z" transform="translate(-263.32 -552.36)"/><path class="cls-41" d="M349.46,628.76l2.07-3.11a3.07,3.07,0,0,1,2.39.68.58.58,0,0,1-.21.84l-2.11,2.29C351.08,628.61,350.25,628.75,349.46,628.76Z" transform="translate(-263.32 -552.36)"/><path class="cls-42" d="M377,626.49c-7.36.6-14.46,2.66-21.74,3.72l.67-1.52c0-.8.51-1,1.15-1.09,3.55.23,6.67-1.52,10-2.19s6.71-1.64,9.93.46Z" transform="translate(-263.32 -552.36)"/><path class="cls-43" d="M356.84,628l-.87.72-.7-.87c-.91-1.74.53-3,.87-4.52a3.36,3.36,0,0,1,.61-.89,2.91,2.91,0,0,1,3-.67c.76.76.5,1.56.08,2.36-.31.54-.67,1.07-1,1.62s-.57,1.06-.91,1.57A1.61,1.61,0,0,1,356.84,628Z" transform="translate(-263.32 -552.36)"/><path class="cls-44" d="M356.78,623.46c.17,1.69-1.44,2.75-1.51,4.36l-.63.24-.93-.89a2,2,0,0,0,.12-.69C354.05,624.73,354.69,623.39,356.78,623.46Z" transform="translate(-263.32 -552.36)"/><path class="cls-45" d="M454.11,626.49l.74-1.49c1.31-1,2.74-.07,4.09-.27,1.66.07,2.83-1.07,4.19-1.74a5.56,5.56,0,0,1,1.6-.37,10,10,0,0,1,2.78.16,7.54,7.54,0,0,1,2,.88c4.48,2,8.65,1.61,12.46-1.59a4,4,0,0,1,1.52-.83c3.69-.62,7.38-1.73,11.09-.11a31.11,31.11,0,0,1,2.9,1.42c.74.39,1.48.76,2.19,1.2a2.83,2.83,0,0,1,1,1.08,1.07,1.07,0,0,1-.19.91c-2.72.5-4.84-1.64-7.58-1.59-4.87.1-9.64.24-14.3,2-3.57,1.33-7.32.55-11,0-1.58-.24-3.13-.92-4.56.38h-.75a20,20,0,0,1-8.23,0Z" transform="translate(-263.32 -552.36)"/><path class="cls-42" d="M454.11,626.49h8.23A9.78,9.78,0,0,1,454.11,626.49Z" transform="translate(-263.32 -552.36)"/><path class="cls-45" d="M501.25,589.07c3.14,2.74,3.88,6.75,5.34,10.33,2.61,6.39,5,12.86,4.39,20-.26,2.9-.82,5.48-4.5,5.6a.81.81,0,0,1-.24-.87,10.19,10.19,0,0,1,1.5-2c.31-.41.62-.82.92-1.24,1.41-3.67,0-7.11-1-10.5-2-6.52-4.55-12.83-7.08-19.15A2.49,2.49,0,0,1,501.25,589.07Z" transform="translate(-263.32 -552.36)"/><path class="cls-46" d="M501.25,589.07v2.25c-1.58.31-1.87-1.25-2.79-1.9a7.85,7.85,0,0,1-2.3-4.13,1.82,1.82,0,0,1,.6-1.45C499.1,584.86,499.67,587.4,501.25,589.07Z" transform="translate(-263.32 -552.36)"/><path class="cls-47" d="M496.76,583.84v1.49c-2.39-.1-3.88-1.68-5.38-3.26l.15-.49C493.69,581.37,495.12,582.83,496.76,583.84Z" transform="translate(-263.32 -552.36)"/><path class="cls-48" d="M506.49,624.25c0,.24,0,.49,0,.74h-.74c-1.75.87-3.5,1.15-5.25,0l-.74-.74A5.61,5.61,0,0,1,506.49,624.25Z" transform="translate(-263.32 -552.36)"/><path class="cls-49" d="M500.49,625h5.25l-.75.75a6.11,6.11,0,0,1-4.49,0h0C500.5,625.49,500.5,625.24,500.49,625Z" transform="translate(-263.32 -552.36)"/><path class="cls-46" d="M487.78,580.84c.78-1.09,2-.64,3-.74a1.55,1.55,0,0,1,.76,1.48l0,0a1.19,1.19,0,0,1-.93.34C489.58,581.76,488.51,581.72,487.78,580.84Z" transform="translate(-263.32 -552.36)"/><path class="cls-45" d="M500.5,625.74H505A3.4,3.4,0,0,1,500.5,625.74Z" transform="translate(-263.32 -552.36)"/><path class="cls-50" d="M333.67,575.56c1.9,1.08,3.13,2.85,4.5,4.47.34.88-.13,1.39-.83,1.79-1.39.12-2.42-.93-3.71-1.14-5.82-.34-11.36-2.25-17.09-3a28.33,28.33,0,0,0-18.77,4.06c-1.88,1.13-3,2.53-2.86,4.76-.13,9.81-3.65,19.48-1.19,29.38,1.38,5.13,3.8,9.31,9.56,10.44a6,6,0,0,1,2.7,1,16.59,16.59,0,0,0,9,2c1.47-.06,3-.21,4.36.65a1.53,1.53,0,0,1,.37,1.68,2,2,0,0,1-1.57.78,30.66,30.66,0,0,0-4.06-.39h-3.45c-8.38-.73-15.41-4.06-20.64-10.8.44-2.18-1.61-3.73-1.51-5.83,1-2.29-1.54-4.05-1-6.27,1-6.8,1.6-13.64,3.43-20.29a11,11,0,0,0,.38-4.77,5.14,5.14,0,0,1,.83-3c1.95-.5,2.79-2.27,4.06-3.56a8.85,8.85,0,0,1,4-1.68c9.21-3.63,18.42-2.41,27.62,0,.84-.15,1.68-.33,2.53-.48C331.49,575.07,332.55,575.57,333.67,575.56Z" transform="translate(-263.32 -552.36)"/><path class="cls-51" d="M288.74,615.53c.26,1.73,3.35,2.58,1.54,5-1.85.3-1.7-1.34-2.24-2.31-6.34-10.85-7.53-22-1.44-33.3,9.17-17.06,32.61-21.67,47.07-9.32-1,1.4-2,.49-2.94,0-1.79,0-3.18-1-4.66-1.73-1.33-.66-2.48-.75-3.55.39-2.13,0-4.28.28-6.19-1a1.81,1.81,0,0,0-2.37-2c-1.51.24-3.68-.88-4.09,1.84-1.78,1.58-3.95.9-6,1.08-3.33-.44-5.34,1.91-7.65,3.62-.53,2-1.36,3.66-3.93,3.11-.83,2.55-3.85,4-3.4,7.19,2.25,1.84,1,4.15.61,6.16-.88,4.5-.54,9.22-2.41,13.53C286.46,610.65,289.3,612.73,288.74,615.53Z" transform="translate(-263.32 -552.36)"/><path class="cls-52" d="M288,618.18l2.24,2.31c5.33,6,11.7,10,19.92,10.57,1.3.64,2.78,0,4.09.55a1.66,1.66,0,0,1,.2,1.17c-1,1.78-2.8,1.29-4.37,1.43-8.52-.55-15-5.05-20.84-10.79a2.9,2.9,0,0,1-1-2.27c-.47-.64-1.18-1.16-1.08-2.1Z" transform="translate(-263.32 -552.36)"/><path class="cls-53" d="M340.45,580l4,4.7c.17.15.82-.07.45.51-.58.94-1.52.89-2.46.79a5.68,5.68,0,0,1-3.17-2.75,2.29,2.29,0,0,1,.18-2.29Z" transform="translate(-263.32 -552.36)"/><path class="cls-54" d="M339.42,580.92l.47,2a.85.85,0,0,1-.23,1c-1.6,0-2.54-.63-2.27-2.41l.78-1.53Z" transform="translate(-263.32 -552.36)"/><path class="cls-55" d="M288.23,621.15c5.16,5.32,10.84,9.83,18.28,11.53,1.05.24,2.13.38,3.19.57a1.22,1.22,0,0,1,0,1.71c-2.57,1.14-4.89.26-7.18-.87-3.12-.17-5.67-1.93-8.47-3,.71-.18,1.86-.64.92-1.29-2.88-2-4.86-5.22-8.43-6.26C287,622.65,287.21,621.63,288.23,621.15Z" transform="translate(-263.32 -552.36)"/><path class="cls-55" d="M321.61,635.47c-2.6,1.16-5.18,2.47-8,.74-1.28-.22-2.72-.27-2.36-2.22,3.56-.42,7.16-2.5,10.66.24A1.33,1.33,0,0,1,321.61,635.47Z" transform="translate(-263.32 -552.36)"/><path class="cls-56" d="M311.17,634.78c.66.71,2,.31,2.4,1.43-4.15,1.36-9.34.36-11.07-2.12,2.47-.66,4.74,1.15,7.2.59A1,1,0,0,1,311.17,634.78Z" transform="translate(-263.32 -552.36)"/><path class="cls-57" d="M321.61,635.47l.06-.77c2.26-2.7,5.8-2.81,8.67-4.3a3,3,0,0,1,1.11.07,1.52,1.52,0,0,1,1,1.2c-.23,2.07-2.21,1.57-3.35,2.29C326.54,634,324.4,636.39,321.61,635.47Z" transform="translate(-263.32 -552.36)"/><path class="cls-55" d="M329.14,634l3.12-2.23c1.17-.76,2.26-1.15,2.85.65l-2.47,2.2-2,.65C330.56,634.32,330,634,329.14,634Z" transform="translate(-263.32 -552.36)"/><path class="cls-55" d="M318.12,638.52a7.52,7.52,0,0,1-3.87.45C315.45,638.06,316.82,638.57,318.12,638.52Z" transform="translate(-263.32 -552.36)"/><path class="cls-58" d="M319.43,630.23c-4.84-.11-9.83.75-14.22-2.25a3.79,3.79,0,0,1,3.54-.74c3.46.86,7,.48,10.46.34a5.84,5.84,0,0,1,1.09-.29,17.7,17.7,0,0,0,3.74-.74c4.51-1.37,8.91-3.65,13.81-1.56a5.68,5.68,0,0,1,2.29,1.36,1.67,1.67,0,0,1,1,1.6l-.8.58C333.21,627.27,326.38,629.58,319.43,630.23Z" transform="translate(-263.32 -552.36)"/><path class="cls-50" d="M319.43,630.23c6.82-2.34,13.63-4.74,20.89-1.7-.87.46-.93,1.77-2.06,2-2.27.32-4.59-.25-6.85.34l-.78.08c-2.58-.42-4.75,1.23-7.2,1.47-1.38.14-2.93,1.17-4-.66Z" transform="translate(-263.32 -552.36)"/><path class="cls-59" d="M331.41,630.83c2.15-2.79,4.54-.7,6.85-.34-1.3.21-1.57,2.14-3.15,1.89-.78-1-1.87-.56-2.85-.65Z" transform="translate(-263.32 -552.36)"/><path class="cls-60" d="M342,585.29c.82-.22,1.81.21,2.47-.63l11.86-.19a4.46,4.46,0,0,1,3.13-.91c2.47,0,5-.47,7.36.69,2.09,2,2,4.56.93,6.87s-3.73,2-5.95,2c-.87,0-1.76.07-2.63,0-2.66,0-5.31,0-8,0a24.07,24.07,0,0,0-2.68.26,4.49,4.49,0,0,1-1,0,2.62,2.62,0,0,0-2.5.61c-1.15,1.59-.51,3.55-1.09,5.26,0,4.59-1.53,9.31,1.25,13.63a8.3,8.3,0,0,0,1.32,1,28.65,28.65,0,0,0,12.16-.27c1.71-.25,1.78-1.5,1.72-2.83-.18-1.82-.36-3.62-2.91-3.43-2.4-.09-4.8.2-7.19-.23a3.56,3.56,0,0,1-2.07-1.51,6.76,6.76,0,0,1-.25-4.65,3.5,3.5,0,0,1,2.53-2.2,92.08,92.08,0,0,1,15.31.09c2.1.77,2.54,2.55,2.6,4.49.12,4.08.09,8.17,0,12.26a8,8,0,0,1-3.76,6.87,4.9,4.9,0,0,1-4.75-.13l-3,.54a26.31,26.31,0,0,1-3.55.19c-3.05,0-6.11.28-9.15-.2a7.76,7.76,0,0,1-2.31-.62,22.11,22.11,0,0,1-2.1-1.1,7.16,7.16,0,0,1-1.86-1.57,16.44,16.44,0,0,1-3-9.1c-.2-4.74-.23-9.48,0-14.21.17-3.4,1-6.65,3.59-9.18a9.71,9.71,0,0,1,1.91-1.26A3.45,3.45,0,0,1,342,585.29Z" transform="translate(-263.32 -552.36)"/><path class="cls-61" d="M359.25,584.46a5,5,0,0,1-3,0c-.11-.7-.21-1.41-.31-2.12l2.37,0a.75.75,0,0,1,1,0A1.73,1.73,0,0,1,359.25,584.46Z" transform="translate(-263.32 -552.36)"/><path class="cls-62" d="M506.49,624.25h-6.74l-2.24-.76a11.24,11.24,0,0,0-16.38-.19c-3.7,2-7.45,3.28-11.43.69a7.43,7.43,0,0,1-2.88-4.3c-.48-4.94,1-9.42,3.23-13.74a33.42,33.42,0,0,0,1.82-4,5.52,5.52,0,0,1,.43-1c.8-1.22,1.77-2.38,1.87-3.94a9.16,9.16,0,0,1,.38-1.93,14,14,0,0,1,1.43-2.57,15.1,15.1,0,0,0,1.5-3,6,6,0,0,1,2-2.72l.75-.75a1.33,1.33,0,0,1,1.59-.16,2.19,2.19,0,0,1,.54,1.59,5.14,5.14,0,0,1-1.05,2.59c-3.24,3.72-4.18,8.61-6.5,12.79-2.3,5.51-5.91,10.67-4.56,17.14.19.27.37.55.57.82s.41.52.62.79c1.67,1.5,3.4,1.13,5.16.2a5.55,5.55,0,0,1,1-.46,13.62,13.62,0,0,1,1.53-.49c3.48-3.47,8.2-3.68,12.59-4.74a4.4,4.4,0,0,1,4.39,1.34c1.46,1.62,2.37,3.79,4.61,4.63a5.9,5.9,0,0,0,4.37.11c.3-.15.61-.27.92-.39l.49-.13a1.66,1.66,0,0,1,1.33.6l.18.47Z" transform="translate(-263.32 -552.36)"/><path class="cls-63" d="M490.77,581.6h.74l5.25,3.73c.75,1.25,1.49,2.5,2.24,3.74,5.16,8.59,8,18.07,10.63,27.64a5.62,5.62,0,0,1-.89,5.29l-.73.77-.05-.06a91.48,91.48,0,0,0-4.56-16.41c-2.21-5.42-4.13-10.95-6.82-16.17-3.06-5.94-4.13-6.53-10.92-5.77A2.42,2.42,0,0,1,484,584a1.26,1.26,0,0,1,.08-1.63l2.24-.77A6.11,6.11,0,0,1,490.77,581.6Z" transform="translate(-263.32 -552.36)"/><path class="cls-64" d="M451.86,583.83l.75-.75a1.17,1.17,0,0,1,1.47-.17,1.34,1.34,0,0,1,.2,1,2,2,0,0,1-.3.68c-1.49,1.79-1.94,4.67-4.38,5.37-3,.87-3.48-2.63-5.31-3.89a17.4,17.4,0,0,0-3.19-1.89c-7.25-2.63-14.74-1.43-22.15-1.38-1,0-2,.32-2.89-.23a1.21,1.21,0,0,1-.11-1.76h0a65.82,65.82,0,0,1,20.2-.74c.79,1.08,2,.64,3,.74a15,15,0,0,1,5.67,2.43C447.09,585.11,449.37,585.4,451.86,583.83Z" transform="translate(-263.32 -552.36)"/><path class="cls-47" d="M416,580.84v1.47a1.61,1.61,0,0,1-.81,1.18,5.07,5.07,0,0,1-.91.36,4.85,4.85,0,0,0-2.52,1.34c-1.38,1.34-2.76,1.41-4.17,0a6.09,6.09,0,0,0-2.52-1.46,41.48,41.48,0,0,1-4.05-1.59c-2.32-.63-4.67-.21-7-.3-2.12,0-4.24,0-6.36,0-2.61-.22-5.28.44-7.83-.58l-.48-.47a43.51,43.51,0,0,1,27.91,1.25c2.24.82,3.19,1.48,4.88-.34C413,580.73,414.56,580.75,416,580.84Z" transform="translate(-263.32 -552.36)"/><path class="cls-47" d="M358.23,580.89c-.24-.5-.49-1-.74-1.5,4.84,0,9.5.76,13.51,3.64a1.38,1.38,0,0,0,2.17-.21,7.14,7.14,0,0,1,6.11-2h0l.25.51a1.88,1.88,0,0,1-.64.92c-4.15,2.79-8,6-13,.75C364.28,581.27,360.65,582.32,358.23,580.89Z" transform="translate(-263.32 -552.36)"/><path class="cls-64" d="M466.08,589.07v2.25a.73.73,0,0,1-.89.14c-1.22-1-1.15-2.64-1.93-3.85a22.19,22.19,0,0,0-1.37-1.82,5.37,5.37,0,0,0-1.09-.8,17.82,17.82,0,0,0-4.27-.94,3.41,3.41,0,0,1-2.41-.95h0c-.23-2,1.81-.53,2.24-1.5C462.37,581.61,464.07,582.91,466.08,589.07Z" transform="translate(-263.32 -552.36)"/><path class="cls-47" d="M451.86,583.83c-1.88,2.64-3.76,3-6.38.66-1.79-1.58-4.2-2.46-6.34-3.65a5.83,5.83,0,0,1,4.26,1C446,583.87,448.84,584,451.86,583.83Z" transform="translate(-263.32 -552.36)"/><path class="cls-65" d="M484,582.36v1.5c.18,1.66-.55,2.42-2.24,2.23l-1.52,0A4.34,4.34,0,0,1,484,582.36Z" transform="translate(-263.32 -552.36)"/><path class="cls-47" d="M456.35,581.59l-2.24,1.5h-1.5C453.36,581.35,454.91,581.6,456.35,581.59Z" transform="translate(-263.32 -552.36)"/><path class="cls-66" d="M490.77,581.6h-4.49a1.56,1.56,0,0,1,1.5-.75C488.81,581,490,580.49,490.77,581.6Z" transform="translate(-263.32 -552.36)"/><path class="cls-65" d="M358.23,580.89c4.49,0,8.89.18,12.06,4,1.24,1.51,2.34.93,3.31-.28a8.62,8.62,0,0,1,5.69-3,1.51,1.51,0,0,1,.43.86,2.13,2.13,0,0,1-.27.93c-.89,1.18-2.58,1.25-3.43,2.48a8.24,8.24,0,0,0-1.43,3.09c-.49,1.81.73,3,1.52,4.36a4.88,4.88,0,0,1-2.33,7.07,2.17,2.17,0,0,1-2.72-.33c-1.36-1.53-3.09-2.94-2.64-5.38.27-1.45.95-2.81.9-4.32a7.85,7.85,0,0,0-1.53-5.21l-.69-.79c-2.49-1.81-5.76-.26-8.29-1.9a1.57,1.57,0,0,1-.47-.13Z" transform="translate(-263.32 -552.36)"/><path class="cls-67" d="M343.49,622l10.25.25c.25,1.59-.22,2.67-2,2.78a43.13,43.13,0,0,1-9.09-1.56C342.22,622.61,342.86,622.32,343.49,622Z" transform="translate(-263.32 -552.36)"/><path class="cls-68" d="M351.72,625.07c1.12-.61,1.28-1.91,2-2.79,1.07,0,2.26-.67,3.12.55,0,.21-.05.42-.08.63l-2.95,3c-.86,0-1.77.09-2.3-.83C351.59,625.45,351.65,625.26,351.72,625.07Z" transform="translate(-263.32 -552.36)"/><path class="cls-69" d="M343.49,622l-.86,1.47-2.49,2.84c-.7.07-1.44.26-1.85-.58,0-1.2,1-1.8,1.64-2.66s1-1.53,2-1.73Z" transform="translate(-263.32 -552.36)"/><path class="cls-70" d="M365.81,622.73a12.31,12.31,0,0,1-6.75,1.51l.79-2,4.33-.35a1.55,1.55,0,0,1,1.57-.16.64.64,0,0,1,.22.62C365.92,622.62,365.87,622.73,365.81,622.73Z" transform="translate(-263.32 -552.36)"/><path class="cls-49" d="M446.63,625c-2.5.15-5,3-7.49,0,1.24-1.44,3.19-.59,4.61-1.46a12.73,12.73,0,0,0,3.73-3.55c1.84-2.83,2.47-2.8,4.42,0a15.24,15.24,0,0,1,1.66,2.47,1.69,1.69,0,0,1,0,1c-.26.27-.72.58-.94.41C450.17,622,448.37,623.3,446.63,625Z" transform="translate(-263.32 -552.36)"/><path class="cls-71" d="M444.39,624.24c-1.58,1.43-3.51.45-5.25.76l-3-.77c-.77-1.43-2.63-2-3-3.73a1.16,1.16,0,0,1-.25-1.38,1,1,0,0,1,.9-.32c2.31,1,3.67,3.41,6.13,4.2C441.38,623.57,443.17,622.9,444.39,624.24Z" transform="translate(-263.32 -552.36)"/><path class="cls-62" d="M453.35,623.49v-.74a1.67,1.67,0,0,1,1-.49c2.55.49,5.13,0,7.69.13a1.05,1.05,0,0,1,.58.84c-.58,1.51-2.42,1.37-3.28,2.5-1.58.28-3-.53-4.49-.73l-.73,0C453.7,624.57,452.89,624.36,453.35,623.49Z" transform="translate(-263.32 -552.36)"/><path class="cls-47" d="M453.35,623.49l.77,1.49c-2.5-.48-5-2.21-7.49,0C448.22,621.57,450.63,621.81,453.35,623.49Z" transform="translate(-263.32 -552.36)"/><path class="cls-48" d="M481,622.74c4.5-5.58,13.8-5.16,16.47.75L495.26,622c-4-2.45-8-1.11-12,0l-.75.74A1,1,0,0,1,481,622.74Z" transform="translate(-263.32 -552.36)"/><path class="cls-49" d="M481,622.74h1.5a11.15,11.15,0,0,1-13.47,1.51c-.21-.71.05-1,.75-.75C473.76,626.22,477.41,624.65,481,622.74Z" transform="translate(-263.32 -552.36)"/><path class="cls-72" d="M469.82,623.5l-.75.75-1.49-.76c-1-1.3-2-1.16-3,0h-1.49c-.25.31-.51.31-.75,0v-.76c-.47-1,.37-1.51.89-2.12.76-.65,1.27-1.59,2.25-2s1.61.37,2.11,1.12Z" transform="translate(-263.32 -552.36)"/><path class="cls-49" d="M483.29,622c2.77-2.32,10-2.32,12,0C491.27,620.57,487.28,621.7,483.29,622Z" transform="translate(-263.32 -552.36)"/><path class="cls-49" d="M464.58,623.49c.12-1.23.6-2.25,2-2.08,1.19.15.9,1.26,1,2.08Z" transform="translate(-263.32 -552.36)"/><path class="cls-49" d="M462.34,623.49h.75a4.6,4.6,0,0,1-3.75,2.23C459.47,623.82,461.4,624.32,462.34,623.49Z" transform="translate(-263.32 -552.36)"/><path class="cls-48" d="M508.74,622c1.3-3,.31-5.8-.55-8.64-2.53-8.3-5.87-16.29-9.19-24.29l2.25,2.25c3.95,8.23,7.25,16.71,8.89,25.72C510.44,618.7,511,620.85,508.74,622Z" transform="translate(-263.32 -552.36)"/><path class="cls-73" d="M294,586.08c-.57-4.37,3.22-5.56,5.83-6.7,7.57-3.32,15.44-4.24,23.53-1.25,2.48.92,5.32.86,8,1.21,1.07.14,2.27-.29,3.07.83a3.18,3.18,0,0,1,1.26,2.71c-1.45,2.76-3.73,2.2-5.66,1a23.88,23.88,0,0,0-13.81-3.52c-3.72.11-7.47-.31-11.16.18a13.81,13.81,0,0,0-9.9,5.83A1.26,1.26,0,0,1,294,586.08Z" transform="translate(-263.32 -552.36)"/><path class="cls-39" d="M340.32,623.38c-.68.8-1.36,1.59-2,2.39-5.05-2-9.62.62-14.37,1.46-1.12.89-2.63-.17-3.74.75A35.85,35.85,0,0,1,309,628h-3.74c-.53-.88-1.42-.72-2.24-.75-.62-.56-1.68-.36-2.1-1.26-.35-.64-.62-1.28-.07-2a2.17,2.17,0,0,1,1.58-.19,28.89,28.89,0,0,0,4.16,1.36c6.5,1.92,12.88.83,19.25-.71a46.86,46.86,0,0,0,3.84-2.88c2.39-1.9,4.71-1.64,7,.23.81.65,1.76.34,2.65.36C339.85,622.36,340.61,622.41,340.32,623.38Z" transform="translate(-263.32 -552.36)"/><path class="cls-74" d="M294,586.08h.75c1.26,4.58,2.82,8.92.88,14a20.49,20.49,0,0,0-.79,11.33c.36,1.75.84,3.64.32,5.51-.72,1.07-1.33.68-1.91-.15a22.82,22.82,0,0,1-1-14.13C293.74,597.15,292.4,591.48,294,586.08Z" transform="translate(-263.32 -552.36)"/><path class="cls-75" d="M285.8,607.87a14.19,14.19,0,0,0,2-8.43c-.19-2.26.72-4.78,1.37-7.06s-.38-3.12-1.9-4c2-1.07,2.12-4,4.62-4.49.86.82.58,1.77.39,2.76-1.41,7.56-2.78,15.12-4.17,22.67C287,609.27,286.51,608.42,285.8,607.87Z" transform="translate(-263.32 -552.36)"/><path class="cls-76" d="M303.87,573.36a9.5,9.5,0,0,0,5.83-.6c2.2-1.81,4.45-1.65,6.73-.17a7.5,7.5,0,0,0,6.07.64c2.51,0,4.92.29,5.89,3.18-.68.87-1.47.58-2.34.29-8.3-2.7-16.59-3.74-24.87.12-.51.24-.94-.08-1.23-.54C300.35,574.09,302.35,574.05,303.87,573.36Z" transform="translate(-263.32 -552.36)"/><path class="cls-59" d="M319.43,631.72c2.74.71,5.18-.56,7.66-1.3,1.38-.42,2.51-.82,3.54.49-2.66,2-6,2.37-9,3.79a15.23,15.23,0,0,0-10.5.08l-1.47-.1v-1.43c1.51-.45,3.31.83,4.63-.78,1-1.25,2.45-.26,3.6-.75Z" transform="translate(-263.32 -552.36)"/><path class="cls-58" d="M293.24,616.76l1.5.75.4.32c1.42,3.19,3.88,5.55,6.33,7.91l1.5,1.49C298.09,626.41,294.16,622.18,293.24,616.76Z" transform="translate(-263.32 -552.36)"/><path class="cls-77" d="M291.87,583.84c-2.07,1-1.25,4.88-4.62,4.49,1-3,2.28-5.67,5.06-7.38C292.9,582,292.26,582.92,291.87,583.84Z" transform="translate(-263.32 -552.36)"/><path class="cls-78" d="M328.39,576.41c-1.64-1.65-4.05-1.9-5.89-3.18.55-1.62,1.62-1.15,2.7-.66a21,21,0,0,1,5.53,3C330.32,577,329.28,576.44,328.39,576.41Z" transform="translate(-263.32 -552.36)"/><path class="cls-79" d="M303.87,573.36c-.55,2-3,1.43-3.92,2.92-1.26.45-2.14,1.82-3.71,1.56C297.7,574.49,300.3,573.11,303.87,573.36Z" transform="translate(-263.32 -552.36)"/><path class="cls-80" d="M285.8,607.87c1.35-.5,1.73.61,2.29,1.4.58,1.46,1.11,3,1.77,4.38.58,1.27.24,1.84-1.12,1.88A24.53,24.53,0,0,1,285.8,607.87Z" transform="translate(-263.32 -552.36)"/><path class="cls-81" d="M335.18,582.29c-.33-.68-1-1.23-.76-2.12,1.43-.48,1.88,1.15,3,1.39.62.87,1,1.93,2.2,2.27a1.16,1.16,0,0,1,.3,1.44,1.8,1.8,0,0,1-1.37.67,2.73,2.73,0,0,1-1-.21,4.42,4.42,0,0,1-1.28-1.44C335.82,583.67,335.64,582.9,335.18,582.29Z" transform="translate(-263.32 -552.36)"/><path class="cls-50" d="M317.93,631.72c-1,1.24-2.39.58-3.6.75a2.2,2.2,0,0,1-.15-.72c-.26-.18-.34-.35-.25-.52s.18-.25.27-.25A6.06,6.06,0,0,1,317.93,631.72Z" transform="translate(-263.32 -552.36)"/><path class="cls-58" d="M314.2,631l0,.77c-1.3-.39-2.77.22-4-.69Z" transform="translate(-263.32 -552.36)"/><path class="cls-82" d="M316.43,572.59a24.48,24.48,0,0,0-6.73.17c-1-.25-2.38-.78-.76-1.62a10.8,10.8,0,0,1,7.89-.4C318.07,571.08,317.2,572.07,316.43,572.59Z" transform="translate(-263.32 -552.36)"/><path class="cls-83" d="M285.46,603.07c-1.71-3.42-.66-6-.39-8.46a.76.76,0,0,1,1.06-.69c.26.12.61.58.57.82C286.24,597.21,287,599.89,285.46,603.07Z" transform="translate(-263.32 -552.36)"/><path class="cls-84" d="M339.68,585.31l-.09-1.48c.1-.3.2-.6.29-.89l2.07,2.35-1.1.91A1.22,1.22,0,0,1,339.68,585.31Z" transform="translate(-263.32 -552.36)"/><path class="cls-74" d="M309,628h11.23A17.69,17.69,0,0,1,309,628Z" transform="translate(-263.32 -552.36)"/><path class="cls-74" d="M320.18,628c1-1.24,2.48-.57,3.74-.75C322.87,628.48,321.44,627.8,320.18,628Z" transform="translate(-263.32 -552.36)"/><path class="cls-85" d="M348.72,605.49l1.48,1c2.82.34,5.69.16,8.51.7a4.68,4.68,0,0,1-.55,5.23,18.56,18.56,0,0,1-9.3,1.49,4.31,4.31,0,0,1-3.6-2.26c-.41-2.66.52-5,1.52-7.41C348.4,603.17,347.94,605.27,348.72,605.49Z" transform="translate(-263.32 -552.36)"/><path class="cls-86" d="M339.53,586.87A16.31,16.31,0,0,0,336,597.93c.1,3.85.09,7.7,0,11.54a18.33,18.33,0,0,0,3,10.18c.12.91-.38,1.1-1.14,1-3.4-1.91-4.42-5.32-4.89-8.75a66.51,66.51,0,0,1,0-16.68c.4-3.41,1.62-6.76,4.59-9C338.41,585.73,339.13,585.86,339.53,586.87Z" transform="translate(-263.32 -552.36)"/><path class="cls-87" d="M365.81,622l-1.63,0a7.81,7.81,0,0,0,3.33-6.27c.07-4.43.05-8.86.05-13.28,0-1.47-.36-2.7-2-3.06-1.65-.55-4.74.83-4-3a1.43,1.43,0,0,1,.79-.81,7.9,7.9,0,0,1,7.41,5,25.34,25.34,0,0,1,.57,15C369.33,618,368.86,620.89,365.81,622Z" transform="translate(-263.32 -552.36)"/><path class="cls-88" d="M347.13,592.82a1.05,1.05,0,0,1,.72.1c1.35,1.32,2.68.87,4,0,2.49.15,5.06-.66,7.46.6,1.51,4.7.88,5.64-3.73,5.7a24.43,24.43,0,0,0-5.2.17,2.61,2.61,0,0,0-1.77,1.71c-2.61-.64-1.31-3.17-2.25-4.62C346.19,595.14,346,593.85,347.13,592.82Z" transform="translate(-263.32 -552.36)"/><path class="cls-89" d="M347.13,592.82c.05,1.26.09,2.52.14,3.79,0,2.51,1.05,5,0,7.54l-1.61,7.37a1.68,1.68,0,0,1-1,2.23c-1.76-1.21-2.07-3-2-5,.18-3.34-.51-6.71.41-10l.51.33c1.59,3.29.31,6.68.2,10a70.7,70.7,0,0,0,.71-12.76c.08-1.16-.56-2.38.33-3.46C345.63,592.44,346.35,591.69,347.13,592.82Z" transform="translate(-263.32 -552.36)"/><path class="cls-90" d="M357.59,612.28a7.64,7.64,0,0,0,.65-5.23c-.22-.19-.27-.33-.16-.43a.44.44,0,0,1,.3-.12c3.48-.16,2.51,2.45,2.71,4.34a9.12,9.12,0,0,1-1.31,3.71c-4.67.65-9.34,1.26-14,.06,1.82-1.62,4-.55,6-.83S356,614.23,357.59,612.28Z" transform="translate(-263.32 -552.36)"/><path class="cls-91" d="M350.4,599.35c1.21-.86,2.6-.44,3.89-.46,5.22-.11,5.22-.08,4.61-5.3a1.14,1.14,0,0,1,0-1.37h2.46a3.77,3.77,0,0,1,.62,3.64c-.79,3.15,1.85,2.83,3.53,3.48Z" transform="translate(-263.32 -552.36)"/><path class="cls-87" d="M362,595.85c-.85-1.11-.42-2.43-.62-3.64.49-.05,1-.14,1.47-.15,5.06-.19,6.21-2.59,3.5-7.35a1.11,1.11,0,0,1,1.7-.12h0a8.54,8.54,0,0,1,1.38,6.23c-1.43,3.07-4.09,4.33-7.21,4.92Z" transform="translate(-263.32 -552.36)"/><path class="cls-92" d="M357.59,612.28c0,2.11-1.4,2.24-3,2.23-2.95,0-5.89.06-8.83.1l-1-.86,1-2.23c2.35,2.26,5.38,1.85,8,1.23C355,612.41,356.35,612.89,357.59,612.28Z" transform="translate(-263.32 -552.36)"/><path class="cls-93" d="M368.06,584.59l-1.7.12-7.11-.25c-.14-.67-.29-1.33-.43-2C362,582.61,365.61,581.13,368.06,584.59Z" transform="translate(-263.32 -552.36)"/><path class="cls-94" d="M358.93,592.22l0,1.37-8.06,0c-.57-.27-1-.61-.6-1.33A41.38,41.38,0,0,1,358.93,592.22Z" transform="translate(-263.32 -552.36)"/><path class="cls-95" d="M347.28,604.15c0-2.52,0-5,0-7.55,1.29,1.24-.15,3.3,1.36,4.46l.09,4.43Z" transform="translate(-263.32 -552.36)"/><path class="cls-96" d="M350.24,592.23l.6,1.33c-.24.86.41,2.47-.63,2.47-1.59,0-1.39-2.16-2.36-3.11A2.9,2.9,0,0,1,350.24,592.23Z" transform="translate(-263.32 -552.36)"/><path class="cls-97" d="M358.38,606.5a2.61,2.61,0,0,1-.14.55c-2.79,1.27-5.38-.2-8.05-.58Z" transform="translate(-263.32 -552.36)"/><path class="cls-98" d="M338,620.28l1-.63,1.35,1c.29,1.25-.66,1.57-1.48,2s-1.49,1.52-2.32.1a1.22,1.22,0,0,1-.18-.91C336.68,621.07,337,620.31,338,620.28Z" transform="translate(-263.32 -552.36)"/><path class="cls-99" d="M344.9,592.89l.56,3c-1.1.7-.07,2.75-1.89,3a1.54,1.54,0,0,1-.42-.07C343.78,596.83,342.11,594.2,344.9,592.89Z" transform="translate(-263.32 -552.36)"/><path class="cls-67" d="M338.85,622.63l1.48-2,1.62.74-1.63,2Z" transform="translate(-263.32 -552.36)"/><path class="cls-100" d="M359.78,614.55a5.63,5.63,0,0,1,1.31-3.71C361.24,612.29,361.71,613.84,359.78,614.55Z" transform="translate(-263.32 -552.36)"/><path class="cls-101" d="M339.53,586.87l-1.4-.75a.49.49,0,0,1-.21-.47c0-.17.08-.26.12-.26l1.64-.08c.39.3.79.59,1.17.89C340.59,586.78,340.08,586.86,339.53,586.87Z" transform="translate(-263.32 -552.36)"/><path class="cls-102" d="M470.66,621.79a.54.54,0,0,0-.13-.54,3.3,3.3,0,0,1-.61-2.73,22.12,22.12,0,0,1,2.71-7.2c1.71-1.94,2.2-4.47,3.18-6.76a7.55,7.55,0,0,1,.38-.93,24.78,24.78,0,0,0,1.47-3.81c1.79-4.2,3.35-8.49,5.27-12.64,1.86-2.72,4.36-3.91,7.65-3.2,4.53,1.54,5,6,6.76,9.49,2.11,5.52,4.23,11,6.7,16.41,1,3.31,2.88,6.33,3.43,9.8a1.83,1.83,0,0,1-1,2.31h0c-4.42,1.46-5.84,1.07-8.09-2.19a48.39,48.39,0,0,0-3.25-7.24c-.87-3.95-3-7.42-4.43-11.14-.06-1.58-1-2.87-1.46-4.32-1.75-1-1,1-1.55,1.36-.84,1.88-1.5,3.82-2.27,5.72-.58,1.37-.95,2.62,1.26,2.7a6.59,6.59,0,0,1,2.48.44c1.54.9,2.08,2.51,2.78,4a3.54,3.54,0,0,1,.22,1.12c-.66,3.84-3.75,3.05-6.19,3-3.15,0-5.7.46-6.45,4.05a4.75,4.75,0,0,1-2.25,2.5h0C475.05,623,472.83,623.3,470.66,621.79Z" transform="translate(-263.32 -552.36)"/><path class="cls-103" d="M506.48,622c.23-.71.46-1.42.7-2.12A57.57,57.57,0,0,0,503,608.25c-2-4.76-3.82-9.58-5.85-14.32-1.5-3.36-2-7.33-5.8-9.24-1.72-1-3.6-.23-5.39-.5l-.42-.36c5.11-1.85,8.48-.66,10.9,3.84,4.74,8.79,7.85,18.25,11.16,27.62.85,2.41.3,4.94.37,7.42Z" transform="translate(-263.32 -552.36)"/><path class="cls-104" d="M483.46,587.64a99,99,0,0,1-5.24,12.71c-1,1.07-1.08,2.51-1.57,3.79l0,0c-1.48,2.28-2.05,4.93-3.14,7.38-1,2.3-1.94,4.61-2.92,6.91-1.12-1-.69-2.26-.8-3.44a5.27,5.27,0,0,1,.68-2.77,7.23,7.23,0,0,0,1.66-3.86,8.4,8.4,0,0,1,1.62-3.95c2.14-3.24,3.11-7,4.72-10.48.67-1.44,1.15-3,2.5-4.09.26-.73.53-1.46.8-2.2a1.23,1.23,0,0,1,.84-.43A1.27,1.27,0,0,1,483.46,587.64Z" transform="translate(-263.32 -552.36)"/><path class="cls-105" d="M498.93,619c1.29,4.12,4.74,2.74,7.55,3l-.73.78a8.67,8.67,0,0,1-5.26,0c-2.57-.43-3.46-2.54-4.49-4.5s-2.55-2.61-4.86-1.62a13.63,13.63,0,0,1-5.65,1.24c-3.1-.09-4.46,2.74-6.69,4.12l-1.52,0,1.43-2.27c1.74-3.25,4.49-4.48,8.13-4.52,1.91,0,4.33.4,5.26-2.25,2.36-1.49,3.4.54,4.49,1.87S498.05,617.67,498.93,619Z" transform="translate(-263.32 -552.36)"/><path class="cls-66" d="M472.81,601.05a6.52,6.52,0,0,1-.93.58c-1.37.51-1,3.48-3.46,2.42-2.16-.92-1.46-2.86-1.59-4.5,1.81.22,3.84,2,5.23-.75,1-1.23,1.46-2.93,3-3.74,0,.75,0,1.49,0,2.24-.94,1.13-1.34,2.59-2.24,3.75Z" transform="translate(-263.32 -552.36)"/><path class="cls-106" d="M478.8,622c1.86-2.79,4.17-4.64,7.82-4.63a12.28,12.28,0,0,0,4.89-1.4c2.63-1.23,3.92-.28,4.49,2.29a5.62,5.62,0,0,0-5.1-1C486.51,618.08,482.4,619.29,478.8,622Z" transform="translate(-263.32 -552.36)"/><path class="cls-107" d="M481,589.79c-2.81,4.74-3.55,10.4-6.7,15a1.78,1.78,0,0,1,0-2.24C476.39,598.21,477,593.1,481,589.79Z" transform="translate(-263.32 -552.36)"/><path class="cls-108" d="M474.31,602.54v2.24a4.52,4.52,0,0,0-1.5,3.75c-.68,1.17-.87,2.54-1.49,3.73-.87.55-.71,1.43-.74,2.25-1.05,2.16.23,4.58-.76,6.74a8.48,8.48,0,0,1-.52-7.19C470.56,610.1,471.64,605.94,474.31,602.54Z" transform="translate(-263.32 -552.36)"/><path class="cls-105" d="M470.66,621.79l6.63.18C475,624.3,472.79,624.58,470.66,621.79Z" transform="translate(-263.32 -552.36)"/><path class="cls-107" d="M469.82,621.25c.33-2.24-.76-4.63.76-6.74,0,1.29,0,2.58.05,3.87,0,1-.07,1.92-.1,2.87h-.71Z" transform="translate(-263.32 -552.36)"/><path class="cls-103" d="M482.54,587.57l-.73,0c0-.5,0-1,0-1.5a4.91,4.91,0,0,0,2.24-2.24l1.49,0,0,0C485.59,585.94,483.68,586.45,482.54,587.57Z" transform="translate(-263.32 -552.36)"/><path class="cls-65" d="M472.81,601.05a4.7,4.7,0,0,1,2.24-3.75A4.61,4.61,0,0,1,472.81,601.05Z" transform="translate(-263.32 -552.36)"/><path class="cls-106" d="M500.49,622.76h5.26A4.43,4.43,0,0,1,500.49,622.76Z" transform="translate(-263.32 -552.36)"/><path class="cls-66" d="M476.56,592.82c-.08-1.28.13-2.43,1.49-3A4.16,4.16,0,0,1,476.56,592.82Z" transform="translate(-263.32 -552.36)"/><path class="cls-109" d="M454.12,583.1l3,0c-7.69,7.91-5.66,17.7-5.22,27.15.08,1.73.46,3.44-.15,5.14-1.5,1.83-1.8.13-2.09-.82-.6-2-.58-4.12-1.49-6.22-1.71.84-1.1,2.54-1.81,3.59a1.07,1.07,0,0,1-.91.58,1.36,1.36,0,0,1-.85-.72,11.4,11.4,0,0,1-.34-4.61,10.35,10.35,0,0,1,2.3-5.08c2.32-2.91,1.48-6,.52-9.12-.14-.3-.26-.61-.38-.91-.64-1.64-1-3.42-2.64-4.49a6.46,6.46,0,0,1-1-1.07c-.48-.82-1.37-1.52-.88-2.67,2.44.42,3.78,2.37,4.94,4.14,1.77,2.71,2.78,1.51,4-.3C452.07,586.15,453.1,584.62,454.12,583.1Z" transform="translate(-263.32 -552.36)"/><path class="cls-110" d="M442.14,583.83l1.48,2.29a1.41,1.41,0,0,1-1.39.31c-6.56-3.12-13.57-2.2-20.46-2.29-2.21-.27-4.61.66-6.59-1.06l.76-.77a72.49,72.49,0,0,1,22.49,0A6.65,6.65,0,0,1,442.14,583.83Z" transform="translate(-263.32 -552.36)"/><path class="cls-66" d="M466.08,595.81h-.75a3.16,3.16,0,0,1,0-4.48h.75Z" transform="translate(-263.32 -552.36)"/><path class="cls-111" d="M415.18,583.08h6.76c-.67,2.62-3.16,1.18-4.6,2.07-3.14,1.94-3.38,2.87-1.58,6.3a10.71,10.71,0,0,0,3.25,1.69c1.2.32,2.36.77,3.58,1,.84.18,1.79.47,1.83,1.55.05,1.3-1.05,1.51-2,1.76-.48.13-1,.2-1.45.32-7.23,1.88-9.37,5.25-8.14,12.82.44,2.69.8,5.4-.18,8.06-.48.61-1,.52-1.48,0-.8-1.19-.51-2.65-1-3.92a7.55,7.55,0,0,1-.27-1.14c-.24-3.93-.46-7.85.68-11.7a6.51,6.51,0,0,1,.36-1.05,10.47,10.47,0,0,1,5.25-5c-4.07-2.81-5.91-6.1-4-10.59.36-1.15,1.39-1.59,2.29-2.17Z" transform="translate(-263.32 -552.36)"/><path class="cls-112" d="M379.29,582.35v-.75h0c2.67-1,5.56.3,8.23-.75h6.73c2.41,1.07,5.07-.27,7.48.75l3.74,1.5c.49.43,1.2.74.84,1.61a2,2,0,0,1-.95.36,10.29,10.29,0,0,1-2.06-.33,13.11,13.11,0,0,1-3-1.05c-2.35-.75-4.82,0-7.17-.62a6.15,6.15,0,0,0-4.39,0,10.11,10.11,0,0,1-1.82.26C384.34,583.13,381.64,584.08,379.29,582.35Z" transform="translate(-263.32 -552.36)"/><path class="cls-72" d="M406.22,584.59l-.75-1.5a2.84,2.84,0,0,1,2.43,1.34c1.17,1.66,2.33,1.19,3.56.15a1.49,1.49,0,0,1,.44,1.37,3.75,3.75,0,0,1-.39.92c-2.37,2.52-2.37,2.52-5-.91C406.19,585.55,405.91,585.13,406.22,584.59Z" transform="translate(-263.32 -552.36)"/><path class="cls-72" d="M387.52,580.84c-2.62,1.6-5.5.36-8.23.75v-.74Z" transform="translate(-263.32 -552.36)"/><path class="cls-72" d="M401.73,581.59c-2.48-.34-5.11.77-7.48-.75C396.74,581.18,399.37,580.07,401.73,581.59Z" transform="translate(-263.32 -552.36)"/><path class="cls-112" d="M411.46,586.08v-1.5c.58-1.36,1.72-1.58,3-1.47L413,585.33C412.54,585.75,412.31,586.52,411.46,586.08Z" transform="translate(-263.32 -552.36)"/><path class="cls-110" d="M451.12,616c-.14-6-1.06-12-.81-18.11a50.84,50.84,0,0,1,1.18-8,8.77,8.77,0,0,1,5.61-6.8c1.5.52,3.2.44,4.53,1.46a2.65,2.65,0,0,1-1.64,1c-4.21.78-4.72,1.27-4.76,5.55-.08,8.42-.1,16.84,0,25.27.06,4.38,1.33,5.14,5.57,3.64,1.8-1.56,2-3.67,1.91-5.8-.3-8.81.9-17.67-1-26.42a2.49,2.49,0,0,1,.61-2.43l1.46,1.53c1.77,4.34.6,9,1.51,13.46h0a45.09,45.09,0,0,1,0,16.46h0c-.6,1.46-.67,3.1-1.5,4.48l-1.5,1.49c-2.74.77-5.48,1.4-8.22,0C452,621,450.24,619.09,451.12,616Z" transform="translate(-263.32 -552.36)"/><path class="cls-113" d="M459.92,584.68l1.71-.14.73.77c2.43,9.78,1.26,19.73,1.43,29.61,0,2.29-.21,4.72-2.5,6.19-1.08-1.55-.84-3.35-.85-5.07,0-7.6-.09-15.21,0-22.81C460.5,590.35,459.92,587.54,459.92,584.68Z" transform="translate(-263.32 -552.36)"/><path class="cls-111" d="M401,583.08a5.33,5.33,0,0,0,3,.77.74.74,0,0,1-.21,1.08c-3.35,1.36-6.86.57-10.29.7-3.84.14-7.68-.06-11.52.06-4.15.13-4.82,1.18-3.74,5.43a3.17,3.17,0,0,1,.31,2.39,1.82,1.82,0,0,1-1.67.53,4.61,4.61,0,0,1-2.76-4.28,17.67,17.67,0,0,1,1.44-4.43c.65-1.74,2.56-1.38,3.73-2.25,2.76-.74,5.57-.18,8.35-.35A69.66,69.66,0,0,1,401,583.08Z" transform="translate(-263.32 -552.36)"/><path class="cls-109" d="M374.8,589.82a3.57,3.57,0,0,0,2.24,3.75c1.47.89,3.8,1.32,2,3.9-1.66,1.47-3.63,2.64-4.72,4.7-2.13,2.36-3.44,1.17-4.52-1a7,7,0,0,0-1.52-2.5c-3-3.35-3-3.36.25-6.69,1.14-.25-.08-2.45,1.75-2.13a7.06,7.06,0,0,1-.74,4c-1.52,2.92,1,4.41,2.4,5.94,1.13,1.2,2-.7,2.91-1.43,1.52-1.3,1.94-2.76.53-4.52-1.26-1.57-3.16-3.09-1.36-5.46C374.57,588.69,374.29,589.45,374.8,589.82Z" transform="translate(-263.32 -552.36)"/><path class="cls-93" d="M370.31,589.82c-.5.75-1,1.5-1.49,2.25-.23-.17-.31-.33-.24-.5s.15-.26.23-.26a17.18,17.18,0,0,0-.75-6.72C370.07,585.79,370,587.89,370.31,589.82Z" transform="translate(-263.32 -552.36)"/><path class="cls-106" d="M387.5,583.08h-8.23c0-.25,0-.49,0-.73h8.23c.24.17.32.33.24.5S387.59,583.08,387.5,583.08Z" transform="translate(-263.32 -552.36)"/><path class="cls-106" d="M374.8,589.82a1.55,1.55,0,0,1-.75-1.49,4.1,4.1,0,0,1,1.49-3C375.29,586.82,375,588.32,374.8,589.82Z" transform="translate(-263.32 -552.36)"/><path class="cls-71" d="M424.18,620.5a2.27,2.27,0,0,1-2.24,1.5,1.64,1.64,0,0,1-.45-1.07,28,28,0,0,1,2-6c1.56-3.87,3.69-4.32,6.7-1.28,1.43,1.44,4,2.47,3,5.35h0c-.52.26-.92,0-1.34-.3C427.28,615.38,426.64,615.53,424.18,620.5Z" transform="translate(-263.32 -552.36)"/><path class="cls-71" d="M424.18,620.5c.93-5.52,2.77-6.33,7-3.07.67.51,1.32,1.05,2,1.58,0,.49,0,1,0,1.49a4.29,4.29,0,0,1-.63-.36C428.25,616.45,428.25,616.44,424.18,620.5Z" transform="translate(-263.32 -552.36)"/><path class="cls-114" d="M421.92,621.23c0,.26,0,.52,0,.77-1.08,3.21-3.83,1.94-6,2.24,0-.24,0-.49,0-.74,1.15-1.27,3.12-.67,4.29-1.89a3.67,3.67,0,0,1,.8-.55A.85.85,0,0,1,421.92,621.23Z" transform="translate(-263.32 -552.36)"/><path class="cls-87" d="M412.2,619c1-4.66-1.16-9.18-.35-14,.83-5,3.44-7,7.89-7.87,1.38-.26,2.72-.71,4.74-1.24-2.43-1.28-4.79-.75-6.29-2.35a2.94,2.94,0,0,1,2.69-1c3.18.38,6.36.65,9.55.85,1.36.09,2.87.64,2.94,2.27.09,1.92-1.54,2.46-3.05,2.48A77.17,77.17,0,0,0,419,599.4a9,9,0,0,0-2.23,1.14c-1.76,1.22-1.93,3.07-1.94,5,0,3.85,0,7.69,0,11.54a7.41,7.41,0,0,1-.71,4,.81.81,0,0,1-1.12.24,1.67,1.67,0,0,1-.77-1.51c-.24-.18-.32-.35-.23-.51S412.12,619,412.2,619Z" transform="translate(-263.32 -552.36)"/><path class="cls-114" d="M412.2,619l0,.75c-1.48,0-3-2.5-4.45,0-1.79-2-.21-4.77-1.74-6.79a5.62,5.62,0,0,1-.42-1,5.14,5.14,0,0,1,.08-3.57,12.07,12.07,0,0,0,.94-8.4c1.63-1.07,3.4-.29,5.11-.37a1.42,1.42,0,0,1-.23,1.45h0c-1.55,4.41-1.44,8.92-.75,13.46h0c.88,1.13-.17,2.63.75,3.75Z" transform="translate(-263.32 -552.36)"/><path class="cls-106" d="M370.31,601c1,1.45,2.09,2.48,3.73.75a2.53,2.53,0,0,1,.45,2.1c-.45,4.38-.45,8.69,1.81,12.69a2,2,0,0,1,0,2.44c-1.94-.47-1.92-3.83-4-3.34-1.84.43-1.87,3.05-3,4.51-.9,1.17-1.75,2.49-3.48,2.54V622a26.72,26.72,0,0,0,3.75-6c1.64-4.78,1.17-9.62.39-14.47Z" transform="translate(-263.32 -552.36)"/><path class="cls-111" d="M376.28,619c-2.92-5.46-4-11.16-2.24-17.23.42-2.57,2.53-3.46,4.49-4.49,1.32-.47,1.38-2.11,2.54-2.72,1.12-.34,2.29-.45,2.86.77s-.49,1.73-1.28,2.3a5.69,5.69,0,0,1-.84.62c-1.12.62-2.51.67-3.47,1.63a7.42,7.42,0,0,0-2.17,3.55c-.08.33-.18.64-.28,1-.13,3-.4,5.94.24,8.88,1,4.5,4.73,6.65,7.85,9.33a1,1,0,0,1-1.7.87C379.48,623.08,377.8,621.16,376.28,619Z" transform="translate(-263.32 -552.36)"/><path class="cls-115" d="M383.78,623.48v-.73c1-1,2.21-1,3.44-.73a35.15,35.15,0,0,0,14.26-.5,6.7,6.7,0,0,0,2.37-1.15,7,7,0,0,0-.15-6.75c-.19-.29-.36-.58-.52-.88-1.24-1.72-1.58-3.44-.05-5.19a3.51,3.51,0,0,1,.73-.76,2.2,2.2,0,0,1,1-.2,1.57,1.57,0,0,1,.87.52c.13,1.72-1.18,3.58.48,5.16h0c1.66,2.35,1.27,4.91.76,7.49a4.43,4.43,0,0,1-3.74,3.74A38.31,38.31,0,0,1,383.78,623.48Z" transform="translate(-263.32 -552.36)"/><path class="cls-116" d="M383.78,623.48c6.48,1.22,13,.87,19.46,0a32.76,32.76,0,0,1-21,0Z" transform="translate(-263.32 -552.36)"/><path class="cls-110" d="M412.94,621.27l.8,0a17.12,17.12,0,0,1,6.42.06,4.55,4.55,0,0,1,1,.63c-1.34,1.86-3.33,1.53-5.22,1.57C414.34,623.56,413.07,623.19,412.94,621.27Z" transform="translate(-263.32 -552.36)"/><path class="cls-110" d="M407,619.76c0-2.53.14-5.06-.76-7.49,2.86,2,.95,5,1.5,7.48Z" transform="translate(-263.32 -552.36)"/><path class="cls-117" d="M451.12,616a15.24,15.24,0,0,0,3,6.73h-.76c-1.86-.79-2.31-2.8-3.65-4.5-1.59,2.36-2.83,4.78-5.31,6-1.74-.3-3.67.7-5.25-.75,1.38-1.38,3.49-.54,4.95-1.64l.78-.52c.24-.2.48-.39.71-.6s.42-.47.6-.71c1.1-2.64-1.05-5.14-.3-7.75.16-2.1-.79-5.31,2.1-5.51s1,3.22,2,4.75C450.87,612.86,449.7,614.77,451.12,616Z" transform="translate(-263.32 -552.36)"/><path class="cls-111" d="M445.07,621.93c-1.54,2.16-3.85,1.42-5.93,1.56-2.53-.77-3.82-3.2-6-4.49-.71-2.89-3.23-4.32-5.19-6.11-1.63-1.49-2.68,0-3.31,1.46-1,2.27-1.84,4.58-2.75,6.88l-.64.06c-1.31-3.89-.12-7.56,1.4-11,1-2.21,4-2.38,6.61-.89,2.14,1.23,3.31,3.32,4.64,5.26,1.05,1.53,1.92,3.21,3.48,4.32C439.28,621.73,442.78,620.27,445.07,621.93Z" transform="translate(-263.32 -552.36)"/><path class="cls-62" d="M463.83,621.24a7.18,7.18,0,0,1,1.5-4.48V619Z" transform="translate(-263.32 -552.36)"/><path class="cls-49" d="M335.18,582.29l1.46,1.57c.74,3-1.48,4.33-3.51,5.28-2.22,1-2.93-1.2-3.75-2.63C328,584,325.71,583,323,582.58c-7.65-1.18-15.25-1.31-22.76.85a5.5,5.5,0,0,0-2.69,3.2,6.25,6.25,0,0,0,.29,5,7.44,7.44,0,0,1-.4,8.6,23.31,23.31,0,0,0-1.19,2.69c-1,3.26-.46,6.59-.38,9.89a8.7,8.7,0,0,1,.29,1c.32,3.1,2.16,5.35,4.12,7.56.75.85,2.22,1.26,1.92,2.83h-1.49c-3.4-1-4.78-3.79-6-6.73h0a42,42,0,0,1-.75-15.32,7.08,7.08,0,0,1,.47-2.5,7.87,7.87,0,0,0,.65-7.71c-.79-1.88-.24-3.93-.37-5.89,1.82-4.76,6.18-6.36,10.37-6.52,6.73-.26,13.61-1.33,20.29,1.07a19.18,19.18,0,0,1,4.94,2.36C331.94,584.14,333.93,585,335.18,582.29Z" transform="translate(-263.32 -552.36)"/><path class="cls-118" d="M302.21,624.25c-3.29-2.83-6.71-5.56-6.72-10.48,1.51-.23,1.5,1.22,2.17,1.93a13.16,13.16,0,0,0,7.95,7.45c4.06,1.45,8.26.55,12.39.81,1.79.12,3.71-.41,5.27,1-2.42,2.21-5.58,1.15-8.35,1.79-3,.69-6-.55-9-1A4.35,4.35,0,0,1,302.21,624.25Z" transform="translate(-263.32 -552.36)"/><path class="cls-49" d="M306,625.74c4.84.41,9.66,1.22,14.51,0,.92-.23,2,.16,2.7-.78a2,2,0,0,1,1-.66,2.71,2.71,0,0,1,2.77.66C320,627.14,313.05,628.45,306,625.74Z" transform="translate(-263.32 -552.36)"/><path class="cls-119" d="M336.69,622.07a1.69,1.69,0,0,1-.16.66c-2-2-4.25-2-6.62-.73a1.5,1.5,0,0,1-.43-1.42,4,4,0,0,1,.38-1c1.28-2.2,3.05-2.36,5.12-1.2C336.17,619.33,337.55,620.18,336.69,622.07Z" transform="translate(-263.32 -552.36)"/><path class="cls-74" d="M294.74,617.51c1.76,2.45,3.27,5.13,6,6.73l.75,1.5C298,624,295.13,621.76,294.74,617.51Z" transform="translate(-263.32 -552.36)"/><path class="cls-118" d="M329.9,620.5c0,.5,0,1,0,1.5-.53,1.47-2.1,1.9-3,3h-3c-.19-1.78,1.71-1.5,2.38-2.43.24-.21.5-.4.75-.6C328,621.41,328.47,620.05,329.9,620.5Z" transform="translate(-263.32 -552.36)"/><path class="cls-120" d="M329.9,620.5c-1.31.33-1.38,2.31-3,2.25a1.45,1.45,0,0,1-.27-1c2-3.29,2-6.54-.24-9.73-1.25-1.76-.37-3.18.61-4.74,1.44-2.32,2.1-4.76-.21-7a10.34,10.34,0,0,1-2-1.71c-1.55-1.74-1.82-3.47,0-5.2a23.49,23.49,0,0,1,2.33-2c1.36-1.07,1.17-2.28.33-3.55a2.07,2.07,0,0,1,.14-2.46c2.56.52,3.84,3.51,2.77,6.49-.38,1.07-1.23,1.89-1.59,3s-.09,2.22.94,2.53c1.55.46,1.37-1,1.45-1.9.46-4.4,2.84-7.6,6.27-10.15l.59.16c0,.25.07.49.09.73a20.39,20.39,0,0,0-4.53,14.49c.22,3.59-.16,7.22.22,10.78a14.69,14.69,0,0,0,4.19,8.89l-1.32,1.79A3.74,3.74,0,0,0,334.4,619c-1.09-1.43-2.58-2.6-2.74-3.61.46,1.41-1.05,3.16-1.76,5.11Z" transform="translate(-263.32 -552.36)"/><path class="cls-112" d="M337.45,585.23c-2.8,3.45-5.7,6.84-5.4,11.75a2.05,2.05,0,0,1-1.19,2.14c-1.47.38-2-1.19-2.89-1.91a1.88,1.88,0,0,1-.27-2.92c1.25-1.68,2.68-3.22,2.22-5.61-.29-1.48-.35-3-2.26-3.35l-.55,0c-2.82-1.43-6-1.64-9-2.38a32.6,32.6,0,0,0-10.57.14c-2.23.24-4.43.78-6.68.87a2.34,2.34,0,0,1-1.65-.83c1.92-2.44,4.89-1.58,7.29-1.91a51.32,51.32,0,0,1,18.4.69c2.26.52,4.48,1.69,5.34,4.2,1.21,3.57,2.8,3,4.72.57.68-.86,1.67-1.51,1.66-2.78Z" transform="translate(-263.32 -552.36)"/><path class="cls-106" d="M368.81,591.31c0,.25,0,.51,0,.76-2.6,2.4-2.7,4.65.37,6.76a2.6,2.6,0,0,1,1.12,2.21h0c-.86.46-1.07-.34-1.48-.76-1.34-2.76-4.19-3.34-6.6-4.55Z" transform="translate(-263.32 -552.36)"/><path class="cls-70" d="M368.82,600.29l1.48.76c.51,5,1.93,10.09-.74,15C370.22,610.73,370.65,605.46,368.82,600.29Z" transform="translate(-263.32 -552.36)"/><path class="cls-121" d="M343.57,598.85c1.61-.38-.88-3.35,1.89-3,.4,4.8.42,9.56-1.89,14.91Z" transform="translate(-263.32 -552.36)"/><path class="cls-122" d="M491.45,611.6l-2.17-3.83c-.81-.71-2-.1-2.82-.83-1.37-1.36-.95-3-.64-4.54s.94-2.87,2.56-3.33,2.4.86,3.19,2c1.65,3.68,3.67,7.22,4.47,11.24-2.44.2-2.76-1.95-3.63-3.4-.75-1.24-.83-2.78-1.57-4-.64-.64-.74-1.91-2.25-1.72-.35,2,1.67,2.53,2.39,3.81C491.92,608.4,493,609.87,491.45,611.6Z" transform="translate(-263.32 -552.36)"/><path class="cls-122" d="M491.44,611.54c.73.3.81,1,.9,1.61-.32,2.44-2.47,2.38-4,2.49a15.06,15.06,0,0,0-9.62,4.07c.41-3.67,2.25-5.53,6.13-5.05a39.5,39.5,0,0,0,4.07,0C491.1,614.68,491.67,613.45,491.44,611.54Z" transform="translate(-263.32 -552.36)"/><path class="cls-123" d="M497.52,593.56l6,14.24a1.84,1.84,0,0,1-.08,2.42,121.52,121.52,0,0,1-6.75-16.62A.59.59,0,0,1,497.52,593.56Z" transform="translate(-263.32 -552.36)"/><path class="cls-124" d="M491.57,601c-1.34-.59-2.55-2.5-4.17-.66-1.79,2-1.5,4.28-.3,6.51-2.45.4-2.79,0-2.32-2.87.27-2.18,1.48-4,2.34-5.94.72-.92,1.06-2.57,2.83-1.48C490,598.24,492,599.21,491.57,601Z" transform="translate(-263.32 -552.36)"/><path class="cls-125" d="M503.39,610.22c0-.81.05-1.61.08-2.42,1.88,3.83,3.69,7.67,3.71,12.07Q505.28,615,503.39,610.22Z" transform="translate(-263.32 -552.36)"/><path class="cls-126" d="M497.52,593.56l-.88,0c-1.94-3-2.24-7.1-5.86-9a.46.46,0,0,1,.71-.15C495.43,586.2,496.37,590,497.52,593.56Z" transform="translate(-263.32 -552.36)"/><path class="cls-127" d="M491.49,584.43c-.24,0-.47.1-.71.15-3.13-.62-5.48.62-7.32,3.06l-.92-.07q1.5-1.86,3-3.71C487.53,584.06,489.61,583.2,491.49,584.43Z" transform="translate(-263.32 -552.36)"/><path class="cls-128" d="M484.78,604c.06,1.54.17,3,2.32,2.87.79.14,1.71,0,2.18.88-.87,0-1.73-.11-2.59-.07C483.38,607.85,483,606.48,484.78,604Z" transform="translate(-263.32 -552.36)"/><path class="cls-123" d="M473.55,611.47c.44-2.72,1-5.39,3.14-7.38C476.08,606.73,475.37,609.33,473.55,611.47Z" transform="translate(-263.32 -552.36)"/><path class="cls-129" d="M490,596.6c-1.28-.16-1.87,1-2.83,1.48.09-1.38.4-2.88,1.71-3.33C489.67,594.46,490,595.69,490,596.6Z" transform="translate(-263.32 -552.36)"/><path class="cls-123" d="M476.65,604.14c-.18-1.55.1-2.92,1.57-3.79A5.66,5.66,0,0,1,476.65,604.14Z" transform="translate(-263.32 -552.36)"/><path class="cls-107" d="M471.32,612.26a4.31,4.31,0,0,1,1.49-3.73A4.3,4.3,0,0,1,471.32,612.26Z" transform="translate(-263.32 -552.36)"/><path class="cls-130" d="M416.7,584.62c1.38-1.77,3.84.16,5.24-1.53,5.16.3,10.36-.6,15.52.65,2.19.53,4.05,1.73,6.16,2.38l.73.72a18.85,18.85,0,0,1,2.85,5.77c.41,4.11,1.61,8.39-2.39,11.59a1.08,1.08,0,0,1-.9-.73c-.44-1.53.36-2.88.64-4.31.68-3.5.58-6.87-2-9.7a10.47,10.47,0,0,0-8.57-3.77c-4.22,0-8.44,0-12.67,0C419.71,585.63,418,585.89,416.7,584.62Z" transform="translate(-263.32 -552.36)"/><path class="cls-111" d="M444.38,604c2.58-1.95,2.21-4.78,2.25-7.48,0-1.5,0-3,0-4.49.25-.35.5-.35.76,0h0c1.31,3.49,1.63,7,0,10.47a8.44,8.44,0,0,0-2.25,4.48,5.26,5.26,0,0,0,0,5.25h0c1.45,2.83,2.61,5.71,1.49,9l-.61.07a46.71,46.71,0,0,1-4.49-10.47C440.67,608.16,441.2,605.37,444.38,604Z" transform="translate(-263.32 -552.36)"/><path class="cls-110" d="M447.37,602.54a25.47,25.47,0,0,0,0-10.47C449.36,595.56,449.88,599.05,447.37,602.54Z" transform="translate(-263.32 -552.36)"/><path class="cls-110" d="M446.62,621.24c.68-3.18-1.08-6-1.49-9h.75C447,615.19,448.4,618.08,446.62,621.24Z" transform="translate(-263.32 -552.36)"/><path class="cls-110" d="M447.38,592.07h-.76c-.76-1.74-1.51-3.49-2.27-5.23C446.64,587.84,446.84,590.05,447.38,592.07Z" transform="translate(-263.32 -552.36)"/><path class="cls-110" d="M445.13,612.27c-1.87-1.75-1.86-3.49,0-5.25C445.12,608.77,445.13,610.52,445.13,612.27Z" transform="translate(-263.32 -552.36)"/><path class="cls-131" d="M416.7,584.62c6,0,12.05.15,18.08.14,3.69,0,6.8,1,8.77,4.34,2.53,4.81,1.8,9.63,0,14.44a5.81,5.81,0,0,1-1.75,2.26c-4.36,2.31-.66,4.41.18,6.58a51.86,51.86,0,0,1,2.9,5.83c.46,1.25,1.08,2.42.1,3.68l.06,0c-2.84-.2-6.14,1.24-8.09-2.21-2.43-3-4.05-6.48-6.31-9.58-1.93-2.64-4.52-2.36-7-1.83-2.34.5-1.92,2.79-2.21,4.59-.47,3,.19,6.1-1.2,9-2.19,0-4.44.79-6.49-.61,0-5.92.12-11.84.11-17.76,0-2.08.39-3.7,2.85-3.9,4.22-1.25,8.56-1,12.87-1.06,1.25,0,2.49,0,3.73,0,1.85,0,2.82-.92,2.81-2.7s-1.06-2.67-2.88-2.63c-5,.11-9.92-.29-14.88-.34a9.44,9.44,0,0,1-3.15-.67C412.83,588.71,413.38,586,416.7,584.62Z" transform="translate(-263.32 -552.36)"/><path class="cls-132" d="M415.2,592.13h3c4.31.7,8.67.17,13,.66,2,.22,4,.31,4.06,2.8.09,2.69-1.93,3.2-4.09,3.2-4.33,0-8.65,1-13,0,3.64-1.32,7.44-1.48,11.26-1.52,1.25,0,3.21.5,3.22-1.43,0-1.39-1.75-1.44-3-1.53-3.83-.26-7.67-.5-11.5-.75A4.46,4.46,0,0,1,415.2,592.13Z" transform="translate(-263.32 -552.36)"/><path class="cls-110" d="M411.46,601.05v-1.5a9.15,9.15,0,0,0-.46-8.16c-.89-1.69-.33-3.59.46-5.31h0l1.5-.75c-1.34,3.83-.87,7,3.08,9.07,1.75.93,1.69,2.22-.25,2.79C413.65,597.82,412.86,599.72,411.46,601.05Z" transform="translate(-263.32 -552.36)"/><path class="cls-110" d="M410.71,614.51c-1.12-4.56-1.61-9.09.75-13.46A66.64,66.64,0,0,0,410.71,614.51Z" transform="translate(-263.32 -552.36)"/><path class="cls-110" d="M411.46,618.26c-1.25-1-.57-2.48-.75-3.75C412,615.56,411.28,617,411.46,618.26Z" transform="translate(-263.32 -552.36)"/><path class="cls-110" d="M406.22,612.27c-3.32-1.31-1.28-3.38-.74-5.24-.33-1.9,1.27-3.9-.33-5.73l-.86-1.06A12.12,12.12,0,0,0,403,599c-.23-.2-.43-.41-.65-.62-.66-.67-1.58-1-2.24-1.65a1.93,1.93,0,0,1-.3-.94c.19-1.31,1.26-1.81,2.25-2.29,3.2-1.52,4.51-3.78,3.07-7.25a1.44,1.44,0,0,1,.34-1.71h.74l.74.75c1.84,2.75,2.16,5.53,0,8.23-1,1.23-1.24,2.32-.16,3.64.55.65,1,1.49.19,2.34,1.31,3,1.5,5.78-.4,8.71C405.92,609.26,406.31,610.92,406.22,612.27Z" transform="translate(-263.32 -552.36)"/><path class="cls-111" d="M405.48,584.58c2,6.35,2,6.36-4.07,10.27a2.1,2.1,0,0,0-1.17,1.7c-1.08.91-2.28,1-3-.18s.48-1.86,1.25-2.54c1.34-1.22,3.49-.94,4.62-2.53,1.32-2,.2-4.42.85-6.55l.06-.9Z" transform="translate(-263.32 -552.36)"/><path class="cls-111" d="M387.5,583.08c0-.25,0-.49,0-.74H389a4.4,4.4,0,0,1,3.75,0c2.74.37,5.62-.82,8.25.74Z" transform="translate(-263.32 -552.36)"/><path class="cls-106" d="M392.76,582.34H389A2.56,2.56,0,0,1,392.76,582.34Z" transform="translate(-263.32 -552.36)"/><path class="cls-112" d="M407,599.55c0-.25,0-.59-.12-.72-2.48-2.29-2.5-4.27,0-6.8,1.82-1.84.7-4.43.09-6.69,1.43.68,2.31,4.68,4.5.74,0,3.11.05,6,2.19,8.73,1.91,2.4-1.89,2.92-2.19,4.74C410,601.06,408.47,601.06,407,599.55Z" transform="translate(-263.32 -552.36)"/><path class="cls-133" d="M459.92,584.68a3.55,3.55,0,0,1,1.62,3.18c0,11.08.47,22.17-.25,33.25-5.08,2.38-6.93,1.36-7-4q-.1-13.17,0-26.36C454.32,585,454.38,585,459.92,584.68Z" transform="translate(-263.32 -552.36)"/><path class="cls-134" d="M403.92,584.75a6.44,6.44,0,0,1,0,7.22c-5.36,1.86-10.93,1.29-16.42,1.2-3.25-.06-6.68.78-9.74-1.13-2-1.82-1.67-4.13-.85-6.17.75-1.86,2.84-1.14,4.34-1.15C388.83,584.66,396.38,584.73,403.92,584.75Z" transform="translate(-263.32 -552.36)"/><path class="cls-130" d="M377.79,592,404,592c-.91,1.9-3.26,1-4.46,2.33-6.87,3.15-13.67,1.16-20.48-.27l-.47-.47Z" transform="translate(-263.32 -552.36)"/><path class="cls-106" d="M380.78,595.06a2.1,2.1,0,0,1-2.25,2.24c1.64-2.1-1.18-2.41-1.49-3.73h1.5C379.18,594.22,380.54,593.81,380.78,595.06Z" transform="translate(-263.32 -552.36)"/><path class="cls-135" d="M420.23,621.85c.82-3.8.35-7.65.48-11.48.09-2.43.92-3.34,3.52-3.47,4-.19,6.92.5,8.48,4.64,1.07,2.87,3.32,5.2,4.27,8.18-2.7-1.4-3.48-4.35-5.19-6.54a9.88,9.88,0,0,0-3.74-3.44c-2.86-1.22-4.8-.21-5.36,2.86-.53,2.89-.95,5.79-1.41,8.69a3.44,3.44,0,0,0-.12.64Z" transform="translate(-263.32 -552.36)"/><path class="cls-136" d="M418.19,598.8c4.46.38,8.85-.47,13.27-.78,1.49-.11,3.16-.38,3.09-2.4s-1.8-1.82-3.27-2.1c-4.33-.85-8.81-.11-13.08-1.4,5.21,0,10.42,0,15.62-.1,2.56,0,3.65,1.33,3.69,3.63s-.94,4.05-3.71,4c-5.7-.06-11.4-.06-17.1-.09A1.53,1.53,0,0,1,418.19,598.8Z" transform="translate(-263.32 -552.36)"/><path class="cls-137" d="M402.49,622.07c-4.79,1.93-9.76,1.59-14.73,1.13-1.33-.13-2.66-.3-4-.45-4.16-1.7-7.25-4.38-8.24-9a31.31,31.31,0,0,1,0-10.49h0a.81.81,0,0,1,1.12.24c1.24,2.43.56,5.13,1,7.69,1.35,7.14,4.11,9.6,11.32,9.71,3.11,0,6.22,0,9.32,0C399.79,621,401.36,620.77,402.49,622.07Z" transform="translate(-263.32 -552.36)"/><path class="cls-105" d="M380.78,595.06l-2.24-1.5c6.95,1.19,13.92,1.79,20.95.74-.62.52-1.84,1.19-1.76,1.51.35,1.28,1.63.53,2.51.74h0a.82.82,0,0,1-.31,1.16,6,6,0,0,1-4.32.4,26.74,26.74,0,0,0-10.62-.06,3.59,3.59,0,0,1-3.46-.74c.31-.89,2-.56,1.78-1.52C383,594.52,381.66,595.28,380.78,595.06Z" transform="translate(-263.32 -552.36)"/><path class="cls-130" d="M381.53,597.31c6.24-1.36,12.47-.5,18.71,0,1.12-.26,2,.39,3,.76q0,.36,0,.72c-1.79,1.68-3.77.31-5.63.27-4.14-.09-8.24-1.21-12.41-.07a4.3,4.3,0,0,1-3.22-.48c-.16-.15-.31-.31-.47-.47C381.53,597.8,381.53,597.56,381.53,597.31Z" transform="translate(-263.32 -552.36)"/><path class="cls-138" d="M375.54,603.28v10.49A15.55,15.55,0,0,1,375.54,603.28Z" transform="translate(-263.32 -552.36)"/><path class="cls-138" d="M376.39,603.32l-.86,0a4.73,4.73,0,0,1,2.25-3.74,1,1,0,0,1,1.43,0C379.37,601.58,378.3,602.76,376.39,603.32Z" transform="translate(-263.32 -552.36)"/><path class="cls-130" d="M379.38,599.69l-1.6-.15c.76-1.71,2.3-1.49,3.74-1.5v0c.27,1.4-.91,1.31-1.68,1.64Z" transform="translate(-263.32 -552.36)"/><path class="cls-102" d="M376.39,603.32a11.28,11.28,0,0,1,3-3.63h-.05c6.84-1.86,13.78-1.06,20.69-.67l3.35.19c3.11,3.35,3.11,4.91,0,8a3.47,3.47,0,0,1-1.85.72c-4.34.21-8.69-.05-13,.18-1.15.07-2.81-.33-3,1.36s1.39,2.1,2.65,2.62c2.15.89,4.41.41,6.63.52,1.11.06,2.23,0,3.35.05,7.21.14,8,1.1,6.58,8.52l-2.18.84-14.1-.12c-7.52-.08-10.52-2.6-11.62-10.12A80.29,80.29,0,0,1,376.39,603.32Z" transform="translate(-263.32 -552.36)"/><path class="cls-122" d="M404.67,621.23c.47-9.29.16-7.44-7.34-7.69-3.35-.11-6.7-.15-10.05-.3-2.67-.11-3.67-1.8-3.6-4.24.09-2.9,2.41-2,3.91-2,4.71-.1,9.43,0,14.14,0-.67,2.37-2.85,2-4.51,2.32-1.92.42-4,0-5.93.72,4.3.74,8.88.21,12.72,2.86C406.61,615.52,405.85,618.36,404.67,621.23Z" transform="translate(-263.32 -552.36)"/><path class="cls-139" d="M404,613c-4.36-.59-8.64-1.84-13.12-1.47-1,.09-2.18,0-2.21-1.34,0-1.16,1.27-1,2-1.24,3.08-.9,6.41.24,9.45-1.1.55-.23,1.08-.5,1.61-.75l1.38-.08c.38-.35.69-.29.92.17q0,.32-.06.63c-2.91,2.34-2.91,2.34,0,4.51C404,612.51,404,612.73,404,613Z" transform="translate(-263.32 -552.36)"/><path class="cls-140" d="M404,612.28a8.74,8.74,0,0,1-4.51-2.33l4.51-2.18C402.48,609.27,402.48,610.78,404,612.28Z" transform="translate(-263.32 -552.36)"/><path class="cls-140" d="M405.42,600.34c2.49,2.21,1.49,4.45.06,6.69h-.79C405.43,604.85,404.77,602.52,405.42,600.34Z" transform="translate(-263.32 -552.36)"/><path class="cls-122" d="M405.42,600.34c0,2.25.56,4.56-.72,6.68a2.48,2.48,0,0,0-.67.12l-.92-.17c2.33-2.24,1.8-4.71.58-7.24a.58.58,0,0,1,1-.16Z" transform="translate(-263.32 -552.36)"/><path class="cls-141" d="M445,621.89c.77-3.95-2.7-6.26-3.69-9.53-1-2.31-3.61-4.63,0-6.94l1.46-1.41c.48-.33.73-1.18,1.57-.72,0,.25,0,.5,0,.75-2.69,3.12-2.91,6.35-.71,9.9a14.31,14.31,0,0,1,2.34,7.37Z" transform="translate(-263.32 -552.36)"/><path class="cls-142" d="M297,616l-1.49-2.24h0a35.55,35.55,0,0,1,0-11.23,37.17,37.17,0,0,1,2.18-4.7,3.51,3.51,0,0,0,0-4.09c-1.3-2.39-2.39-5-.69-7.68a2.09,2.09,0,0,1,.75,1.31c.2,1.3.13,2.69,1.17,3.73.25.21.48.45.72.69a10.52,10.52,0,0,1,1.24,1.58c2,2.37.67,4.12-1.09,5.79a6.84,6.84,0,0,0-2.06,4.39,9,9,0,0,1-.22,1,18.37,18.37,0,0,0,.12,7.53,6.19,6.19,0,0,1,.21,1.14A3.13,3.13,0,0,1,297,616Z" transform="translate(-263.32 -552.36)"/><path class="cls-118" d="M295.49,602.54v11.23A17.69,17.69,0,0,1,295.49,602.54Z" transform="translate(-263.32 -552.36)"/><path class="cls-120" d="M297,587.58v-1.51a3.56,3.56,0,0,1,2.25-3h1.49c.45,1-.53,1.3-1,1.85a7.94,7.94,0,0,0-.88,1C298.3,586.58,298.34,587.91,297,587.58Z" transform="translate(-263.32 -552.36)"/><path class="cls-143" d="M297,616v-3a.75.75,0,0,1,.91-.13c1.16,1.08,1.29,2.73,2.25,3.92.2.27.38.56.56.84a4.79,4.79,0,0,0,4.55,2.76c5.4.86,10.82.33,16.23.48a16.27,16.27,0,0,1,4.4.35A2.44,2.44,0,0,1,327,622c0,.24,0,.49,0,.73h0a12.12,12.12,0,0,1-7.4,1.87c-5-.3-10.15.75-15.05-1.12C300.58,622.39,298.43,619.55,297,616Z" transform="translate(-263.32 -552.36)"/><path class="cls-120" d="M304.46,623.5a70,70,0,0,0,11.11.79,30.45,30.45,0,0,0,11.34-1.54c-.39,1.55-2.24,1.16-3,2.24H309.59A7.66,7.66,0,0,1,304.46,623.5Z" transform="translate(-263.32 -552.36)"/><path class="cls-118" d="M329.9,620.5l1.1-7.92c1.94,1.91,2.35,4.35,3.4,6.42C332.2,617.39,331.09,619.06,329.9,620.5Z" transform="translate(-263.32 -552.36)"/><path class="cls-144" d="M300,593.55l-.74-1.54c1.32-1.24,3-1,4.59-1,5.09-.05,10.18,0,15.28,0,5.7,0,5.7,0,7.39-5.3a.81.81,0,0,1,1.15-.3h0c0,.81-.1,1.69.73,2.25.9,1.69.23,3.11-.74,4.48l-2.23,1.5a13,13,0,0,1-6.55,2.25,9.13,9.13,0,0,1,6.54,2.25l1.54,1.48-.45.45a4.45,4.45,0,0,1-1.82.53c-6.18.2-12.38.1-18.57.08-2.6,0-4.9.53-6.72,2.5l-.52.32a1.63,1.63,0,0,1-1.15.05c-.75-2.24.9-3.44,2.09-4.85a7.49,7.49,0,0,1,3.13-2c1-.22,2-.34,3-.56-1-.77-2.16-.56-3.19-.88A9.87,9.87,0,0,1,300,593.55Z" transform="translate(-263.32 -552.36)"/><path class="cls-103" d="M327,622,326,622c-.56-2.2.1-4.42-.13-6.61a2.89,2.89,0,0,0-.57-1.86c-.26-.25-.54-.49-.82-.72-3-2.43-3-2.8-.08-5a10,10,0,0,0,2.41-2.65,3.11,3.11,0,0,0,0-3.66c-.31-.64-.54-1.27.06-1.88H327a5.25,5.25,0,0,1,1,8.06c-1.69,2-1.32,3.22-.14,5C329.88,615.91,329.88,619.13,327,622Z" transform="translate(-263.32 -552.36)"/><path class="cls-103" d="M325.41,598.06,316.28,596l0-.52,9.12-1.87C323.9,595.06,323.91,596.56,325.41,598.06Z" transform="translate(-263.32 -552.36)"/><path class="cls-145" d="M327.65,592.06c.27-1.49,1-2.9.74-4.48C329.65,589.33,329.6,590.85,327.65,592.06Z" transform="translate(-263.32 -552.36)"/><path class="cls-145" d="M327.65,585.34l-1,.09c-8.49.68-17,.32-25.48.14a2.9,2.9,0,0,1-2-.89l1.49-1.59c2.25-.2,4.42-1.11,6.73-.76a37.15,37.15,0,0,1,11.24,0C321.8,583,325.36,582.26,327.65,585.34Z" transform="translate(-263.32 -552.36)"/><path class="cls-120" d="M318.69,582.33H307.45A18,18,0,0,1,318.69,582.33Z" transform="translate(-263.32 -552.36)"/><path class="cls-132" d="M491.51,604c-.14,1.17.53,2.75-1.48,3-.57-.45-1.16-.87-1.69-1.36-.84-.75-1.68-1.59-1-2.81a3.05,3.05,0,0,1,1.54-1.44c1.31-.27,1.31,1.15,1.87,1.84C491,603.53,491.27,603.78,491.51,604Z" transform="translate(-263.32 -552.36)"/><path class="cls-135" d="M444.36,603.29l-1.57.72c2.23-4.87,2.16-9.85.76-14.91C447.35,593.63,445.87,598.46,444.36,603.29Z" transform="translate(-263.32 -552.36)"/><path class="cls-146" d="M441.33,605.42c-2.48,2.31-.32,4.63,0,6.94L439.61,610C437.82,607.62,438.3,606.05,441.33,605.42Z" transform="translate(-263.32 -552.36)"/><path class="cls-138" d="M404.7,599.57l-1,.16-24.36,0c.31-1.12,1.77-.68,2.2-1.63a77.51,77.51,0,0,1,21.72.73C403.85,598.83,404.42,598.93,404.7,599.57Z" transform="translate(-263.32 -552.36)"/><path class="cls-111" d="M403.22,598.07a5.19,5.19,0,0,1-3-.76v-.76A4,4,0,0,1,403.22,598.07Z" transform="translate(-263.32 -552.36)"/><path class="cls-133" d="M299.23,584.68q11.56,0,23.13,0c1.47,0,3-.2,4.33.75.08.74.14,1.49.23,2.23.39,3.12-.72,4.51-4.13,4.43-7.84-.2-15.7-.07-23.55-.08l-.22-.12-.24.07c-1.73-2.16-.88-4.4-.22-6.64Z" transform="translate(-263.32 -552.36)"/><path class="cls-145" d="M300,593.55l3,.76q2.29,1.5,0,3l-3,1.51c-.25.31-.5.31-.75,0C300.47,597.2,302.29,595.67,300,593.55Z" transform="translate(-263.32 -552.36)"/><path class="cls-143" d="M298.56,585.32q.12,3.33.22,6.64c-2-.88-1.75-2.69-1.8-4.38C297.51,586.83,298,586.08,298.56,585.32Z" transform="translate(-263.32 -552.36)"/><path class="cls-144" d="M297.73,613H297c0-.25,0-.5,0-.74a20.47,20.47,0,0,1,0-8.25c0-.24,0-.49,0-.74.24-.33.48-.35.73,0l0,0A10.66,10.66,0,0,1,297.73,613Z" transform="translate(-263.32 -552.36)"/><path class="cls-143" d="M297,604v8.25A10,10,0,0,1,297,604Z" transform="translate(-263.32 -552.36)"/><path class="cls-143" d="M297.72,603.28H297a4.73,4.73,0,0,1,2.24-4.49H300C299.13,600.25,297.82,601.46,297.72,603.28Z" transform="translate(-263.32 -552.36)"/><path class="cls-102" d="M326.86,614.58c.07,2.5.69,5-.82,7.37-7.37-.26-14.79,1-22.11-.83a7.64,7.64,0,0,1-3.87-3.71l0,0c-2.71-4.48-2.15-9.31-1.56-14.15.93-2.74,2.89-3.72,5.71-3.7,7,.07,14.09,0,21.14,0,3.41,3.95,2.6,6.92-2.32,8.43-1.68.09-3.37,0-5.05.07-3,0-5.93-.06-8.9,0-1,0-2.11,0-2.12,1.46a2.21,2.21,0,0,0,1.69,2.48c4.14,1.26,8.36.46,12.53.72C323.24,612.88,325.51,612.33,326.86,614.58Z" transform="translate(-263.32 -552.36)"/><path class="cls-126" d="M298.52,603.3c.24,4.75-.14,9.56,1.56,14.15-2-.81-1.75-2.86-2.35-4.43,0-3.24,0-6.47,0-9.71Z" transform="translate(-263.32 -552.36)"/><path class="cls-126" d="M300.06,617.41l3.87,3.71A3.81,3.81,0,0,1,300.06,617.41Z" transform="translate(-263.32 -552.36)"/><path class="cls-125" d="M323.17,607.05c3.8-.74,4.57-3.37,2.2-7.48l1.53,0a1.71,1.71,0,0,0,.75,1.5,6,6,0,0,1,0,4.48c-.55.76-.94,1.91-1.69,2.22-4.92,2-2,3.59.24,5.22-1.13.77-2.38.29-3.58.36a104.75,104.75,0,0,0-11.48-.64,1.92,1.92,0,0,1-1.13-.53c-1.11-3.22-.6-4.19,2.49-4.34C316.07,607.64,319.67,608.07,323.17,607.05Z" transform="translate(-263.32 -552.36)"/><path class="cls-143" d="M303,597.3a2.45,2.45,0,0,0,0-3l6.35,1.21A11.47,11.47,0,0,1,303,597.3Z" transform="translate(-263.32 -552.36)"/><path class="cls-147" d="M322.51,612.91l3.68.07a1.41,1.41,0,0,1,.67,1.6c-1.83-1.5-4-.9-6.09-1-3.83-.16-7.68-.17-11.52-.29-2.66-.09-3.7-1.75-3.68-4.18,0-2.77,2.2-2.15,3.81-2.17,2.85-.05,5.7,0,8.55.09-1.47,2.21-3.68.68-5.51,1.05-1.08.22-2.34-.08-3,1-.92,1.44.22,2.27,1.12,3.13.22,0,.45,0,.67,0C315,611.89,318.72,612.88,322.51,612.91Z" transform="translate(-263.32 -552.36)"/><path class="cls-144" d="M327.65,605.53v-4.48A3.34,3.34,0,0,1,327.65,605.53Z" transform="translate(-263.32 -552.36)"/><path class="cls-148" d="M310.5,612.24a2.06,2.06,0,0,1-2.19-2.69c.25-1.56,1.51-1.66,2.81-1.79,2.27-.24,4.67.76,6.81-.71h5.24c-3.13,1.88-6.6,1.53-10,1.45C310.24,608.43,309.32,609.51,310.5,612.24Z" transform="translate(-263.32 -552.36)"/><path class="cls-148" d="M322.51,612.91a43.12,43.12,0,0,1-11.34-.66C315.05,610.77,318.74,612.47,322.51,612.91Z" transform="translate(-263.32 -552.36)"/><text class="cls-149" transform="translate(170.37 97.4)">GAMI<tspan class="cls-150" x="56.66" y="0">N</tspan><tspan x="72.54" y="0">G</tspan></text><path class="cls-151" d="M325.41,665.05q38-.43,76.6-.11l10.95.11,22.3-34,67.86.29h11.34" transform="translate(-263.32 -552.36)"/><circle class="cls-152" cx="62.5" cy="112.69" r="3.19"/><circle class="cls-152" cx="251.14" cy="78.72" r="3.19"/></svg>